<svg width="24" height="24" viewBox="0 0 24 24" fill="none" xmlns="http://www.w3.org/2000/svg">
<path d="M13.1606 11.9766L19.8196 5.32766C19.9475 5.17178 20.0129 4.97388 20.003 4.77247C19.9931 4.57105 19.9087 4.38052 19.7661 4.23792C19.6235 4.09533 19.4329 4.01087 19.2315 4.00098C19.0301 3.99109 18.8322 4.05647 18.6763 4.1844L12.0274 10.8434L5.37843 4.1844C5.22255 4.05647 5.02465 3.99109 4.82324 4.00098C4.62182 4.01087 4.43129 4.09533 4.28869 4.23792C4.1461 4.38052 4.06164 4.57105 4.05175 4.77247C4.04186 4.97388 4.10724 5.17178 4.23517 5.32766L10.8942 11.9766L4.23517 18.6256C4.08452 18.7777 4 18.9831 4 19.1972C4 19.4113 4.08452 19.6167 4.23517 19.7688C4.38852 19.9171 4.59349 20 4.8068 20C5.02011 20 5.22508 19.9171 5.37843 19.7688L12.0274 13.1098L18.6763 19.7688C18.8297 19.9171 19.0347 20 19.248 20C19.4613 20 19.6663 19.9171 19.8196 19.7688C19.9703 19.6167 20.0548 19.4113 20.0548 19.1972C20.0548 18.9831 19.9703 18.7777 19.8196 18.6256L13.1606 11.9766Z" fill="#2D3643"/>
</svg>
