<svg width="24" height="24" viewBox="0 0 24 24" fill="none" xmlns="http://www.w3.org/2000/svg">
<path d="M18.5922 13.575L17.6028 12.1828C17.6094 12.0563 17.6028 11.9227 17.6028 11.8242L18.5922 10.425C18.6414 10.3569 18.6749 10.2775 18.6899 10.1933C18.7049 10.109 18.701 10.0222 18.6786 9.93984C18.5112 9.2916 18.2681 8.66803 17.9547 8.08359C17.9143 8.00935 17.8588 7.94559 17.7921 7.89694C17.7255 7.84829 17.6495 7.81597 17.5696 7.80234L15.9426 7.55625L15.6969 7.29609L15.4645 5.57344C15.4515 5.48976 15.4217 5.41003 15.377 5.33966C15.3323 5.26929 15.2738 5.20993 15.2055 5.16563C14.6507 4.8351 14.0597 4.57772 13.4458 4.39922C13.3679 4.37547 13.286 4.37137 13.2064 4.38725C13.1268 4.40312 13.0519 4.43853 12.9875 4.49063L11.6727 5.53125H11.3274L10.0125 4.49063C9.94824 4.43853 9.87329 4.40312 9.79371 4.38725C9.71414 4.37137 9.63215 4.37547 9.55435 4.39922C8.94212 4.57642 8.35319 4.83388 7.80122 5.16563C7.73111 5.20843 7.67088 5.26724 7.62493 5.33779C7.57899 5.40833 7.54847 5.48883 7.5356 5.57344L7.30317 7.29609L7.05747 7.55625L5.43052 7.80234C5.35061 7.81597 5.27458 7.84829 5.20796 7.89694C5.14133 7.94559 5.08579 8.00935 5.04536 8.08359C4.73205 8.66803 4.48889 9.2916 4.32153 9.93984C4.29911 10.0222 4.29523 10.109 4.31022 10.1933C4.32522 10.2775 4.35866 10.3569 4.40786 10.425L5.39731 11.8172V12.1758L4.40786 13.575C4.35866 13.6431 4.32522 13.7225 4.31022 13.8067C4.29523 13.891 4.29911 13.9778 4.32153 14.0602C4.48889 14.7084 4.73205 15.332 5.04536 15.9164C5.08579 15.9906 5.14133 16.0544 5.20796 16.1031C5.27458 16.1517 5.35061 16.184 5.43052 16.1977L7.05747 16.4437L7.30317 16.7039L7.5356 18.4266C7.54847 18.5112 7.57899 18.5917 7.62493 18.6622C7.67088 18.7328 7.73111 18.7916 7.80122 18.8344C8.35319 19.1661 8.94212 19.4236 9.55435 19.6008C9.59967 19.6147 9.64661 19.6218 9.6938 19.6219C9.80898 19.6235 9.9213 19.5838 10.0125 19.5094L11.3274 18.4688H11.6727L12.9875 19.5094C13.0519 19.5615 13.1268 19.5969 13.2064 19.6128C13.286 19.6286 13.3679 19.6245 13.4458 19.6008C14.0584 19.4249 14.6475 19.1673 15.1989 18.8344C15.269 18.7916 15.3292 18.7328 15.3752 18.6622C15.4211 18.5917 15.4516 18.5112 15.4645 18.4266L15.6969 16.6969C15.7766 16.6125 15.8696 16.5211 15.936 16.4437L17.5696 16.1977C17.6495 16.184 17.7255 16.1517 17.7921 16.1031C17.8588 16.0544 17.9143 15.9906 17.9547 15.9164C18.2681 15.332 18.5112 14.7084 18.6786 14.0602C18.701 13.9778 18.7049 13.891 18.6899 13.8067C18.6749 13.7225 18.6414 13.6431 18.5922 13.575ZM11.5 15.0938C10.9222 15.0938 10.3572 14.9123 9.87674 14.5724C9.39624 14.2324 9.02174 13.7492 8.80059 13.1839C8.57944 12.6186 8.52158 11.9966 8.63432 11.3964C8.74706 10.7963 9.02534 10.2451 9.43397 9.81239C9.8426 9.37972 10.3632 9.08507 10.93 8.9657C11.4968 8.84632 12.0843 8.90759 12.6182 9.14175C13.1521 9.37591 13.6084 9.77244 13.9295 10.2812C14.2506 10.79 14.4219 11.3881 14.4219 12C14.4219 12.8205 14.1141 13.6074 13.5661 14.1876C13.0182 14.7678 12.275 15.0938 11.5 15.0938Z" fill="#2D3643"/>
</svg>
