<svg width="16" height="16" viewBox="0 0 16 16" fill="none" xmlns="http://www.w3.org/2000/svg">
<path d="M8 10.5599C9.41385 10.5599 10.56 9.41379 10.56 7.99994C10.56 6.58609 9.41385 5.43994 8 5.43994C6.58615 5.43994 5.44 6.58609 5.44 7.99994C5.44 9.41379 6.58615 10.5599 8 10.5599Z" fill="#F9F9F9"/>
<path d="M11.52 0H4.48C3.29183 0 2.15232 0.471999 1.31216 1.31216C0.471999 2.15232 0 3.29183 0 4.48V11.52C0 12.7082 0.471999 13.8477 1.31216 14.6878C2.15232 15.528 3.29183 16 4.48 16H11.52C12.7082 16 13.8477 15.528 14.6878 14.6878C15.528 13.8477 16 12.7082 16 11.52V4.48C16 3.29183 15.528 2.15232 14.6878 1.31216C13.8477 0.471999 12.7082 0 11.52 0ZM8 11.84C7.24052 11.84 6.49809 11.6148 5.86661 11.1928C5.23513 10.7709 4.74294 10.1712 4.4523 9.4695C4.16166 8.76784 4.08562 7.99574 4.23378 7.25085C4.38195 6.50597 4.74768 5.82174 5.28471 5.28471C5.82174 4.74768 6.50597 4.38195 7.25085 4.23378C7.99574 4.08562 8.76784 4.16166 9.4695 4.4523C10.1712 4.74294 10.7709 5.23513 11.1928 5.86661C11.6148 6.49809 11.84 7.24052 11.84 8C11.84 9.01843 11.4354 9.99515 10.7153 10.7153C9.99515 11.4354 9.01843 11.84 8 11.84ZM12.16 4.8C11.9701 4.8 11.7845 4.7437 11.6267 4.63821C11.4688 4.53272 11.3457 4.38279 11.2731 4.20738C11.2004 4.03196 11.1814 3.83893 11.2184 3.65271C11.2555 3.46649 11.3469 3.29544 11.4812 3.16118C11.6154 3.02692 11.7865 2.93549 11.9727 2.89845C12.1589 2.8614 12.352 2.88042 12.5274 2.95308C12.7028 3.02574 12.8527 3.14878 12.9582 3.30665C13.0637 3.46452 13.12 3.65013 13.12 3.84C13.12 4.09461 13.0189 4.33879 12.8388 4.51882C12.6588 4.69886 12.4146 4.8 12.16 4.8Z" fill="#F9F9F9"/>
</svg>
