<svg width="20" height="20" viewBox="0 0 20 20" fill="none" xmlns="http://www.w3.org/2000/svg">
<path d="M10.2383 3.33333C8.8495 3.3349 7.51803 3.8873 6.536 4.86933C5.55397 5.85136 5.00158 7.18283 5 8.57163C5 13.0539 9.76209 16.441 9.96448 16.5838C10.0456 16.6378 10.1409 16.6667 10.2383 16.6667C10.3357 16.6667 10.431 16.6378 10.5121 16.5838C10.7145 16.441 15.4766 13.0539 15.4766 8.57163C15.475 7.18283 14.9226 5.85136 13.9406 4.86933C12.9586 3.8873 11.6271 3.3349 10.2383 3.33333V3.33333ZM10.2383 6.66679C10.615 6.66679 10.9833 6.77851 11.2966 6.98781C11.6098 7.19712 11.854 7.49461 11.9981 7.84268C12.1423 8.19074 12.18 8.57374 12.1065 8.94324C12.033 9.31274 11.8516 9.65215 11.5852 9.91855C11.3188 10.1849 10.9794 10.3664 10.6099 10.4399C10.2404 10.5134 9.85741 10.4756 9.50935 10.3315C9.16129 10.1873 8.86379 9.94315 8.65449 9.6299C8.44518 9.31665 8.33346 8.94837 8.33346 8.57163C8.33346 8.06643 8.53415 7.58193 8.89138 7.2247C9.2486 6.86748 9.7331 6.66679 10.2383 6.66679V6.66679Z" fill="#4D4C7D"/>
</svg>
