<svg width="24" height="24" viewBox="0 0 24 24" fill="none" xmlns="http://www.w3.org/2000/svg">
<path d="M21.2678 15.3839C21.2025 15.3083 21.1216 15.2476 21.0307 15.206C20.9398 15.1644 20.841 15.1429 20.7411 15.1428H19.8571V5.85714C19.8548 5.1001 19.553 4.37475 19.0177 3.83944C18.4824 3.30413 17.757 3.00235 17 3H4.85715C4.10012 3.00235 3.37476 3.30413 2.83945 3.83944C2.30414 4.37475 2.00237 5.1001 2.00001 5.85714C1.99774 6.5603 2.25895 7.23881 2.73216 7.75892C2.79348 7.82905 2.86809 7.88633 2.95167 7.92747C3.03525 7.9686 3.12615 7.99277 3.21913 7.99858C3.31211 8.00439 3.40531 7.99173 3.49336 7.96132C3.58142 7.93091 3.66258 7.88337 3.73215 7.82142C3.80256 7.75932 3.86004 7.68394 3.90129 7.5996C3.94254 7.51526 3.96676 7.42362 3.97257 7.32991C3.97837 7.23621 3.96565 7.14228 3.93512 7.05349C3.90459 6.96471 3.85686 6.88282 3.79465 6.81249C3.63978 6.64017 3.52914 6.43277 3.47227 6.20816C3.41541 5.98355 3.41403 5.74848 3.46826 5.52322C3.52248 5.29796 3.63068 5.08927 3.78353 4.91515C3.93637 4.74102 4.12928 4.60668 4.34561 4.52371C4.56194 4.44075 4.7952 4.41165 5.02529 4.43892C5.25537 4.46618 5.47537 4.54901 5.66631 4.68024C5.85726 4.81147 6.01342 4.98718 6.12132 5.19221C6.22923 5.39724 6.28566 5.62544 6.28572 5.85714V17.2857C6.28808 18.0427 6.58985 18.7681 7.12516 19.3034C7.66047 19.8387 8.38583 20.1405 9.14286 20.1428H19.1428C19.8999 20.1405 20.6252 19.8387 21.1605 19.3034C21.6959 18.7681 21.9976 18.0427 22 17.2857C22.0023 16.5825 21.741 15.904 21.2678 15.3839ZM10.5714 8.71428H16.2857C16.4751 8.71428 16.6568 8.78953 16.7908 8.92349C16.9247 9.05744 17 9.23912 17 9.42856C17 9.618 16.9247 9.79968 16.7908 9.93364C16.6568 10.0676 16.4751 10.1428 16.2857 10.1428H10.5714C10.382 10.1428 10.2003 10.0676 10.0664 9.93364C9.9324 9.79968 9.85715 9.618 9.85715 9.42856C9.85715 9.23912 9.9324 9.05744 10.0664 8.92349C10.2003 8.78953 10.382 8.71428 10.5714 8.71428ZM9.85715 12.2857C9.85715 12.0963 9.9324 11.9146 10.0664 11.7806C10.2003 11.6467 10.382 11.5714 10.5714 11.5714H16.2857C16.4751 11.5714 16.6568 11.6467 16.7908 11.7806C16.9247 11.9146 17 12.0963 17 12.2857C17 12.4751 16.9247 12.6568 16.7908 12.7908C16.6568 12.9247 16.4751 13 16.2857 13H10.5714C10.382 13 10.2003 12.9247 10.0664 12.7908C9.9324 12.6568 9.85715 12.4751 9.85715 12.2857ZM19.1428 18.7143H11.6161C11.8665 18.2797 11.9988 17.7872 12 17.2857C12.0017 17.0447 11.9716 16.8046 11.9107 16.5714H20.3839C20.5066 16.7893 20.5704 17.0354 20.5689 17.2855C20.5674 17.5355 20.5007 17.7809 20.3753 17.9973C20.25 18.2136 20.0704 18.3936 19.8543 18.5193C19.6381 18.6451 19.3929 18.7123 19.1428 18.7143Z" fill="#2D3643"/>
</svg>
