<svg width="20" height="20" viewBox="0 0 20 20" fill="none" xmlns="http://www.w3.org/2000/svg">
<path d="M16.9444 7.76388V7.73611C16.9414 7.72468 16.9391 7.71308 16.9375 7.70138V7.68055C16.9306 7.66666 16.9306 7.65277 16.9236 7.63888V7.62499L15.9306 4.13888C15.8621 3.90776 15.7213 3.70472 15.5287 3.55969C15.3362 3.41466 15.1022 3.33531 14.8611 3.33333H4.58333C4.34229 3.33531 4.10827 3.41466 3.91573 3.55969C3.72319 3.70472 3.58233 3.90776 3.51389 4.13888L2.52083 7.62499V7.63888C2.51389 7.65277 2.51389 7.66666 2.50694 7.68055V7.70138C2.50532 7.71308 2.503 7.72468 2.5 7.73611V8.88888C2.5 9.32012 2.6004 9.74543 2.79326 10.1311C2.98611 10.5169 3.26612 10.8524 3.61111 11.1111V15.5555C3.61111 15.8502 3.72817 16.1328 3.93655 16.3412C4.14492 16.5496 4.42754 16.6667 4.72222 16.6667H14.7222C15.0169 16.6667 15.2995 16.5496 15.5079 16.3412C15.7163 16.1328 15.8333 15.8502 15.8333 15.5555V11.1111C16.1783 10.8524 16.4583 10.5169 16.6512 10.1311C16.844 9.74543 16.9444 9.32012 16.9444 8.88888V7.76388ZM3.61111 8.33333H6.94444V8.88888C6.9447 9.17553 6.87102 9.45739 6.73053 9.70724C6.59003 9.95709 6.38748 10.1665 6.14242 10.3152C5.89737 10.4639 5.61811 10.5469 5.33162 10.5561C5.04513 10.5654 4.76109 10.5006 4.50694 10.3681C4.46853 10.3376 4.42656 10.312 4.38194 10.2917C4.14562 10.1418 3.95102 9.93459 3.81625 9.68933C3.68148 9.44408 3.61092 9.16873 3.61111 8.88888V8.33333ZM11.3889 8.88888C11.3889 9.33091 11.2133 9.75483 10.9007 10.0674C10.5882 10.38 10.1643 10.5556 9.72222 10.5556C9.2802 10.5556 8.85627 10.38 8.54371 10.0674C8.23115 9.75483 8.05556 9.33091 8.05556 8.88888V8.33333H11.3889V8.88888ZM15.0625 10.2917C15.0179 10.312 14.9759 10.3376 14.9375 10.3681C14.6834 10.5006 14.3993 10.5654 14.1128 10.5561C13.8263 10.5469 13.5471 10.4639 13.302 10.3152C13.057 10.1665 12.8544 9.95709 12.7139 9.70724C12.5734 9.45739 12.4997 9.17553 12.5 8.88888V8.33333H15.8333V8.88888C15.8335 9.16873 15.763 9.44408 15.6282 9.68933C15.4934 9.93459 15.2988 10.1418 15.0625 10.2917Z" fill="#4D4C7D"/>
</svg>
