<svg width="48" height="48" viewBox="0 0 48 48" fill="none" xmlns="http://www.w3.org/2000/svg">
<path opacity="0.18" d="M43.0034 23.28C42.3539 26.2637 41.7041 29.2454 41.0539 32.2249C40.7999 33.3896 40.5439 34.5616 40.087 35.6597C39.7554 36.456 39.3189 37.2044 38.7891 37.885C37.1851 39.9542 34.7735 41.4051 32.1746 41.759C30.5176 41.9848 28.8241 41.7944 27.1702 42.041C25.0823 42.3533 23.1547 43.3442 21.0928 43.7948C18.1493 44.4391 15.0331 43.9437 12.2457 42.7946C10.0506 41.8901 6.29424 40.2643 4.82979 37.8871C4.53988 37.4314 4.34482 36.922 4.25629 36.3893C3.5277 31.6952 4.43011 25.9352 5.98407 21.4929C9.00249 12.854 16.8701 6.09482 25.864 4.40242C29.2748 3.76127 32.8823 3.81955 36.1214 5.06543C39.3605 6.31131 42.1843 8.83637 43.3406 12.1088C44.6011 15.6694 43.808 19.5892 43.0034 23.28Z" fill="#827397"/>
<path d="M38.7893 37.8871C37.1854 39.9562 34.7738 41.4072 32.1749 41.7611C30.5178 41.9869 28.8244 41.7964 27.1705 42.0431C25.0826 42.3554 23.155 43.3462 21.0931 43.7969C18.1496 44.4412 15.0334 43.9458 12.246 42.7967C10.0509 41.8901 6.29453 40.2643 4.83008 37.8871H38.7893Z" fill="#827397"/>
<path d="M23.778 38.4897C20.4265 37.7132 16.9314 38.0317 13.507 38.3534C13.1948 38.3825 12.8711 38.4158 12.6046 38.5803C12.3382 38.7447 12.1519 39.0851 12.2653 39.3775C12.3694 39.6346 12.6463 39.7658 12.9086 39.8532C14.5739 40.4163 16.3808 40.282 18.1367 40.2019C23.8259 39.9438 29.5858 40.3268 35.1636 39.1517C35.7319 39.032 36.3398 38.8707 36.7051 38.4231C35.6591 37.8912 34.3976 38.0369 33.2704 38.3596C32.1432 38.6823 31.0524 39.1725 29.8866 39.3016C29.2319 39.3734 29.0123 38.6864 28.4701 38.4377C28.0537 38.2462 27.7821 38.294 27.3553 38.4231C26.0324 38.8207 25.1467 38.8072 23.778 38.4897Z" fill="url(#paint0_linear_555_1731)"/>
<path d="M19.6812 37.8985C19.5215 37.8976 19.365 37.8534 19.2284 37.7706C19.0918 37.6878 18.9802 37.5695 18.9055 37.4284C18.8307 37.2872 18.7956 37.1285 18.8039 36.9689C18.8122 36.8094 18.8636 36.6552 18.9526 36.5225C19.0377 36.3956 19.1543 36.293 19.291 36.2246C19.4277 36.1562 19.5797 36.1244 19.7323 36.1324C19.8849 36.1403 20.0329 36.1877 20.1617 36.2699C20.2905 36.3521 20.3958 36.4663 20.4673 36.6014C20.5389 36.7364 20.5741 36.8877 20.5697 37.0404C20.5653 37.1932 20.5213 37.3422 20.4421 37.4729C20.3629 37.6036 20.2512 37.7115 20.1178 37.7861C19.9844 37.8607 19.834 37.8994 19.6812 37.8985ZM19.3804 36.8129C19.3404 36.8726 19.319 36.9427 19.3188 37.0145C19.3187 37.0863 19.3398 37.1566 19.3796 37.2163C19.4194 37.2761 19.4759 37.3228 19.5422 37.3505C19.6085 37.3781 19.6814 37.3855 19.7519 37.3717C19.8224 37.3579 19.8872 37.3235 19.9381 37.2729C19.989 37.2223 20.0238 37.1577 20.0381 37.0874C20.0524 37.017 20.0454 36.944 20.0182 36.8775C19.991 36.8111 19.9447 36.7542 19.8852 36.714C19.8051 36.6604 19.707 36.6406 19.6123 36.6592C19.5177 36.6777 19.4343 36.733 19.3804 36.8129Z" fill="#2E2E3F"/>
<path d="M13.2065 37.8985C13.0466 37.8979 12.8899 37.8539 12.7531 37.7712C12.6163 37.6885 12.5046 37.5702 12.4297 37.4289C12.3549 37.2876 12.3199 37.1287 12.3284 36.9691C12.3369 36.8094 12.3886 36.6551 12.4779 36.5225C12.5631 36.3956 12.6796 36.293 12.8163 36.2246C12.953 36.1562 13.105 36.1244 13.2576 36.1324C13.4103 36.1403 13.5582 36.1877 13.687 36.2699C13.8158 36.3521 13.9212 36.4663 13.9927 36.6014C14.0642 36.7364 14.0994 36.8877 14.095 37.0404C14.0906 37.1932 14.0466 37.3422 13.9674 37.4729C13.8882 37.6036 13.7765 37.7115 13.6431 37.7861C13.5097 37.8607 13.3593 37.8994 13.2065 37.8985ZM12.9067 36.8129C12.8666 36.8726 12.8451 36.9427 12.8449 37.0146C12.8447 37.0865 12.8658 37.1568 12.9055 37.2166C12.9453 37.2765 13.0019 37.3232 13.0682 37.3509C13.1345 37.3786 13.2076 37.386 13.2781 37.3721C13.3486 37.3583 13.4134 37.3239 13.4644 37.2732C13.5153 37.2225 13.5501 37.1578 13.5642 37.0874C13.5784 37.0169 13.5714 36.9438 13.544 36.8774C13.5166 36.8109 13.4702 36.7541 13.4105 36.714C13.3306 36.6604 13.2326 36.6407 13.1382 36.6593C13.0437 36.6778 12.9605 36.7331 12.9067 36.8129Z" fill="#2E2E3F"/>
<path d="M26.9045 19.5528C26.8732 19.6556 26.8272 19.7534 26.7681 19.8432C26.6515 19.9819 26.5039 20.0914 26.3372 20.1627C25.6773 20.501 24.6719 20.8653 24.1119 21.3545C24.0439 21.4085 23.9876 21.4758 23.9464 21.5522C23.8663 21.726 23.9464 21.9269 24.0203 22.1018C24.0536 22.2008 24.1125 22.2891 24.191 22.3578C24.3336 22.4619 24.5314 22.4172 24.701 22.3672C25.3517 22.1732 25.9917 21.945 26.6183 21.6834C26.9688 21.542 27.3093 21.3768 27.6372 21.189C27.7687 21.1213 27.883 21.0245 27.9713 20.9059C28.0333 20.799 28.0747 20.6814 28.0931 20.5593C28.2116 19.9285 28.2912 19.291 28.3315 18.6504L28.4564 17.1474C28.4814 16.8581 29.3619 15.8453 29.0965 15.6465C28.5761 15.2573 27.8194 16.3168 27.7007 16.5344C27.3656 17.1474 27.0346 19.1823 26.9045 19.5528Z" fill="#827397"/>
<path d="M26.9045 19.5528C26.8732 19.6556 26.8272 19.7534 26.7681 19.8432C26.6515 19.9819 26.5039 20.0914 26.3372 20.1627C25.6773 20.501 24.6719 20.8653 24.1119 21.3545C24.0439 21.4085 23.9876 21.4758 23.9464 21.5522C23.8663 21.726 23.9464 21.9269 24.0203 22.1018C24.0536 22.2008 24.1125 22.2891 24.191 22.3578C24.3336 22.4619 24.5314 22.4172 24.701 22.3672C25.3517 22.1732 25.9917 21.945 26.6183 21.6834C26.9688 21.542 27.3093 21.3768 27.6372 21.189C27.7687 21.1213 27.883 21.0245 27.9713 20.9059C28.0333 20.799 28.0747 20.6814 28.0931 20.5593C28.2116 19.9285 28.2912 19.291 28.3315 18.6504L28.4564 17.1474C28.4814 16.8581 29.3619 15.8453 29.0965 15.6465C28.5761 15.2573 27.8194 16.3168 27.7007 16.5344C27.3656 17.1474 27.0346 19.1823 26.9045 19.5528Z" fill="url(#paint1_linear_555_1731)"/>
<path d="M34.9883 35.8314C35.0724 35.9658 35.1161 36.1215 35.1142 36.28C35.1044 36.3396 35.0821 36.3963 35.0487 36.4466C35.0153 36.4969 34.9717 36.5395 34.9207 36.5717C34.8696 36.6038 34.8123 36.6248 34.7526 36.6332C34.6928 36.6416 34.632 36.6372 34.574 36.6204C34.4797 36.5814 34.3941 36.5241 34.3222 36.4518C33.451 35.6774 32.7609 34.7229 32.1364 33.7341C31.9678 33.4656 31.8044 33.1939 31.6607 32.9119C31.1754 31.956 30.9206 30.8999 30.9165 29.8279C30.91 29.7664 30.9251 29.7046 30.9592 29.653C30.9951 29.6167 31.0412 29.5924 31.0914 29.5833C31.5223 29.4626 32.1936 29.4511 32.5746 29.7321C33.0024 30.0444 32.8993 31.028 32.8806 31.4755C32.8588 31.6665 32.878 31.8598 32.9368 32.0428C33.0148 32.1993 33.1206 32.3404 33.2491 32.4591C34.1223 33.3969 34.4252 34.6969 34.9883 35.8314Z" fill="#F3BD8F"/>
<path d="M29.5856 33.6967C29.6758 34.9126 29.5153 36.1341 29.1141 37.2855C29.0896 37.3897 29.0337 37.4838 28.9538 37.555C28.8997 37.5883 28.8378 37.6066 28.7743 37.6081C28.7109 37.6096 28.6482 37.5941 28.5926 37.5634C28.3106 37.426 28.2117 37.1262 28.1638 36.8348C27.9544 35.5487 27.8549 34.2471 27.8661 32.9442C27.8661 32.329 27.8838 31.743 27.8359 31.131C27.7881 30.5013 27.7173 29.8727 27.7173 29.2398C27.7056 29.1771 27.7174 29.1122 27.7506 29.0577C27.7768 29.0336 27.8081 29.0156 27.8421 29.0049C27.8761 28.9943 27.912 28.9914 27.9473 28.9963C28.399 28.9963 29.2234 28.7361 29.5752 29.0233C30.0383 29.4012 29.2973 31.0623 29.2234 31.5432C29.0995 32.3457 29.4482 32.584 29.5512 33.3761C29.5648 33.4885 29.5762 33.5926 29.5856 33.6967Z" fill="#F5BD8D"/>
<path d="M27.3116 29.2471C27.301 29.369 27.3314 29.491 27.398 29.5937C27.4673 29.6653 27.5559 29.7152 27.653 29.7373C28.1485 29.8914 28.671 29.9237 29.1883 29.9559C29.3465 29.9653 29.5213 29.9695 29.6431 29.8695C29.7186 29.7963 29.7747 29.7054 29.8065 29.6052L30.3811 28.199C30.3381 28.6953 30.3252 29.1937 30.3425 29.6915C30.3342 29.7983 30.3657 29.9044 30.431 29.9892C30.5147 30.0537 30.6192 30.0848 30.7245 30.0767C31.5219 30.1067 32.3202 30.0487 33.1049 29.9039C33.4088 28.7829 33.4172 27.5974 33.2662 26.4462C33.2069 25.9976 33.1184 25.5407 32.8801 25.1556C32.8218 25.0503 32.739 24.9607 32.6386 24.8943C32.4884 24.8223 32.3218 24.7911 32.1557 24.8038C30.9504 24.7913 29.7264 24.7632 28.5284 24.9339C28.1547 24.987 27.959 25.1036 27.8289 25.4689C27.6415 26.0446 27.5108 26.6372 27.4386 27.2383C27.343 27.9035 27.3006 28.5752 27.3116 29.2471Z" fill="#2E2E3F"/>
<path d="M33.1046 29.9039L32.9172 29.9361C32.1929 30.0573 31.4581 30.1043 30.7242 30.0767C30.6189 30.0848 30.5143 30.0537 30.4307 29.9892C30.3654 29.9044 30.3339 29.7983 30.3422 29.6915C30.3261 29.2285 30.3365 28.7649 30.3734 28.3031C30.3734 28.2916 30.3734 28.2791 30.3734 28.2677C30.3734 28.2562 30.3734 28.2219 30.3787 28.199C30.1871 28.6663 29.9967 29.1357 29.8052 29.6031C29.7733 29.7033 29.7172 29.7942 29.6417 29.8674C29.52 29.9715 29.3451 29.9632 29.1869 29.9538H29.1151C28.6217 29.9226 28.1252 29.8862 27.6579 29.7394C27.5606 29.7177 27.4719 29.6677 27.4029 29.5958C27.3363 29.4931 27.3059 29.3711 27.3165 29.2492C27.3052 28.5755 27.3477 27.9021 27.4435 27.2352C27.5155 26.6369 27.6455 26.0471 27.8317 25.4741C27.9618 25.1088 28.1575 24.9922 28.5312 24.9391C29.7292 24.7684 30.9532 24.7965 32.1585 24.809C32.3088 24.8003 32.4592 24.8237 32.5998 24.8777C32.6142 24.8839 32.6281 24.8912 32.6414 24.8995C32.7418 24.9659 32.8246 25.0555 32.8829 25.1608C33.1212 25.5459 33.2097 26.0028 33.269 26.4514C33.4189 27.5974 33.4085 28.7829 33.1046 29.9039Z" fill="url(#paint2_linear_555_1731)"/>
<path d="M33.1055 29.9039L32.9181 29.9361C32.8735 29.9131 32.83 29.8877 32.788 29.8602C32.6849 29.8033 32.5982 29.7208 32.5361 29.6208C32.4907 29.5194 32.4686 29.4091 32.4716 29.2981C32.4373 28.3697 32.6142 27.4246 32.4258 26.5181C32.3581 26.1912 32.2228 25.8936 32.126 25.5813C32.0376 25.293 32.2353 25.1213 32.4674 24.9568C32.5084 24.9263 32.5519 24.8995 32.5975 24.8767C32.6119 24.8829 32.6259 24.8902 32.6392 24.8985C32.7395 24.9649 32.8224 25.0545 32.8806 25.1598C33.119 25.5449 33.2075 26.0018 33.2668 26.4504C33.4198 27.5974 33.4094 28.7829 33.1055 29.9039Z" fill="url(#paint3_linear_555_1731)"/>
<path d="M30.3805 28.2011C30.189 28.6684 29.9985 29.1378 29.807 29.6052C29.7752 29.7054 29.7191 29.7963 29.6436 29.8695C29.5218 29.9736 29.347 29.9653 29.1888 29.9559H29.1169C29.09 29.9415 29.0645 29.9244 29.041 29.9049C28.9528 29.8303 28.89 29.7301 28.8612 29.6182C28.8325 29.5063 28.8393 29.3883 28.8807 29.2804C28.9316 29.1767 28.996 29.0801 29.0722 28.9931C29.526 28.4113 29.7737 27.7004 30.0152 27.0031C30.145 27.1534 30.244 27.3277 30.3066 27.5162C30.3737 27.7379 30.3987 27.9702 30.3805 28.2011Z" fill="url(#paint4_linear_555_1731)"/>
<path d="M30.1457 14.7535C30.1408 14.9413 30.0667 15.1208 29.9376 15.2573C29.7461 15.43 29.4557 15.4196 29.2152 15.5164C29.1849 15.5265 29.1574 15.5436 29.1351 15.5664C29.1173 15.5874 29.1048 15.6124 29.0987 15.6393C29.0678 15.7646 29.0777 15.8966 29.1268 16.016C29.2002 16.1948 29.3118 16.3554 29.4539 16.4865C29.5959 16.6175 29.7649 16.716 29.949 16.7748C30.3191 16.8907 30.7113 16.9182 31.0939 16.8549C31.2209 16.8475 31.3446 16.812 31.4561 16.7509C31.5744 16.6608 31.6685 16.5428 31.7299 16.4074C31.8043 16.2838 31.8541 16.147 31.8766 16.0046C31.8869 15.9329 31.8783 15.8597 31.8516 15.7924C31.825 15.725 31.7812 15.6658 31.7247 15.6205C31.6716 15.5883 31.615 15.5621 31.5561 15.5425C31.4634 15.5069 31.3745 15.4623 31.2906 15.4092C31.2046 15.3651 31.1376 15.2911 31.1023 15.2011C31.0877 15.125 31.0909 15.0467 31.1116 14.9721C31.159 14.7189 31.159 14.4592 31.1116 14.206C31.1003 14.131 31.0771 14.0583 31.0429 13.9906C31.0108 13.933 30.966 13.8835 30.9119 13.8458C30.8578 13.8082 30.7958 13.7834 30.7306 13.7734C30.6655 13.7633 30.5989 13.7683 30.5359 13.7879C30.473 13.8075 30.4154 13.8412 30.3674 13.8865C30.1218 14.1103 30.1749 14.4642 30.1457 14.7535Z" fill="#F3BD8F"/>
<path d="M28.9935 13.4077C28.9794 13.5803 28.9938 13.754 29.0362 13.9219C29.159 14.3205 29.5805 14.5776 29.9979 14.5943C30.1349 14.605 30.2722 14.5787 30.3955 14.5183C30.4661 14.478 30.5312 14.4286 30.5891 14.3715C30.8805 14.1051 31.1491 13.7866 31.2375 13.4015C31.2678 13.2554 31.2804 13.1061 31.275 12.957C31.2787 12.7374 31.2406 12.5191 31.1626 12.3138C31.0848 12.1324 30.9613 11.9742 30.8043 11.8545C30.6473 11.7349 30.462 11.6579 30.2664 11.631C29.8636 11.58 29.4858 11.784 29.1913 12.0369C29.0435 12.1639 29.0653 12.4137 29.0466 12.6042C29.0206 12.8696 29.0029 13.1392 28.9935 13.4077Z" fill="#F3BD8F"/>
<path d="M29.0434 11.1876C28.9309 11.3802 28.855 11.6039 28.6811 11.7424C28.6093 11.7986 28.525 11.8392 28.4584 11.9006C28.3727 11.991 28.3228 12.1093 28.3178 12.2338C28.3128 12.3582 28.3532 12.4802 28.4313 12.5771C28.5135 12.6708 28.62 12.7399 28.7391 12.7767C28.8582 12.8134 28.9851 12.8164 29.1058 12.7853C29.3476 12.7178 29.5543 12.5602 29.6835 12.345C29.7699 12.2097 29.8469 12.0453 29.9957 11.9953C30.0617 11.9803 30.1303 11.9811 30.1959 11.9975C30.2616 12.014 30.3224 12.0457 30.3735 12.09C30.4828 12.1691 30.5744 12.2732 30.6858 12.344C30.7523 12.3781 30.816 12.4174 30.8763 12.4616C31.0553 12.6167 31.0282 12.8967 30.9866 13.1298C31.0615 13.1527 31.0761 13.0184 31.1417 12.9758C31.2072 12.9331 31.2832 12.9955 31.2947 13.0653C31.2985 13.1358 31.2783 13.2055 31.2374 13.263C31.0667 13.5618 30.8648 13.8553 30.8076 14.1935C30.796 14.2386 30.7982 14.2861 30.8138 14.3299C30.8482 14.382 30.901 14.4191 30.9616 14.434C31.0657 14.4791 31.1781 14.5021 31.2916 14.5016C31.3483 14.5007 31.404 14.4864 31.4541 14.4598C31.5042 14.4332 31.5473 14.3951 31.5799 14.3486C31.612 14.2883 31.6315 14.2221 31.6371 14.154C31.6513 13.9283 31.6819 13.7039 31.7287 13.4826C31.8546 13.0476 32.2283 12.6687 32.1731 12.2201C32.1327 12.0174 32.0477 11.8261 31.9244 11.6601C31.8523 11.5341 31.7642 11.4179 31.6621 11.3146C31.5617 11.2287 31.4513 11.1553 31.3332 11.096C31.0895 10.9507 30.8226 10.8482 30.5442 10.7931C30.2143 10.7432 29.9197 10.8504 29.5971 10.866C29.3431 10.8774 29.1849 10.9389 29.0434 11.1876Z" fill="#2E2E3F"/>
<path d="M32.8186 25.2503C32.6321 25.38 32.4186 25.4658 32.1941 25.5012C30.9973 25.7666 29.7565 25.7645 28.5606 25.4949C28.3108 25.4377 28.0329 25.3461 27.9246 25.1129C27.8761 24.9849 27.858 24.8474 27.8716 24.7112C27.9 23.4247 27.9285 22.1379 27.9569 20.8507C27.9892 19.3883 28.0214 17.9208 28.2359 16.474C28.299 16.175 28.4177 15.8904 28.5856 15.6351C28.725 15.4446 29.3568 15.5466 29.8845 15.2052C30.0292 15.1116 29.7149 15.5955 30.1874 15.7954C30.6777 16.0035 31.2282 15.0283 31.5259 15.4196C31.6935 15.6382 32.2264 15.4758 32.395 15.6934C32.5303 15.8682 32.6136 16.2377 32.6667 16.6832C32.7791 17.6293 32.751 18.9137 32.7708 19.3811C32.8592 21.0162 32.7218 23.102 33.262 24.452C33.3859 24.7455 33.0622 25.0578 32.8186 25.2503Z" fill="#827397"/>
<path d="M32.8186 25.2503C32.632 25.38 32.4185 25.4658 32.1941 25.5011C31.8952 25.5674 31.5929 25.617 31.2886 25.65L31.2032 25.6385C31.426 24.91 31.4364 24.1439 31.4301 23.3862C31.4301 22.9698 31.4176 22.5483 31.4093 22.1299C31.4041 21.8655 31.3947 21.5876 31.2584 21.3618C31.122 21.1359 30.8119 20.9923 30.585 21.1286C30.9753 20.8934 31.2948 19.8983 31.4551 19.4903C31.6856 18.8993 31.847 18.2835 31.936 17.6553C31.9963 17.2244 31.9734 16.4667 32.6333 16.6707L32.6697 16.6832C32.7822 17.6293 32.7541 18.9137 32.7738 19.3811C32.8623 21.0162 32.7249 23.102 33.2651 24.452C33.3858 24.7455 33.0621 25.0578 32.8186 25.2503Z" fill="url(#paint5_linear_555_1731)"/>
<path d="M29.0893 36.9545C29.127 36.9577 29.162 36.9752 29.1872 37.0034C29.203 37.0356 29.2092 37.0718 29.2049 37.1075C29.2049 37.3156 29.337 37.504 29.3298 37.7101C29.3246 37.8944 29.2101 38.0671 29.2257 38.2514C29.2257 38.2878 29.235 38.3305 29.209 38.3554C29.1921 38.3694 29.1715 38.3781 29.1497 38.3804C28.6272 38.4803 28.1023 38.5674 27.5749 38.6417C27.4776 38.6676 27.3741 38.6564 27.2845 38.6104C27.244 38.5795 27.2121 38.5386 27.1919 38.4918C27.0493 38.2014 27.1763 37.8454 27.3699 37.5863C27.8435 36.9482 28.3004 36.7952 29.0893 36.9545Z" fill="#2E2E3F"/>
<path d="M35.6668 36.8733C35.63 37.0392 35.5356 37.1868 35.4003 37.2896C35.0652 37.5992 34.6821 37.8523 34.2658 38.039C34.182 38.0861 34.0857 38.1064 33.99 38.0973C33.9174 38.0763 33.8537 38.032 33.8088 37.9713C33.7638 37.9105 33.7401 37.8367 33.7413 37.7611C33.7464 37.61 33.7855 37.462 33.8557 37.3281C34.0566 36.8639 34.1961 36.1832 34.7321 35.999C35.2005 35.8418 35.7168 36.4112 35.6668 36.8733Z" fill="#2E2E3F"/>
<path d="M29.0893 36.9545C29.127 36.9577 29.162 36.9752 29.1872 37.0034C29.203 37.0356 29.2092 37.0718 29.2049 37.1075C29.2049 37.3156 29.337 37.504 29.3298 37.7101C29.3246 37.8944 29.2101 38.0671 29.2257 38.2514C29.2257 38.2878 29.235 38.3305 29.209 38.3554C29.1921 38.3694 29.1715 38.3781 29.1497 38.3804C28.6272 38.4803 28.1023 38.5674 27.5749 38.6417C27.4776 38.6676 27.3741 38.6564 27.2845 38.6104C27.244 38.5795 27.2121 38.5386 27.1919 38.4918C27.0493 38.2014 27.1763 37.8454 27.3699 37.5863C27.8435 36.9482 28.3004 36.7952 29.0893 36.9545Z" fill="url(#paint6_linear_555_1731)"/>
<path d="M35.4006 37.2917C35.0655 37.6013 34.6823 37.8544 34.2661 38.0411C34.1822 38.0882 34.086 38.1085 33.9902 38.0994" fill="url(#paint7_linear_555_1731)"/>
<path d="M31.7981 19.4373C31.8162 19.5677 31.8022 19.7006 31.7575 19.8245C31.6826 19.9962 31.5088 20.1003 31.3412 20.1929L27.6494 22.2819C27.4766 22.3797 27.2913 22.49 27.2174 22.6753C27.0551 23.0916 27.564 23.4653 28.0064 23.4986C28.4696 23.5329 28.9254 23.3945 29.3647 23.2415C30.7522 22.763 32.0923 22.1568 33.3677 21.4305C33.5253 21.3719 33.6574 21.26 33.7411 21.1141C33.8248 20.9683 33.8547 20.7978 33.8257 20.6321C33.8293 19.6131 33.7514 18.5954 33.5925 17.5887C33.5061 17.0381 33.3844 16.4626 33.0128 16.0452C32.4632 15.4207 31.4599 15.4019 31.3735 16.3168C31.2777 17.3556 31.7284 18.4152 31.7981 19.4373Z" fill="#827397"/>
<path d="M31.7981 19.4373C31.8162 19.5677 31.8022 19.7006 31.7575 19.8245C31.6826 19.9962 31.5088 20.1003 31.3412 20.1929L27.6494 22.2819C27.4766 22.3797 27.2913 22.49 27.2174 22.6753C27.0551 23.0916 27.564 23.4653 28.0064 23.4986C28.4696 23.5329 28.9254 23.3945 29.3647 23.2415C30.7522 22.763 32.0923 22.1568 33.3677 21.4305C33.5253 21.3719 33.6574 21.26 33.7411 21.1141C33.8248 20.9683 33.8547 20.7978 33.8257 20.6321C33.8293 19.6131 33.7514 18.5954 33.5925 17.5887C33.5061 17.0381 33.3844 16.4626 33.0128 16.0452C32.4632 15.4207 31.4599 15.4019 31.3735 16.3168C31.2777 17.3556 31.7284 18.4152 31.7981 19.4373Z" fill="url(#paint8_linear_555_1731)"/>
<path d="M26.7424 22.6285C26.476 22.6277 26.2193 22.7281 26.0242 22.9095C25.9292 23.0021 25.8651 23.1218 25.8409 23.2523C25.8166 23.3827 25.8334 23.5175 25.8889 23.6381C25.9284 23.7188 25.9973 23.7814 26.0815 23.8129C26.1558 23.8334 26.2345 23.8309 26.3073 23.8056C26.5155 23.7421 26.6872 23.5808 26.8912 23.4934C26.9406 23.4691 26.997 23.4629 27.0505 23.4757C27.0849 23.4932 27.1176 23.5137 27.1483 23.5371C27.1912 23.5605 27.2389 23.5736 27.2877 23.5752C27.3365 23.5768 27.385 23.567 27.4293 23.5465C27.5175 23.5037 27.5918 23.437 27.6438 23.3539C27.7191 23.2495 27.7559 23.1223 27.7478 22.9938C27.727 22.796 27.6125 22.7325 27.4418 22.7128C27.2076 22.6878 26.9828 22.6201 26.7424 22.6285Z" fill="#F3BD8F"/>
<path d="M23.3128 21.9863C23.2145 22.107 23.1469 22.2499 23.1161 22.4026C23.0998 22.4749 23.1023 22.5501 23.1234 22.6212C23.1535 22.6903 23.2036 22.7488 23.2672 22.7893C23.3308 22.8297 23.4051 22.8502 23.4804 22.8481C23.6314 22.8417 23.7781 22.7962 23.9061 22.7159C24.144 22.5788 24.3712 22.4239 24.5858 22.2527C24.6303 22.2224 24.6699 22.1856 24.7034 22.1434C24.7433 22.0784 24.7597 22.0016 24.7501 21.9259C24.7404 21.8502 24.7052 21.7801 24.6503 21.7271C24.2985 21.3742 23.5772 21.6584 23.3128 21.9863Z" fill="#F3BD8F"/>
<path d="M19.9755 34.0089H11.2034L7.79883 24.7351H22.6161L19.9755 34.0089ZM11.5666 33.4885H19.5811L21.9261 25.2534H8.54407L11.5666 33.4885Z" fill="#827397"/>
<path d="M23.4375 34.0089H14.6643L11.2607 24.7351H26.332L23.4375 34.0089ZM15.0296 33.4885H23.044L25.389 25.2534H12.0112L15.0296 33.4885Z" fill="#827397"/>
<path d="M23.49 34.0141H19.335L21.196 27.4517L22.7322 22.6857L26.9226 22.7419L23.49 34.0141ZM20.023 33.4937H23.1049L26.2274 23.253L23.1132 23.2113L21.6914 27.6026L20.023 33.4937Z" fill="#827397"/>
<path d="M23.4816 36.6058H13.3105V36.0854H22.9612V33.7508H23.4816V36.6058Z" fill="#827397"/>
<path d="M20.0768 36.6058H11.7959V36.0854H19.5564V33.7508H20.0768V36.6058Z" fill="#827397"/>
<path d="M21.8036 37.8985C21.6288 37.8985 21.458 37.8467 21.3127 37.7496C21.1673 37.6525 21.0541 37.5145 20.9872 37.353C20.9203 37.1915 20.9028 37.0139 20.9369 36.8425C20.971 36.671 21.0552 36.5136 21.1787 36.39C21.3023 36.2664 21.4598 36.1823 21.6312 36.1482C21.8026 36.1141 21.9803 36.1316 22.1418 36.1984C22.3032 36.2653 22.4412 36.3786 22.5383 36.5239C22.6354 36.6692 22.6873 36.8401 22.6873 37.0148C22.6873 37.2492 22.5942 37.474 22.4284 37.6397C22.2627 37.8054 22.038 37.8985 21.8036 37.8985ZM21.8036 36.6495C21.7317 36.6495 21.6615 36.6708 21.6018 36.7107C21.542 36.7506 21.4955 36.8074 21.468 36.8738C21.4405 36.9401 21.4333 37.0132 21.4473 37.0836C21.4613 37.1541 21.4959 37.2188 21.5467 37.2696C21.5975 37.3204 21.6623 37.355 21.7327 37.369C21.8032 37.3831 21.8762 37.3759 21.9426 37.3484C22.009 37.3209 22.0657 37.2743 22.1056 37.2146C22.1455 37.1548 22.1668 37.0846 22.1668 37.0128C22.1663 36.9168 22.1278 36.8249 22.0597 36.7573C21.9917 36.6896 21.8996 36.6516 21.8036 36.6516V36.6495Z" fill="#2E2E3F"/>
<path d="M15.4907 37.8985C15.3308 37.8979 15.1741 37.8539 15.0373 37.7712C14.9005 37.6885 14.7887 37.5702 14.7139 37.4289C14.6391 37.2876 14.6041 37.1287 14.6126 36.9691C14.6211 36.8094 14.6727 36.6551 14.7621 36.5225C14.8472 36.3956 14.9638 36.293 15.1005 36.2246C15.2372 36.1562 15.3892 36.1244 15.5418 36.1324C15.6944 36.1403 15.8424 36.1877 15.9712 36.2699C16.1 36.3521 16.2053 36.4663 16.2768 36.6014C16.3484 36.7364 16.3836 36.8877 16.3792 37.0404C16.3748 37.1932 16.3308 37.3422 16.2516 37.4729C16.1724 37.6036 16.0607 37.7115 15.9273 37.7861C15.7939 37.8607 15.6435 37.8994 15.4907 37.8985ZM15.1899 36.8129C15.1498 36.8726 15.1282 36.9427 15.128 37.0146C15.1278 37.0865 15.1489 37.1568 15.1887 37.2166C15.2284 37.2765 15.285 37.3232 15.3513 37.3509C15.4177 37.3786 15.4907 37.386 15.5612 37.3721C15.6317 37.3583 15.6966 37.3239 15.7475 37.2732C15.7984 37.2225 15.8332 37.1578 15.8474 37.0874C15.8615 37.0169 15.8545 36.9438 15.8271 36.8774C15.7998 36.8109 15.7533 36.7541 15.6936 36.714C15.6136 36.6607 15.5158 36.6411 15.4214 36.6597C15.327 36.6782 15.2438 36.7333 15.1899 36.8129Z" fill="#2E2E3F"/>
<path d="M25.4142 26.594H8.96387V26.9864H25.4142V26.594Z" fill="#827397"/>
<path d="M24.9841 27.9128H9.31543V28.3052H24.9841V27.9128Z" fill="#827397"/>
<path d="M24.5542 29.2315H9.82324V29.6239H24.5542V29.2315Z" fill="#827397"/>
<path d="M24.1252 30.5502H10.332V30.9426H24.1252V30.5502Z" fill="#827397"/>
<path d="M23.6952 31.869H10.8398V32.2614H23.6952V31.869Z" fill="#827397"/>
<path d="M10.0073 24.8874L9.63867 25.0219L12.803 33.697L13.1717 33.5626L10.0073 24.8874Z" fill="#827397"/>
<path d="M14.5834 24.8985L14.207 25.0093L16.7273 33.5669L17.1037 33.4561L14.5834 24.8985Z" fill="#827397"/>
<path d="M18.4312 24.8305L18.0391 24.8436L18.3318 33.5765L18.724 33.5634L18.4312 24.8305Z" fill="#827397"/>
<path d="M22.9396 25.0709L20.3037 33.6284L20.6787 33.744L23.3146 25.1864L22.9396 25.0709Z" fill="#827397"/>
<defs>
<linearGradient id="paint0_linear_555_1731" x1="24.6054" y1="33.9839" x2="24.313" y2="44.2403" gradientUnits="userSpaceOnUse">
<stop offset="0.01"/>
<stop offset="0.13" stop-opacity="0.69"/>
<stop offset="1" stop-opacity="0"/>
</linearGradient>
<linearGradient id="paint1_linear_555_1731" x1="27.9745" y1="21.2827" x2="27.096" y2="19.788" gradientUnits="userSpaceOnUse">
<stop offset="0.01"/>
<stop offset="0.13" stop-opacity="0.69"/>
<stop offset="1" stop-opacity="0"/>
</linearGradient>
<linearGradient id="paint2_linear_555_1731" x1="31.7765" y1="24.7986" x2="29.2369" y2="30.3858" gradientUnits="userSpaceOnUse">
<stop offset="0.01"/>
<stop offset="0.13" stop-opacity="0.69"/>
<stop offset="1" stop-opacity="0"/>
</linearGradient>
<linearGradient id="paint3_linear_555_1731" x1="32.1042" y1="27.4038" x2="33.3636" y2="27.4038" gradientUnits="userSpaceOnUse">
<stop offset="0.01"/>
<stop offset="0.13" stop-opacity="0.69"/>
<stop offset="1" stop-opacity="0"/>
</linearGradient>
<linearGradient id="paint4_linear_555_1731" x1="29.0774" y1="28.047" x2="31.6004" y2="30.2911" gradientUnits="userSpaceOnUse">
<stop offset="0.01"/>
<stop offset="0.13" stop-opacity="0.69"/>
<stop offset="1" stop-opacity="0"/>
</linearGradient>
<linearGradient id="paint5_linear_555_1731" x1="37.2983" y1="21.4492" x2="25.4859" y2="20.7841" gradientUnits="userSpaceOnUse">
<stop offset="0.01"/>
<stop offset="0.13" stop-opacity="0.69"/>
<stop offset="1" stop-opacity="0"/>
</linearGradient>
<linearGradient id="paint6_linear_555_1731" x1="27.1305" y1="37.7726" x2="29.3308" y2="37.7726" gradientUnits="userSpaceOnUse">
<stop offset="0.01"/>
<stop offset="0.13" stop-opacity="0.69"/>
<stop offset="1" stop-opacity="0"/>
</linearGradient>
<linearGradient id="paint7_linear_555_1731" x1="33.9902" y1="37.6976" x2="35.4006" y2="37.6976" gradientUnits="userSpaceOnUse">
<stop offset="0.01"/>
<stop offset="0.13" stop-opacity="0.69"/>
<stop offset="1" stop-opacity="0"/>
</linearGradient>
<linearGradient id="paint8_linear_555_1731" x1="32.1239" y1="23.3539" x2="30.2775" y2="19.7787" gradientUnits="userSpaceOnUse">
<stop offset="0.01"/>
<stop offset="0.13" stop-opacity="0.69"/>
<stop offset="1" stop-opacity="0"/>
</linearGradient>
</defs>
</svg>
