<svg width="250" height="250" viewBox="0 0 250 250" fill="none" xmlns="http://www.w3.org/2000/svg">
<path opacity="0.18" d="M220.778 89.7205C222.371 96.0286 222.564 102.609 221.344 109C220.124 115.39 217.519 121.436 213.714 126.714C208.033 134.447 199.933 140.229 194.889 148.373C183.987 165.954 189.839 189.962 179.84 208.073C171.482 223.224 154.165 230.667 138.087 237.055C125.461 242.068 112.709 247.112 99.326 249.132C85.9428 251.152 71.5496 249.87 59.9529 242.907C50.389 237.182 43.3628 228.104 36.8732 219.039C20.9207 196.735 6.50225 172.45 1.6035 145.469C-3.29525 118.488 2.81556 88.2244 22.903 69.5574C32.6815 60.4669 45.4902 54.1983 52.3901 42.7658C59.631 30.7714 59.732 14.0361 70.9877 5.67794C75.1416 2.59098 80.3054 1.15796 85.4314 0.47618C97.7724 -1.11232 110.298 1.29712 121.168 7.35084C132.197 13.5311 141.249 23.3538 153.263 27.3057C168.811 32.4254 188.766 28.4925 199.1 43.6432C207.401 55.827 217.092 75.5293 220.778 89.7205Z" fill="#827397"/>
<path d="M154.62 81.0972C154.44 81.478 154.194 81.8241 153.894 82.1199C151.488 84.6614 148.374 86.4209 144.955 87.1701C143.748 87.4482 142.514 87.588 141.275 87.5868C140.549 82.9027 139.81 78.2123 139.242 73.5092C138.794 69.8351 138.459 66.1674 138.302 62.4807C138.194 60.1702 133.188 52.1151 134.211 49.9561C135.341 47.5824 143.478 55.707 144.394 57.2537C149.475 65.776 151.3 72.3666 154.784 79.6958C154.916 80.1663 154.857 80.6699 154.62 81.0972Z" fill="#827397"/>
<path d="M145.776 86.3116C145.532 86.6287 145.257 86.9206 144.955 87.1828C143.748 87.4608 142.514 87.6006 141.275 87.5994C140.549 82.9153 139.81 78.2249 139.242 73.5218C139.457 69.8267 139.846 66.1464 140.41 62.4807C140.17 64.0147 142.058 67.3605 142.569 68.863L144.785 75.4094C145.94 78.8246 148.408 82.9784 145.776 86.3116Z" fill="url(#paint0_linear_555_1715)"/>
<path d="M143.054 94.3226C143.559 97.4032 144.203 100.522 145.725 103.249C146.507 104.65 147.675 106.027 149.26 106.273C150.141 106.356 151.029 106.224 151.848 105.888C153.545 105.304 155.145 104.47 156.595 103.413C157.981 102.35 159.287 101.188 160.503 99.9347C162.312 98.2275 163.985 96.3829 165.509 94.4173C166.21 93.4703 166.847 92.4729 167.611 91.5702C170.768 87.8141 175.818 86.1285 179.397 82.7764C180.363 81.88 182.32 77.7767 182.175 76.4636C180.862 75.7061 178.166 78.7552 176.714 79.197C175.262 79.6389 173.905 80.3586 172.447 80.7689C170.701 81.2558 168.858 81.2798 167.1 80.8384C166.507 80.6869 165.799 71.325 165.206 71.5396C164.907 71.6648 164.64 71.8545 164.423 72.0951C163.199 73.3577 162.529 84.1337 161.513 85.5351C160.118 87.429 158.186 88.8683 156.273 90.2445C156.103 90.3644 155.888 90.4907 155.699 90.396C155.637 90.3495 155.584 90.2909 155.545 90.2236C155.506 90.1563 155.481 90.0818 155.472 90.0046C154.973 88.1549 154.411 86.3179 153.799 84.5061C153.37 83.2436 152.764 81.8547 151.495 81.476C150.365 81.1414 149.19 81.779 148.18 82.3913C146.88 83.1867 145.567 83.9695 144.273 84.7713C143.553 85.2132 142.682 85.6424 142.341 86.4568C141.924 87.4353 142.278 88.7862 142.398 89.79C142.587 91.3113 142.808 92.8201 143.054 94.3226Z" fill="#F5BCBA"/>
<path d="M154.575 180.183C154.575 182.115 154.481 184.015 154.31 185.903C152.838 202.056 145.216 217.026 133.021 227.721C120.827 238.415 104.99 244.017 88.7825 243.369C72.5754 242.72 57.2365 235.872 45.9347 224.237C34.6329 212.603 28.2319 197.071 28.0539 180.852C28.0539 180.638 28.0539 180.429 28.0539 180.221C27.9704 171.86 29.5451 163.565 32.687 155.816C35.8288 148.068 40.4755 141.018 46.3584 135.077C52.2413 129.135 59.2437 124.418 66.9607 121.199C74.6777 117.979 82.9563 116.322 91.3179 116.322C99.6794 116.322 107.958 117.979 115.675 121.199C123.392 124.418 130.394 129.135 136.277 135.077C142.16 141.018 146.807 148.068 149.949 155.816C153.091 163.565 154.665 171.86 154.582 180.221L154.575 180.183Z" fill="#827397"/>
<path d="M154.575 180.183C154.575 182.115 154.481 184.015 154.31 185.903C139.753 195.807 118.327 202.057 94.4332 202.057C66.6568 202.057 42.2515 193.617 28.0539 180.821C28.0539 180.606 28.0539 180.398 28.0539 180.19C27.9704 171.828 29.5451 163.534 32.687 155.785C35.8288 148.036 40.4755 140.987 46.3584 135.045C52.2413 129.103 59.2437 124.386 66.9607 121.167C74.6777 117.948 82.9563 116.29 91.3179 116.29C99.6794 116.29 107.958 117.948 115.675 121.167C123.392 124.386 130.394 129.103 136.277 135.045C142.16 140.987 146.807 148.036 149.949 155.785C153.091 163.534 154.665 171.828 154.582 180.19L154.575 180.183Z" fill="url(#paint1_linear_555_1715)"/>
<path d="M120.322 155.45C122.847 156.359 125.593 157.009 127.664 158.732C129.501 160.254 130.618 162.457 131.521 164.66C134.531 172.054 135.617 180.09 134.677 188.017C134.425 190.126 134.046 192.298 134.595 194.33C135.144 196.363 137.019 198.269 139.128 198.017C142.051 192.209 142.114 185.429 142.12 178.927C142.12 174.18 142.12 169.331 140.529 164.856C139.229 161.169 136.931 157.912 134.557 154.812C125.902 143.449 115.429 132.85 102.097 127.743C101.544 127.46 100.909 127.382 100.304 127.522C97.5579 128.525 98.0061 133.412 99.0729 135.375C100.588 138.087 102.275 140.7 104.123 143.196C108.178 148.807 113.82 153.074 120.322 155.45Z" fill="url(#paint2_linear_555_1715)"/>
<path d="M95.355 141.183C95.3925 140.333 95.5023 139.488 95.6833 138.658C95.7804 138.245 95.989 137.868 96.2863 137.566C96.5836 137.264 96.958 137.05 97.3688 136.947C97.7156 136.937 98.0614 136.906 98.4041 136.852C99.1048 136.637 99.4015 135.823 99.6035 135.122L101.845 127.294C102.274 125.779 102.709 124.189 102.381 122.655C101.864 120.256 99.6603 118.633 97.514 117.459C95.9547 116.601 94.1998 115.837 92.4637 116.159C89.7745 116.657 88.2152 119.435 87.2115 121.979C86.0433 124.705 85.3248 127.602 85.0841 130.558C84.9073 133.973 84.6169 142.338 86.7317 145.324C89.6608 149.516 94.8879 144.97 95.355 141.183Z" fill="url(#paint3_linear_555_1715)"/>
<path d="M129.406 131.303C135.132 133.241 141.236 134.055 146.754 136.524C146.932 136.578 147.096 136.668 147.238 136.788C147.379 136.909 147.493 137.057 147.574 137.225C147.623 137.498 147.587 137.779 147.473 138.033C142.814 151.89 140.186 166.349 139.671 180.96C142.972 181.554 146.346 181.628 149.67 181.181C150.044 181.157 150.406 181.042 150.725 180.846C151.031 180.578 151.262 180.234 151.394 179.849C156.734 167.859 161.528 155.643 165.774 143.203C166.526 141 167.27 138.695 166.967 136.385C166.532 133.02 164 130.369 161.595 127.976L142.852 109.278C142.376 108.74 141.791 108.31 141.135 108.015C140.381 107.791 139.585 107.752 138.812 107.901C131.42 108.817 121.326 109.101 107.741 108.533C105.979 108.457 114.685 118.488 115.411 120.413C115.991 121.941 117.828 123.911 118.952 125.098C121.768 128.052 125.568 130.003 129.406 131.303Z" fill="#525263"/>
<path d="M129.406 131.303C135.132 133.241 141.236 134.055 146.754 136.524C146.932 136.578 147.096 136.668 147.238 136.788C147.379 136.909 147.493 137.057 147.574 137.225C147.623 137.498 147.587 137.779 147.473 138.033C142.814 151.89 140.186 166.349 139.671 180.96C142.972 181.554 146.346 181.628 149.67 181.181C150.044 181.157 150.406 181.042 150.725 180.846C151.031 180.578 151.262 180.234 151.394 179.849C156.734 167.859 161.528 155.643 165.774 143.203C166.526 141 167.27 138.695 166.967 136.385C166.532 133.02 164 130.369 161.595 127.976L142.852 109.278C142.376 108.74 141.791 108.31 141.135 108.015C140.381 107.791 139.585 107.752 138.812 107.901C131.42 108.817 121.326 109.101 107.741 108.533C105.979 108.457 114.685 118.488 115.411 120.413C115.991 121.941 117.828 123.911 118.952 125.098C121.768 128.052 125.568 130.003 129.406 131.303Z" fill="url(#paint4_linear_555_1715)"/>
<path d="M138.712 189.248C138.252 189.964 137.94 190.765 137.796 191.603C137.46 193.07 137.211 194.557 137.051 196.054C136.925 197.215 136.881 198.478 137.544 199.431C138.207 200.384 139.299 200.731 140.321 201.129C142.896 202.189 145.397 203.418 147.808 204.81C149.437 205.706 151.135 206.634 152.991 206.703C154.847 206.773 156.899 205.756 157.322 203.951C157.468 203.082 157.395 202.19 157.107 201.356C156.094 197.734 154.107 194.459 151.363 191.887C150.882 191.418 150.345 191.009 149.765 190.669C149.209 190.381 148.628 190.145 148.029 189.962C146.343 189.345 144.616 188.849 142.859 188.478C141.325 188.232 139.772 187.778 138.712 189.248Z" fill="#2E2E3F"/>
<path d="M138.712 189.248C138.252 189.964 137.94 190.765 137.796 191.603C137.46 193.07 137.211 194.557 137.051 196.054C136.925 197.215 136.881 198.478 137.544 199.431C138.207 200.384 139.299 200.731 140.321 201.129C142.896 202.189 145.397 203.418 147.808 204.81C149.437 205.706 151.135 206.634 152.991 206.703C154.847 206.773 156.899 205.756 157.322 203.951C157.468 203.082 157.395 202.19 157.107 201.356C156.094 197.734 154.107 194.459 151.363 191.887C150.882 191.418 150.345 191.009 149.765 190.669C149.209 190.381 148.628 190.145 148.029 189.962C146.343 189.345 144.616 188.849 142.859 188.478C141.325 188.232 139.772 187.778 138.712 189.248Z" fill="url(#paint5_linear_555_1715)"/>
<path d="M140.587 181.433C140.108 183.93 139.859 186.466 139.842 189.009C139.842 190.126 139.918 191.363 140.719 192.165C141.478 192.768 142.445 193.045 143.409 192.935C144.57 192.892 145.716 192.655 146.799 192.234C147.039 192.16 147.256 192.025 147.43 191.843C147.558 191.664 147.646 191.459 147.689 191.243C148.652 187.63 149.163 183.91 149.21 180.171C149.271 179.584 149.15 178.993 148.863 178.479C148.263 177.639 147.019 177.677 146.009 177.879C144.716 178.156 143.449 178.542 142.222 179.034C141.06 179.438 140.82 180.234 140.587 181.433Z" fill="#F5BCBA"/>
<path d="M153.035 193.301C153.492 194.423 153.863 195.577 154.146 196.754C154.342 197.67 154.456 198.648 155.043 199.381C155.788 200.296 157.082 200.529 158.262 200.548C159.235 200.603 160.208 200.439 161.109 200.069C161.578 199.885 161.97 199.546 162.22 199.109C162.396 198.677 162.457 198.208 162.397 197.746C162.305 194.538 161.505 191.391 160.055 188.529C159.224 187.049 158.287 185.632 157.252 184.287C156.926 183.682 156.375 183.228 155.718 183.024C155.381 183.012 155.044 183.068 154.729 183.188C154.413 183.309 154.125 183.491 153.881 183.725C152.84 184.508 150.548 185.814 150.788 187.298C151.091 189.274 152.328 191.426 153.035 193.301Z" fill="#F5BCBA"/>
<path d="M160.687 195.631C159.972 196.03 159.279 196.467 158.61 196.937C157.568 197.512 156.343 197.626 155.201 197.954C154.899 198.012 154.622 198.159 154.405 198.377C154.248 198.589 154.15 198.84 154.121 199.103C153.907 200.826 153.977 202.573 154.33 204.273C154.91 207.951 155.588 211.615 156.362 215.264C156.684 216.766 157.069 218.351 158.162 219.43C159.254 220.51 160.914 220.882 162.467 220.926C163.92 221.01 165.371 220.739 166.696 220.137C167.75 219.573 168.663 218.778 169.367 217.812C170.071 216.845 170.548 215.733 170.762 214.557C171.173 212.192 170.883 209.758 169.929 207.556C169.28 206.05 168.525 204.592 167.669 203.193C166.532 201.241 165.4 199.288 164.272 197.335C163.414 195.845 162.631 194.804 160.687 195.631Z" fill="#2E2E3F"/>
<path d="M160.687 195.631C159.972 196.03 159.279 196.467 158.61 196.937C157.568 197.512 156.343 197.626 155.201 197.954C154.899 198.012 154.622 198.159 154.405 198.377C154.248 198.589 154.15 198.84 154.121 199.103C153.907 200.826 153.977 202.573 154.33 204.273C154.91 207.951 155.588 211.615 156.362 215.264C156.684 216.766 157.069 218.351 158.162 219.43C159.254 220.51 160.914 220.882 162.467 220.926C163.92 221.01 165.371 220.739 166.696 220.137C167.75 219.573 168.663 218.778 169.367 217.812C170.071 216.845 170.548 215.733 170.762 214.557C171.173 212.192 170.883 209.758 169.929 207.556C169.28 206.05 168.525 204.592 167.669 203.193C166.532 201.241 165.4 199.288 164.272 197.335C163.414 195.845 162.631 194.804 160.687 195.631Z" fill="url(#paint6_linear_555_1715)"/>
<path d="M84.2 80.0808C83.6477 81.4706 83.2784 82.9264 83.1016 84.4114C82.5011 88.2566 82.1175 92.1325 81.9527 96.0207C81.637 103.445 82.1168 110.881 81.9085 118.305C81.6938 126.026 80.7848 134.03 83.5624 141.233C83.995 142.54 84.7254 143.729 85.6962 144.705C86.1874 145.186 86.793 145.533 87.4558 145.714C88.1185 145.895 88.8166 145.904 89.4839 145.74C90.0877 145.508 90.6297 145.139 91.0677 144.663C91.5056 144.187 91.8278 143.616 92.009 142.994C92.357 141.75 92.5103 140.46 92.4635 139.169L92.5645 132.111C92.5645 131.966 92.5645 131.795 92.7097 131.732C92.7705 131.711 92.8358 131.707 92.8989 131.719C92.9621 131.731 93.0209 131.76 93.0695 131.802C93.6127 132.271 94.1291 132.771 94.6162 133.298C95.178 133.752 96.0744 133.973 96.5731 133.449C96.7112 133.266 96.809 133.055 96.8601 132.831C96.9113 132.607 96.9146 132.374 96.8699 132.149C96.5668 129.094 93.9028 126.89 92.3183 124.258C90.0331 120.47 90.0331 115.698 90.6075 111.291C91.3209 105.774 92.8107 100.389 94.2942 95.0233L95.5568 90.4844C96.51 87.0376 97.4506 83.2751 96.0618 79.9735C95.5042 78.7054 94.6549 77.587 93.5831 76.7094C92.5113 75.8318 91.2473 75.2198 89.8942 74.9233C87.2554 74.4372 85.1533 77.9345 84.2 80.0808Z" fill="#F5BCBA"/>
<path d="M142.809 108.785C141.995 110.976 137.399 108.419 134.773 109.732C129.76 112.257 124.041 109.663 118.454 109.732C112.507 109.839 108.404 115.698 102.502 116.443C102.073 116.531 101.63 116.531 101.201 116.443C100.387 116.203 99.907 115.388 99.5597 114.625C99.0503 113.446 98.6858 112.21 98.4739 110.944C97.7417 106.753 98.4739 102.258 99.2567 97.9966C99.9133 94.3857 100.568 90.7727 101.22 87.1575C101.978 82.949 102.741 78.7152 103.512 74.4561C103.961 71.6464 104.593 68.8692 105.405 66.1421C105.557 65.6687 105.715 65.2078 105.885 64.7533C107.354 61.0511 109.125 57.4765 111.182 54.0657C112.444 51.8752 113.707 49.6467 115.657 47.9865C117.835 46.1494 120.645 45.2341 123.466 44.7922C126.004 44.3139 128.621 44.4656 131.086 45.2341C132.494 45.7265 133.024 47.2163 134.141 48.1317C135.558 49.1811 136.822 50.4218 137.897 51.8184C138.99 53.5045 139.771 55.3734 140.202 57.3358C144.16 72.7264 138.434 89.3291 142.197 104.764C142.626 106.576 143.459 107.056 142.809 108.785Z" fill="#827397"/>
<path d="M137.431 54.7222L137.923 57.9481L136.029 56.8939V65.4414L133.87 55.9469L135.96 52.9042L137.431 54.7222Z" fill="url(#paint7_linear_555_1715)"/>
<path d="M121.396 54.5139L122.589 55.1452L124.483 56.7928L119.433 70.3402C119.433 70.3402 126.768 59.0528 127.008 53.2955C127.156 49.7542 126.715 46.2127 125.701 42.8163L121.396 54.5139Z" fill="url(#paint8_linear_555_1715)"/>
<path d="M105.222 93.3441C104.821 96.4455 104.821 99.5856 105.222 102.687C105.481 104.638 105.898 106.582 105.765 108.539C105.771 108.921 105.649 109.295 105.418 109.6C105.121 109.841 104.758 109.984 104.376 110.01C102.402 110.321 100.427 110.639 98.4486 110.963C97.7163 106.771 98.4485 102.277 99.2313 98.0156C99.8879 94.4046 100.542 90.7916 101.195 87.1764C101.952 82.9679 102.716 78.7341 103.486 74.4751C103.935 71.6654 104.568 68.8881 105.38 66.1611C105.532 65.6876 105.689 65.2268 105.86 64.7722C107.817 63.6864 110.538 62.8784 111.75 64.6334C113.012 66.5272 111.352 70.9462 110.86 72.84C109.067 79.7021 106.125 86.2611 105.222 93.3441Z" fill="url(#paint9_linear_555_1715)"/>
<path d="M150.63 38.6119C150.696 39.3969 150.672 40.1868 150.56 40.9666C150.497 41.3554 150.303 41.7109 150.01 41.9747C149.718 42.2386 149.344 42.3951 148.951 42.4186C146.981 42.2734 145.561 44.1609 143.995 45.373C142.767 46.2934 141.309 46.8575 139.781 47.0034C138.253 47.1492 136.714 46.8713 135.334 46.1999C135.06 46.1013 134.758 46.1118 134.491 46.2293C134.225 46.3468 134.013 46.5623 133.901 46.8312C133.704 47.3881 133.66 47.9877 133.775 48.5672L134.501 55.4735C134.64 56.8055 134.652 58.4342 133.522 59.1538C132.392 59.8735 131.054 59.2485 130.12 58.4342C128.651 57.0217 127.589 55.2404 127.045 53.2766C125.811 49.2979 125.634 45.0664 126.531 40.9985C127.429 36.9306 129.371 33.1666 132.165 30.077C133.214 28.9044 134.444 27.907 135.807 27.1226C137.235 26.3816 138.768 25.8643 140.353 25.5886C141.771 25.2539 143.237 25.1727 144.683 25.3487C146.626 25.7019 148.392 26.7006 149.696 28.1832C150.655 29.2311 151.589 32.3559 152.6 32.8673C151.848 34.7737 150.662 36.4593 150.63 38.6119Z" fill="#F5BCBA"/>
<path d="M135.606 11.5047C134.68 11.2882 133.714 11.3164 132.803 11.5867C131.023 12.218 130.026 14.0803 129.382 15.8542C128.738 17.6281 128.207 19.5661 126.806 20.8224C125.6 21.9082 123.889 22.3438 122.804 23.5432C121.541 24.9383 121.421 27.0026 121.541 28.8775C121.541 30.2842 121.937 31.6625 122.684 32.8546C123.353 33.7637 124.382 34.395 124.906 35.3798C125.499 36.5097 125.701 38.2584 126.976 38.3342C127.508 38.3073 128.01 38.082 128.384 37.7029C129.673 36.5887 130.645 35.1535 131.2 33.5427C131.509 32.6463 131.711 31.6489 132.393 31.0176C133.075 30.3863 134.463 30.3484 134.773 31.2449C134.86 31.8152 134.772 32.3985 134.52 32.9178C134.356 33.4733 134.426 34.2245 134.968 34.4139C135.991 32.8357 136.566 30.9797 137.778 29.5467C138.465 28.7408 139.329 28.1029 140.301 27.682C141.273 27.261 142.329 27.0681 143.387 27.1181C144.446 27.1681 145.478 27.4595 146.407 27.9702C147.335 28.4809 148.134 29.1972 148.743 30.0644C149.374 30.9671 149.804 32.0403 150.687 32.6842C151.52 33.1914 152.471 33.4702 153.446 33.4922C155.618 33.7069 157.916 33.7889 159.873 32.8231C161.83 31.8572 163.275 29.5151 162.524 27.4635C161.931 25.8537 160.239 24.9383 158.597 24.4207C156.956 23.903 155.201 23.6442 153.755 22.7225C151.792 21.46 150.744 19.2126 149.602 17.1736C148.459 15.1345 146.912 13.0387 144.627 12.5589C143.694 12.4137 142.744 12.4137 141.812 12.5589C140.901 12.752 139.969 12.8242 139.04 12.7735C137.904 12.54 136.805 11.7698 135.606 11.5047Z" fill="#2E2E3F"/>
<path d="M135.606 63.3771C137.048 70.6801 137.473 78.1473 136.869 85.5667C136.37 91.7406 135.183 97.8704 135.227 104.063C135.32 105.805 135.267 107.551 135.069 109.284C134.792 111.001 123.277 110.345 121.598 110.326C118.77 110.288 122.355 114.113 120.228 112.27C116.888 109.36 115.399 104.821 114.988 100.414C114.401 94.1332 115.689 87.8456 117.09 81.6906C118.063 77.4295 119.098 73.1557 120.84 69.147C122.999 64.1915 126.414 57.885 127.513 52.5885C127.671 51.812 124.988 48.9902 126.143 49.0281C126.894 49.0281 126.541 50.196 126.673 50.7767C126.91 51.6611 127.364 52.4725 127.993 53.1377C128.873 54.1659 130.066 54.8776 131.389 55.1641C132.241 55.322 133.213 55.2841 133.832 55.8901C134.583 56.6224 134.463 58.0491 134.678 59.0465C134.987 60.4732 135.316 61.9189 135.606 63.3771Z" fill="#F2F2F2"/>
<path d="M110.045 44.5965C106.989 45.9979 104.363 48.1695 101.882 50.4422C99.8289 52.2926 97.8894 54.2658 96.0746 56.351C94.4712 58.2448 93.0066 60.2081 91.3148 61.9946C88.979 64.4503 86.0625 66.8239 85.6017 70.2013C85.4606 71.9624 85.7691 73.7305 86.4981 75.3399C87.0989 76.9831 87.9858 78.507 89.1179 79.841C90.5544 81.43 92.4494 82.5331 94.5406 82.9974C95.196 83.1682 95.8802 83.1983 96.5481 83.0857C97.4887 82.818 98.3535 82.3337 99.0732 81.6717C100.719 80.4264 102.278 79.0702 103.738 77.6125C105.228 76.0659 106.491 74.3046 107.943 72.7201C109.205 71.3565 110.55 70.1255 111.812 68.7872C113.321 67.1838 114.666 65.4351 116.011 63.6864C117.913 61.3146 119.657 58.8199 121.231 56.2184C122.546 53.9226 123.59 51.4822 124.343 48.946C124.83 47.2921 125.606 45.1962 123.927 44.0031C120.36 41.4906 113.599 42.9362 110.045 44.5965Z" fill="#827397"/>
<path d="M110.045 44.5965C106.989 45.9979 104.363 48.1695 101.882 50.4422C99.8289 52.2926 97.8894 54.2658 96.0746 56.351C94.4712 58.2448 93.0066 60.2081 91.3148 61.9946C88.979 64.4503 86.0625 66.8239 85.6017 70.2013C85.4606 71.9624 85.7691 73.7305 86.4981 75.3399C87.0989 76.9831 87.9858 78.507 89.1179 79.841C90.5544 81.43 92.4494 82.5331 94.5406 82.9974C95.196 83.1682 95.8802 83.1983 96.5481 83.0857C97.4887 82.818 98.3535 82.3337 99.0732 81.6717C100.719 80.4264 102.278 79.0702 103.738 77.6125C105.228 76.0659 106.491 74.3046 107.943 72.7201C109.205 71.3565 110.55 70.1255 111.812 68.7872C113.321 67.1838 114.666 65.4351 116.011 63.6864C117.913 61.3146 119.657 58.8199 121.231 56.2184C122.546 53.9226 123.59 51.4822 124.343 48.946C124.83 47.2921 125.606 45.1962 123.927 44.0031C120.36 41.4906 113.599 42.9362 110.045 44.5965Z" fill="#827397"/>
<path d="M162.966 73.4208C162.283 73.852 161.795 74.5321 161.606 75.317C161.416 76.1018 161.539 76.9297 161.95 77.6251C163.009 79.4688 164.431 81.0792 166.129 82.3598C167.139 83.4456 169.411 83.6223 171.431 82.4355C173.451 81.2487 183.091 76.0027 187.908 72.5749C188.261 72.332 188.561 72.0196 188.79 71.6569C189.019 71.2942 189.171 70.8887 189.238 70.4651C189.305 70.0416 189.284 69.6088 189.178 69.1934C189.072 68.7779 188.883 68.3884 188.621 68.0486L184.587 62.9983C184.109 62.4006 183.427 62.0005 182.672 61.8747C181.917 61.7489 181.143 61.9062 180.497 62.3165L162.966 73.4208Z" fill="#3D3D54"/>
<path d="M98.8964 127.831C99.6085 130.446 100.872 132.878 102.602 134.964C104.496 137.174 107.071 138.752 109.546 140.255L119.969 146.599C121.497 147.478 122.959 148.468 124.343 149.56C127.759 152.375 130.025 156.302 132.228 160.14L147.429 186.635C148.199 187.992 149.279 189.526 150.838 189.476C151.678 189.367 152.467 189.016 153.111 188.466C155.062 187.096 157.157 185.536 157.738 183.22C158.142 181.604 157.738 179.905 157.252 178.302C154.916 170.405 151.255 162.968 147.581 155.576C141.744 143.876 135.82 132.199 129.81 120.546C128.213 117.453 126.275 112.636 123.636 110.363C123.636 110.363 99.1173 108.874 98.4987 111.304C97.1208 116.746 97.2583 122.461 98.8964 127.831Z" fill="#525263"/>
<path d="M98.8964 127.831C99.6085 130.446 100.872 132.878 102.602 134.964C104.496 137.174 107.071 138.752 109.546 140.255L119.969 146.599C121.497 147.478 122.959 148.468 124.343 149.56C127.759 152.375 130.025 156.302 132.228 160.14L147.429 186.635C148.199 187.992 149.279 189.526 150.838 189.476C151.678 189.367 152.467 189.016 153.111 188.466C155.062 187.096 157.157 185.536 157.738 183.22C158.142 181.604 157.738 179.905 157.252 178.302C154.916 170.405 151.255 162.968 147.581 155.576C141.744 143.876 135.82 132.199 129.81 120.546C128.213 117.453 126.275 112.636 123.636 110.363C123.636 110.363 99.1173 108.874 98.4987 111.304C97.1208 116.746 97.2583 122.461 98.8964 127.831Z" fill="url(#paint10_linear_555_1715)"/>
<path d="M126.471 41.137L123.005 42.5069L120.903 54.2677L127.892 53.9521L126.471 41.137Z" fill="#827397"/>
<path d="M133.806 53.668C133.806 54.1983 133.806 54.7286 133.806 55.2588C133.806 55.4887 133.819 55.7184 133.844 55.9469C133.882 56.1789 133.933 56.4086 133.996 56.635L134.867 60.0692L135.227 54.4887C136.256 54.9874 137.31 55.4419 138.383 55.8396C138.302 55.0033 138.089 54.1851 137.752 53.4155C137.121 51.7994 136.54 50.177 135.858 48.5925C135.699 48.1693 135.468 47.7764 135.176 47.4309C135.029 47.2596 134.844 47.1248 134.636 47.0372C134.428 46.9496 134.202 46.9115 133.977 46.9259C133.345 47.1911 133.743 49.5584 133.749 50.0823L133.806 53.668Z" fill="#827397"/>
<path d="M184.877 70.6558L172.05 78.7678C171.825 78.8891 171.565 78.9302 171.314 78.8843C171.063 78.8384 170.835 78.7083 170.667 78.5153L166.589 73.9195C166.505 73.8413 166.44 73.745 166.399 73.6379C166.358 73.5309 166.342 73.4159 166.351 73.3016C166.361 73.1873 166.397 73.0767 166.455 72.9782C166.514 72.8796 166.594 72.7957 166.69 72.7327L179.543 64.6271C179.768 64.5057 180.027 64.4646 180.279 64.5105C180.53 64.5564 180.758 64.6866 180.926 64.8796L185.004 69.469C185.086 69.549 185.15 69.6469 185.189 69.755C185.228 69.8631 185.242 69.9788 185.23 70.0932C185.218 70.2076 185.18 70.3177 185.119 70.4152C185.057 70.5126 184.975 70.5949 184.877 70.6558Z" fill="#827397"/>
<defs>
<linearGradient id="paint0_linear_555_1715" x1="127.803" y1="75.2389" x2="153.711" y2="74.8412" gradientUnits="userSpaceOnUse">
<stop offset="0.01"/>
<stop offset="0.13" stop-opacity="0.69"/>
<stop offset="1" stop-opacity="0"/>
</linearGradient>
<linearGradient id="paint1_linear_555_1715" x1="206.353" y1="50.0381" x2="9.23538" y2="255.931" gradientUnits="userSpaceOnUse">
<stop offset="0.01"/>
<stop offset="0.13" stop-opacity="0.69"/>
<stop offset="1" stop-opacity="0"/>
</linearGradient>
<linearGradient id="paint2_linear_555_1715" x1="153.666" y1="127.149" x2="97.0844" y2="186.256" gradientUnits="userSpaceOnUse">
<stop offset="0.01"/>
<stop offset="0.13" stop-opacity="0.69"/>
<stop offset="1" stop-opacity="0"/>
</linearGradient>
<linearGradient id="paint3_linear_555_1715" x1="71.2022" y1="118.507" x2="147.669" y2="166.402" gradientUnits="userSpaceOnUse">
<stop offset="0.01"/>
<stop offset="0.13" stop-opacity="0.69"/>
<stop offset="1" stop-opacity="0"/>
</linearGradient>
<linearGradient id="paint4_linear_555_1715" x1="107.507" y1="144.617" x2="167.037" y2="144.617" gradientUnits="userSpaceOnUse">
<stop offset="0.01"/>
<stop offset="0.13" stop-opacity="0.69"/>
<stop offset="1" stop-opacity="0"/>
</linearGradient>
<linearGradient id="paint5_linear_555_1715" x1="161.072" y1="201.041" x2="144.69" y2="196.836" gradientUnits="userSpaceOnUse">
<stop offset="0.01"/>
<stop offset="0.13" stop-opacity="0.69"/>
<stop offset="1" stop-opacity="0"/>
</linearGradient>
<linearGradient id="paint6_linear_555_1715" x1="153.995" y1="208.136" x2="170.977" y2="208.136" gradientUnits="userSpaceOnUse">
<stop offset="0.01"/>
<stop offset="0.13" stop-opacity="0.69"/>
<stop offset="1" stop-opacity="0"/>
</linearGradient>
<linearGradient id="paint7_linear_555_1715" x1="126.364" y1="51.1555" x2="143.87" y2="65.7192" gradientUnits="userSpaceOnUse">
<stop offset="0.01"/>
<stop offset="0.13" stop-opacity="0.69"/>
<stop offset="1" stop-opacity="0"/>
</linearGradient>
<linearGradient id="paint8_linear_555_1715" x1="137.891" y1="50.5179" x2="105.538" y2="63.3329" gradientUnits="userSpaceOnUse">
<stop offset="0.01"/>
<stop offset="0.13" stop-opacity="0.69"/>
<stop offset="1" stop-opacity="0"/>
</linearGradient>
<linearGradient id="paint9_linear_555_1715" x1="83.3167" y1="88.0034" x2="123.403" y2="86.6146" gradientUnits="userSpaceOnUse">
<stop offset="0.01"/>
<stop offset="0.13" stop-opacity="0.69"/>
<stop offset="1" stop-opacity="0"/>
</linearGradient>
<linearGradient id="paint10_linear_555_1715" x1="116.812" y1="153.65" x2="161.772" y2="134.744" gradientUnits="userSpaceOnUse">
<stop offset="0.01"/>
<stop offset="0.13" stop-opacity="0.69"/>
<stop offset="1" stop-opacity="0"/>
</linearGradient>
</defs>
</svg>
