<svg width="150" height="107" viewBox="0 0 150 107" fill="none" xmlns="http://www.w3.org/2000/svg">
<path d="M37.3063 25.2473C37.3063 25.2473 29.1768 24.1646 27.5434 30.9595C25.91 37.7543 25.6767 47.1719 19.1432 49.0573C12.6097 50.9427 8.99289 37.857 8.99289 37.857C8.99289 37.857 7.47618 34.1889 5.84281 33.6895C4.20943 33.1902 3.04273 36.807 5.84281 39.0237C5.84281 39.0237 8.19953 55.7075 20.7299 55.1241C33.2602 54.5408 37.3063 37.353 37.3063 25.2473Z" fill="#F4A28C"/>
<path opacity="0.08" d="M37.3063 25.2473C37.3063 25.2473 29.1768 24.1646 27.5434 30.9595C25.91 37.7543 25.6767 47.1719 19.1432 49.0573C12.6097 50.9427 8.99289 37.857 8.99289 37.857C8.99289 37.857 7.47618 34.1889 5.84281 33.6895C4.20943 33.1902 3.04273 36.807 5.84281 39.0237C5.84281 39.0237 8.19953 55.7075 20.7299 55.1241C33.2602 54.5408 37.3063 37.353 37.3063 25.2473Z" fill="black"/>
<path opacity="0.45" d="M77.9354 106.491C117.736 106.491 150 102.166 150 96.8312C150 91.4959 117.736 87.1709 77.9354 87.1709C38.1352 87.1709 5.87082 91.4959 5.87082 96.8312C5.87082 102.166 38.1352 106.491 77.9354 106.491Z" fill="#E6E6E6"/>
<path d="M115.074 0H61.8117V95.5245H115.074V0Z" fill="#C9C9C9"/>
<path d="M110.304 10.8876H66.2171V78.1127H110.304V10.8876Z" fill="white"/>
<path opacity="0.56" d="M88.6037 91.9359C91.4827 91.9359 93.8165 89.602 93.8165 86.7231C93.8165 83.8441 91.4827 81.5103 88.6037 81.5103C85.7248 81.5103 83.3909 83.8441 83.3909 86.7231C83.3909 89.602 85.7248 91.9359 88.6037 91.9359Z" fill="white"/>
<path opacity="0.12" d="M98.8706 3.7334H83.9369V5.91279H98.8706V3.7334Z" fill="black"/>
<path d="M78.5281 7.49012C79.8709 7.49012 80.9595 6.40154 80.9595 5.05872C80.9595 3.71589 79.8709 2.62732 78.5281 2.62732C77.1853 2.62732 76.0967 3.71589 76.0967 5.05872C76.0967 6.40154 77.1853 7.49012 78.5281 7.49012Z" fill="white"/>
<path d="M37.3063 13.151C37.3063 13.151 31.9442 19.4652 36.2283 21.7426C42.5144 25.084 43.2798 13.5337 43.2798 13.5337L37.3063 13.151Z" fill="#24285B"/>
<path d="M37.7263 13.7764C37.7263 13.7764 36.6063 16.1518 36.4149 17.9346C36.3962 18.1073 36.4121 18.282 36.4615 18.4486C36.5109 18.6152 36.5929 18.7702 36.7027 18.9048C36.8126 19.0394 36.9481 19.1509 37.1014 19.2327C37.2547 19.3144 37.4227 19.365 37.5956 19.3813C38.1485 19.471 38.7155 19.3995 39.2286 19.1751C39.7418 18.9508 40.1794 18.5833 40.489 18.1166L42.0198 16.2498C42.2862 15.8415 42.4194 15.3605 42.4011 14.8732C42.3827 14.3859 42.2136 13.9163 41.9171 13.5291C40.8997 12.0077 38.333 12.2971 37.7263 13.7764Z" fill="#F4A28C"/>
<path d="M41.4411 16.6697L42.0571 25.2472H37.3063L38.7297 19.1664L41.4411 16.6697Z" fill="#F4A28C"/>
<path d="M37.0963 15.3071L36.0603 16.0025C36.0005 16.0404 35.9513 16.0928 35.9172 16.1548C35.8831 16.2168 35.8653 16.2864 35.8653 16.3572C35.8653 16.4279 35.8831 16.4975 35.9172 16.5595C35.9513 16.6215 36.0005 16.6739 36.0603 16.7118L36.933 17.2392L37.0963 15.3071Z" fill="#F4A28C"/>
<path opacity="0.31" d="M38.6923 19.3392C39.2649 19.2364 39.7989 18.9799 40.237 18.5972C40.237 18.5972 40.545 20.4639 38.2816 21.0799L38.6923 19.3392Z" fill="#CE8172"/>
<path d="M39.8917 16.567C39.8917 16.567 40.2604 15.6337 40.9464 15.9603C41.6325 16.287 41.1051 17.6591 40.0924 17.4304L39.8917 16.567Z" fill="#F4A28C"/>
<path d="M28.7288 74.0854L24.7107 92.3466H27.0441L34.8656 74.0854H28.7288Z" fill="#F4A28C"/>
<path d="M41.8004 71.8686L46.0846 92.3464H48.432L48.0773 71.7239L41.8004 71.8686Z" fill="#F4A28C"/>
<path d="M24.7107 92.3462C24.7107 92.3462 23.4133 93.9889 21.7519 93.9096C20.0905 93.8302 19.8525 96.173 22.5173 95.9303C23.3473 95.8587 24.1699 95.7183 24.9767 95.5103C25.7217 95.3358 26.4998 95.3632 27.2307 95.5896C27.3733 95.6212 27.5221 95.6091 27.6578 95.555C27.7934 95.5009 27.9097 95.4073 27.9914 95.2863C28.7474 94.3949 26.8854 92.3462 26.8854 92.3462H24.7107Z" fill="#827397"/>
<path d="M48.2593 92.3462C48.2593 92.3462 49.5566 93.9889 51.218 93.9096C52.8794 93.8302 53.1221 96.173 50.4527 95.9303C49.6226 95.8587 48.8 95.7183 47.9933 95.5103C47.2482 95.3358 46.4701 95.3632 45.7392 95.5896C45.5966 95.6212 45.4478 95.6091 45.3122 95.555C45.1765 95.5009 45.0603 95.4073 44.9785 95.2863C44.2225 94.3949 46.0845 92.3462 46.0845 92.3462H48.2593Z" fill="#827397"/>
<path opacity="0.12" d="M101.129 35.3323H76.0827V63.5477H101.129V35.3323Z" fill="black"/>
<path d="M96.4112 66.6277H80.4788V73.4459H96.4112V66.6277Z" fill="#B9DBE6"/>
<path d="M94.9039 42.2158L91.6371 41.2031C91.3618 43.8119 88.6831 43.7839 88.6831 43.7839C88.6831 43.7839 85.9997 43.8119 85.7243 41.2031L82.4576 42.2158L78.4908 46.4533L81.2909 49.72L83.6243 47.914L84.2309 56.1042H93.0978L93.7045 47.914L96.0379 49.72L98.838 46.4533L94.9039 42.2158Z" fill="white"/>
<path opacity="0.15" d="M61.9283 28.1688V32.5182C61.9283 32.5182 64.831 33.9183 68.9051 32.1822C72.9793 30.4462 74.972 34.1236 80.0774 32.1822C85.1829 30.2408 86.6109 34.4829 92.2344 32.9616C97.8579 31.4402 99.6406 30.8848 102.693 32.5509C105.745 34.2169 112.493 32.8356 115.074 30.8428V25.2427L107.607 19.8712H68.2938L61.9283 28.1688Z" fill="#2C2C3A"/>
<path d="M66.2498 10.8876L58.0549 23.1099H119.153L110.407 10.8876H66.2498Z" fill="#24285B"/>
<path d="M62.4183 27.9681C64.8311 27.9681 66.7818 25.7934 66.7818 23.11H58.0549C58.0549 25.7934 60.0103 27.9681 62.4183 27.9681Z" fill="#24285B"/>
<path d="M71.1499 27.9681C73.558 27.9681 75.5133 25.7934 75.5133 23.11H66.7724C66.7724 25.7934 68.7372 27.9681 71.1499 27.9681Z" fill="#FAFAFA"/>
<path d="M79.8768 27.9681C82.2848 27.9681 84.2402 25.7934 84.2402 23.11H75.5133C75.5133 25.7934 77.464 27.9681 79.8768 27.9681Z" fill="#24285B"/>
<path d="M88.6037 27.9681C91.0164 27.9681 92.9672 25.7934 92.9672 23.11H84.2402C84.2402 25.7934 86.1956 27.9681 88.6037 27.9681Z" fill="#FAFAFA"/>
<path d="M97.3352 27.9681C99.7433 27.9681 101.699 25.7934 101.699 23.11H92.9671C92.9671 25.7934 94.9225 27.9681 97.3352 27.9681Z" fill="#24285B"/>
<path d="M106.062 27.9681C108.47 27.9681 110.426 25.7934 110.426 23.11H101.699C101.699 25.7934 103.64 27.9681 106.062 27.9681Z" fill="#FAFAFA"/>
<path d="M114.789 27.9681C117.202 27.9681 119.153 25.7934 119.153 23.11H110.426C110.426 25.7934 112.381 27.9681 114.789 27.9681Z" fill="#24285B"/>
<path d="M66.7818 23.1099L71.7099 10.8876H77.4034L75.5133 23.1099H66.7818Z" fill="#FAFAFA"/>
<path d="M110.412 23.1099L105.488 10.8876H99.7946L101.685 23.1099H110.412Z" fill="#FAFAFA"/>
<path d="M84.2402 23.1099L84.6696 10.8876H92.4445L92.9672 23.1099H84.2402Z" fill="#FAFAFA"/>
<path d="M38.039 10.0289C37.6562 10.1752 37.315 10.4129 37.0449 10.7211C36.7749 11.0294 36.5843 11.3989 36.4896 11.7976C36.331 12.521 36.4616 13.3984 37.6283 13.991C39.9617 15.1764 40.9744 14.3924 40.7784 15.9044C40.5824 17.4165 38.053 22.6433 43.2658 22.2933C48.4786 21.9433 46.7659 18.8118 45.8326 16.9545C44.8992 15.0971 44.8619 13.5057 44.5119 12.2877C44.1898 11.191 41.5298 8.64756 38.039 10.0289Z" fill="#24285B"/>
<path d="M37.3063 25.2473H42.0384C42.0384 25.2473 42.3651 25.2473 42.9251 25.2473C53.2854 25.5787 59.3056 37.087 53.8034 45.8745C50.742 50.7607 47.0879 57.3455 46.8452 61.2749L28.3787 60.3416C28.3787 60.3416 29.7788 48.3619 26.358 41.5157C26.3767 41.5251 20.1045 30.7495 37.3063 25.2473Z" fill="#827397"/>
<path d="M38.3937 57.9522C38.3657 57.7421 37.7636 52.702 41.3151 50.5366L41.5577 50.9333C38.263 52.9447 38.851 57.8448 38.8557 57.8962L38.3937 57.9522Z" fill="white"/>
<path opacity="0.08" d="M47.4333 28.9667C47.4333 28.9667 39.6817 31.9208 43.2798 44.3671C45.1465 50.8493 28.4861 50.1446 28.4861 50.1446C28.4861 50.1446 28.7894 55.1194 28.6168 57.3828L37.101 57.8494L47.4333 58.5215L47.9373 57.0654L51.078 51.1526L51.372 43.4524L48.922 39.1636L47.4333 28.9667Z" fill="black"/>
<path d="M44.2738 57.9524C44.2458 57.7424 43.5832 52.5436 47.2186 50.5789L47.4333 50.9335C44.1432 52.9449 44.7265 57.8451 44.7359 57.8964L44.2738 57.9524Z" fill="white"/>
<path d="M28.6167 57.364L47.4752 58.358L52.5107 77.4592L25.252 76.4885L28.6167 57.364Z" fill="#24285B"/>
<path d="M45.7112 32.4342C45.677 31.5926 45.9082 30.7614 46.3721 30.0583C46.8359 29.3552 47.5091 28.8156 48.2963 28.5159C49.0835 28.2162 49.945 28.1714 50.7591 28.388C51.5731 28.6046 52.2985 29.0715 52.8327 29.7228C55.5046 32.9385 56.9191 37.0143 56.8135 41.1938C56.6595 52.3941 55.1521 64.4717 31.0435 51.2507L32.3409 47.7086C32.3409 47.7086 43.0418 52.8421 47.5126 51.1807C50.798 49.9534 46.0519 40.1111 45.7112 32.4342Z" fill="#F4A28C"/>
<path d="M32.3409 47.7085C32.3409 47.7085 28.3181 45.7952 26.61 47.7085C24.902 49.6219 27.6181 51.3253 31.0435 51.2506L32.3409 47.7085Z" fill="#F4A28C"/>
<path d="M36.6063 57.0283L50.3313 58.349L50.8773 75.0888L32.8122 74.0434L36.6063 57.0283Z" fill="#B9DBE6"/>
<path opacity="0.08" d="M36.6063 57.0283L50.3313 58.349L50.8773 75.0888L32.8122 74.0434L36.6063 57.0283Z" fill="black"/>
<path d="M39.6257 57.3176L52.1841 58.5543L54.3168 75.2614L36.2563 74.2207L39.6257 57.3176Z" fill="#B9DBE6"/>
<path d="M9.24074 26.7018L3.71021 28.4977L6.88116 38.2627L12.4117 36.4668L9.24074 26.7018Z" fill="#B9DBE6"/>
<path d="M43.0232 59.0348L42.6311 58.7828C42.6311 58.7408 45.2912 54.5827 43.7185 51.3533C43.47 50.9777 43.0879 50.7108 42.6498 50.6066C42.4389 50.5838 42.2256 50.6065 42.0243 50.6734C41.823 50.7402 41.6384 50.8495 41.4831 50.994L41.0491 50.7559C41.2642 50.5344 41.5267 50.3643 41.8168 50.2584C42.1069 50.1525 42.4172 50.1136 42.7245 50.1446C43.3029 50.275 43.8062 50.629 44.1245 51.1293C45.8232 54.6154 43.1352 58.8575 43.0232 59.0348Z" fill="white"/>
<path d="M48.474 59.3524L48.0819 59.1004C48.1099 59.0584 50.742 54.9003 49.174 51.6708C48.923 51.2956 48.5397 51.029 48.1006 50.9242C47.8604 50.8998 47.6178 50.9291 47.3902 51.0098C47.1627 51.0905 46.9558 51.2206 46.7846 51.3908L46.5046 51.0688C46.7192 50.8482 46.981 50.679 47.2704 50.5739C47.5597 50.4688 47.8691 50.4306 48.1753 50.4621C48.4624 50.525 48.734 50.6445 48.9744 50.8136C49.2148 50.9827 49.4191 51.1979 49.5753 51.4468C51.2787 54.9236 48.572 59.1704 48.474 59.3524Z" fill="white"/>
<path d="M0 9.26355V18.5971H6.03416L7.3502 22.3119L8.9089 18.5971H14.9431V9.26355H0Z" fill="#E6E6E6"/>
<path opacity="0.12" d="M6.7155 16.0164C6.64778 16.0141 6.58139 15.997 6.52095 15.9663C6.46051 15.9357 6.40746 15.8923 6.36549 15.8391L4.76944 13.8044C4.69333 13.7066 4.65917 13.5826 4.67448 13.4596C4.6898 13.3367 4.75333 13.2248 4.85111 13.1487C4.94889 13.0726 5.07291 13.0384 5.19587 13.0537C5.31884 13.069 5.43068 13.1326 5.5068 13.2304L6.74816 14.8264L9.80491 11.5223C9.84674 11.477 9.89712 11.4404 9.95316 11.4147C10.0092 11.389 10.0698 11.3747 10.1314 11.3725C10.193 11.3703 10.2544 11.3804 10.3122 11.4021C10.3699 11.4238 10.4227 11.4567 10.4676 11.499C10.5577 11.5833 10.6107 11.6999 10.6151 11.8232C10.6195 11.9465 10.5748 12.0665 10.4909 12.157L7.06084 15.8624C7.01721 15.9108 6.96394 15.9495 6.90446 15.976C6.84499 16.0025 6.78062 16.0163 6.7155 16.0164Z" fill="black"/>
<path opacity="0.52" d="M94.5445 67.7292H87.6983V70.0346H94.5445V67.7292Z" fill="white"/>
<path opacity="0.55" d="M129.657 78.1174H115.074V85.6636H129.657V78.1174Z" fill="#E6E6E6"/>
<path d="M136.774 85.6638H115.074V95.5248H136.774V85.6638Z" fill="#E6E6E6"/>
</svg>
