<svg width="124" height="111" viewBox="0 0 124 111" fill="none" xmlns="http://www.w3.org/2000/svg">
<path d="M42.2987 21.5019C42.2987 21.5019 50.9047 25.2628 57.5141 35.0134C64.1235 44.764 81.3227 41.5282 84.4768 26.5537C84.4768 26.5537 85.7677 19.5269 88.0655 19.8152C90.3633 20.1035 88.0655 25.1165 88.0655 25.1165C88.0655 25.1165 91.2196 25.2628 90.9313 27.6983C90.643 30.1338 86.7746 32.4316 86.7746 32.4316C86.7746 32.4316 80.0318 62.2687 47.1869 44.196L42.2987 21.5019Z" fill="#F4A28C"/>
<path opacity="0.45" d="M57.3635 110.66C89.0445 110.66 114.727 107.41 114.727 103.401C114.727 99.3921 89.0445 96.1421 57.3635 96.1421C25.6825 96.1421 0 99.3921 0 103.401C0 107.41 25.6825 110.66 57.3635 110.66Z" fill="#E6E6E6"/>
<path d="M37.703 10.0816C37.703 10.0816 42.5009 18.0981 37.0016 20.1593C31.5024 22.2204 31.7434 7.74939 31.7434 7.74939L37.703 10.0816Z" fill="#24285B"/>
<path d="M25.6976 18.1283C25.6976 18.1283 10.1637 25.2025 10.3358 36.3731C10.508 47.5437 22.2853 67.131 22.2853 67.131H47.3117V54.1747C47.3187 50.1784 48.1999 46.2321 49.8935 42.6125C52.4365 37.1476 53.8221 27.0398 36.7391 18.1283H25.6976Z" fill="#827397"/>
<path d="M28.6667 20.0345C28.6667 20.0345 34.8932 24.372 36.7478 18.1283H30.9947L28.6667 20.0345Z" fill="white"/>
<path d="M36.2357 4.24249C36.2357 4.24249 37.5911 7.11691 37.8235 9.27272C37.8682 9.6925 37.7448 10.1129 37.4803 10.4419C37.2158 10.7709 36.8317 10.9818 36.4121 11.0283C35.3235 11.1273 33.8303 10.9466 32.9095 9.49647L31.0592 7.22448C30.7358 6.73089 30.5738 6.14907 30.5954 5.5594C30.6169 4.96973 30.8211 4.40131 31.1797 3.93268C32.3931 2.10389 35.4999 2.45244 36.2357 4.24249Z" fill="#F4A28C"/>
<path d="M31.739 7.745L30.9946 18.1239L36.7435 18.1282L35.0179 10.7657L31.739 7.745Z" fill="#F4A28C"/>
<path d="M36.9974 6.09705L38.2538 6.93613C38.3246 6.98431 38.3823 7.04948 38.4214 7.12568C38.4605 7.20188 38.4798 7.28668 38.4777 7.3723C38.4756 7.45792 38.452 7.54164 38.4091 7.61579C38.3662 7.68994 38.3055 7.75216 38.2323 7.79674L37.1695 8.43358L36.9974 6.09705Z" fill="#F4A28C"/>
<path opacity="0.31" d="M35.0696 10.9724C34.3763 10.8511 33.7292 10.5431 33.1978 10.0817C33.1978 10.0817 32.8234 12.3278 35.5602 13.0938L35.0696 10.9724Z" fill="#CE8172"/>
<path d="M34.1358 5.77863L32.7933 6.23905C32.7933 6.23905 34.2606 11.9664 32.3242 16.9665C32.0235 17.6972 31.559 18.3491 30.9667 18.8721C30.3743 19.395 29.6698 19.7751 28.9075 19.9829C28.1451 20.1907 27.3452 20.2208 26.5694 20.0709C25.7936 19.9209 25.0625 19.5949 24.4325 19.118L23.2578 18.2574C22.9381 18.0201 22.6823 17.7072 22.5134 17.3467C22.3444 16.9862 22.2676 16.5894 22.2898 16.1919C22.312 15.7944 22.4325 15.4086 22.6405 15.0692C22.8485 14.7297 23.1375 14.4472 23.4815 14.247C25.6589 12.9561 27.9223 10.6582 27.5049 6.75111C27.0143 2.15119 31.1839 -0.624257 34.1875 0.120165C37.191 0.864586 37.0877 5.07293 34.1358 5.77863Z" fill="#24285B"/>
<path d="M33.6152 7.61595C33.6152 7.61595 33.1849 6.47995 32.3243 6.88444C31.4637 7.28892 32.1306 8.94128 33.3613 8.66158L33.6152 7.61595Z" fill="#F4A28C"/>
<path d="M28.6323 83.1899L32.1393 101.581L34.2865 100.66L34.2822 80.7673L28.6323 83.1899Z" fill="#F4A28C"/>
<path d="M44.6825 83.8741L53.4779 100.221H55.7284L50.7068 82.0754L44.6825 83.8741Z" fill="#F4A28C"/>
<path d="M32.1091 100.372C32.1091 100.372 30.8182 102.02 29.1486 101.938C27.4791 101.856 27.2467 104.206 29.9189 103.965C30.75 103.891 31.5734 103.747 32.3802 103.534C33.126 103.364 33.9035 103.392 34.635 103.616C34.7779 103.648 34.9271 103.636 35.063 103.581C35.1989 103.527 35.3152 103.432 35.3966 103.311C36.1539 102.42 34.2907 100.367 34.2907 100.367L32.1091 100.372Z" fill="#827397"/>
<path d="M93.7756 4.26836C93.7756 4.26836 94.4512 7.77962 97.0287 8.95864C99.6062 10.1377 98.1346 13.8813 94.2791 11.42C93.0766 10.6567 91.9408 9.79304 90.884 8.83816C89.8909 7.99412 88.6934 7.4258 87.4115 7.1901C87.1687 7.12884 86.9505 6.99444 86.7866 6.80511C86.6227 6.61578 86.5209 6.38066 86.495 6.13156C86.0647 4.1909 90.4752 2.54285 90.4752 2.54285L93.7756 4.26836Z" fill="#B9DBE6"/>
<path d="M55.7069 99.8985C55.7069 99.8985 56.6751 101.762 58.3231 101.994C59.9712 102.226 59.7689 104.576 57.1871 103.836C56.3767 103.61 55.5877 103.313 54.8291 102.949C54.1351 102.647 53.3741 102.531 52.6216 102.614C52.476 102.621 52.3316 102.584 52.2078 102.507C52.0839 102.43 51.9866 102.317 51.9288 102.183C51.6233 101.646 52.0966 100.927 52.613 100.368C52.8662 100.095 53.1847 99.8905 53.5385 99.7746C53.8923 99.6587 54.2698 99.6347 54.6354 99.7049L55.7069 99.8985Z" fill="#827397"/>
<path d="M20.0607 63.9509C20.0047 63.7314 18.7095 58.6066 22.0831 55.8914L22.3886 56.27C19.256 58.7916 20.5211 63.7745 20.534 63.8261L20.0607 63.9509Z" fill="white"/>
<path d="M26.115 63.1637C26.0591 62.9443 24.6778 57.6645 28.1719 55.1472L28.4429 55.4829C25.3103 58.0044 26.5711 62.9873 26.584 63.039L26.115 63.1637Z" fill="white"/>
<path d="M47.5069 45.7566L41.6669 41.8721L35.9474 50.4709L41.7874 54.3553L47.5069 45.7566Z" fill="#B9DBE6"/>
<path opacity="0.08" d="M24.5831 26.7472C24.5831 26.7472 32.69 33.5804 27.8879 41.541C23.0857 49.5015 24.5616 57.759 33.6152 55.8915L42.6515 54.0197C42.6515 54.0197 46.9545 61.3908 38.7788 62.7075L39.9449 67.131L21.0116 67.359L20.25 62.4493L16.8076 56.6574L8.78247 50.0093L24.5831 26.7472Z" fill="black"/>
<path d="M25.1124 28.886C25.0356 27.7456 24.6441 26.6489 23.9813 25.7178C23.3185 24.7867 22.4104 24.0577 21.3581 23.6118C20.3057 23.1658 19.1503 23.0205 18.0203 23.192C16.8903 23.3635 15.83 23.8449 14.9573 24.5829C11.6655 27.3584 8.2188 31.4678 6.88056 37.165C4.01045 49.3597 2.89167 59.9709 10.323 62.5528C17.7543 65.1346 37.8192 57.3891 37.8192 57.3891C37.8192 57.3891 44.0156 57.3891 44.4459 52.9441C44.8762 48.4991 38.6368 50.1773 36.9845 54.235C36.9845 54.235 12.7499 61.4082 15.8997 49.79C18.361 40.7838 25.702 37.3414 25.1124 28.886Z" fill="#F4A28C"/>
<path d="M101.026 11.9275H77.067V15.783H101.026V11.9275Z" fill="#24285B"/>
<path d="M88.884 31.5449L82.8696 29.2024L81.9326 31.6082L87.947 33.9507L88.884 31.5449Z" fill="#827397"/>
<path d="M22.2853 67.1309L26.8164 97.5532H39.6394L35.6978 78.8824C35.3241 77.113 35.5774 75.2688 36.4143 73.6657C37.2512 72.0627 38.6195 70.8005 40.2848 70.0956L47.3031 67.1309H22.2853Z" fill="#24285B"/>
<path d="M47.3117 67.1309L59.8076 97.5532H47.3117L36.9974 70.2979L47.3117 67.1309Z" fill="#24285B"/>
<path d="M16.8162 62.118L32.8665 61.5845L36.0034 80.8405L14.9831 82.3422L16.8162 62.118Z" fill="#B9DBE6"/>
<path opacity="0.08" d="M16.8162 62.118L32.8665 61.5845L36.0034 80.8405L14.9831 82.3422L16.8162 62.118Z" fill="black"/>
<path d="M20.349 62.0018L35.0395 61.5457L40.0052 80.5306L18.9849 82.028L20.349 62.0018Z" fill="#B9DBE6"/>
<path d="M24.9661 64.433L24.5358 64.2265C24.5573 64.1792 26.7217 59.5233 24.6649 56.3993C24.3564 56.046 23.9263 55.8218 23.46 55.7711C23.239 55.7766 23.0218 55.8294 22.8229 55.9259C22.624 56.0224 22.448 56.1603 22.3068 56.3305L21.8292 56.1411C22.0216 55.8841 22.2691 55.6734 22.5535 55.5245C22.838 55.3756 23.1521 55.2922 23.473 55.2805C23.7787 55.3104 24.0756 55.4002 24.3465 55.545C24.6175 55.6897 24.8573 55.8864 25.0522 56.1239C27.2682 59.4889 25.0608 64.2351 24.9661 64.433Z" fill="white"/>
<path d="M30.6418 64.0243L30.2115 63.8178C30.233 63.7705 32.3974 59.1146 30.3406 55.9906C30.0343 55.6346 29.603 55.4097 29.1357 55.3624C28.8856 55.3717 28.6406 55.4354 28.4176 55.5491C28.1947 55.6628 27.9992 55.8237 27.8448 56.0207L27.5135 55.7324C27.7064 55.4749 27.9546 55.2639 28.2398 55.1149C28.525 54.966 28.84 54.8829 29.1616 54.8718C29.7786 54.9277 30.3482 55.2265 30.7451 55.7023C32.9439 59.0802 30.7365 63.8221 30.6418 64.0243Z" fill="white"/>
<path d="M32.8019 10.3613C33.3913 10.3613 33.8691 9.88357 33.8691 9.2942C33.8691 8.70483 33.3913 8.22705 32.8019 8.22705C32.2125 8.22705 31.7348 8.70483 31.7348 9.2942C31.7348 9.88357 32.2125 10.3613 32.8019 10.3613Z" fill="#B9DBE6"/>
<path d="M89.0466 7.401H83.3623V11.9321H89.0466V7.401Z" fill="#827397"/>
<path d="M116.749 33.2835C116.749 33.2835 117.425 36.7948 120.007 37.9738C122.589 39.1528 121.113 42.8964 117.257 40.4351C116.053 39.6741 114.917 38.8102 113.862 37.8533C112.867 37.0093 111.668 36.441 110.385 36.2052C110.144 36.144 109.927 36.0101 109.763 35.8216C109.6 35.633 109.499 35.399 109.473 35.151C109.021 33.206 113.449 31.558 113.449 31.558L116.749 33.2835Z" fill="#827397"/>
<path opacity="0.53" d="M116.749 33.2835C116.749 33.2835 117.425 36.7948 120.007 37.9738C122.589 39.1528 121.113 42.8964 117.257 40.4351C116.053 39.6741 114.917 38.8102 113.862 37.8533C112.867 37.0093 111.668 36.441 110.385 36.2052C110.144 36.144 109.927 36.0101 109.763 35.8216C109.6 35.633 109.499 35.399 109.473 35.151C109.021 33.206 113.449 31.558 113.449 31.558L116.749 33.2835Z" fill="white"/>
<path d="M124 40.9429H100.041V44.7984H124V40.9429Z" fill="#24285B"/>
<path d="M112.02 36.416H106.336V40.9471H112.02V36.416Z" fill="#827397"/>
<path opacity="0.58" d="M72.579 69.2783C72.579 69.2783 68.6288 68.2197 67.7553 64.545C67.7553 64.545 73.8613 63.2842 74.0635 69.5924L72.579 69.2783Z" fill="#827397"/>
<path opacity="0.73" d="M73.0566 68.8866C73.0566 68.8866 70.2855 64.5406 72.6909 60.457C72.6909 60.457 77.351 63.3874 75.3114 68.8866H73.0566Z" fill="#827397"/>
<path d="M73.7709 68.8867C73.7709 68.8867 75.2038 64.2782 79.6015 63.3875C79.6015 63.3875 80.4406 66.3737 76.7744 68.8867H73.7709Z" fill="#827397"/>
<path d="M70.9094 68.7964L71.7313 74.2612H76.7658L77.4844 68.7964H70.9094Z" fill="#24285B"/>
<path d="M81.271 74.2612H67.1227V104.283H81.271V74.2612Z" fill="#C9C9C9"/>
<path d="M95.2559 93.7236H81.2711V97.8933H95.2559V93.7236Z" fill="#E6E6E6"/>
<path d="M99.2362 97.8889H81.2711V104.283H99.2362V97.8889Z" fill="#A5A5A5"/>
</svg>
