<svg width="24" height="24" viewBox="0 0 24 24" fill="none" xmlns="http://www.w3.org/2000/svg">
<path fill-rule="evenodd" clip-rule="evenodd" d="M5.88954 9.55621C7.16092 8.28484 9.15596 7 12 7C14.844 7 16.8391 8.28484 18.1105 9.55621C18.7446 10.1904 19.2019 10.8236 19.5013 11.2992C19.6513 11.5374 19.7625 11.7372 19.837 11.8796C19.8743 11.9508 19.9025 12.0078 19.9219 12.0481C19.9316 12.0682 19.9391 12.0842 19.9445 12.0957L19.9509 12.1097L19.9528 12.1141L19.9535 12.1156L19.9538 12.1162C19.9539 12.1165 19.954 12.1167 19.4667 12.3333C19.954 12.5499 19.9539 12.5502 19.9538 12.5504L19.9535 12.551L19.9528 12.5526L19.9509 12.557L19.9445 12.5709C19.9391 12.5825 19.9316 12.5985 19.9219 12.6186C19.9025 12.6589 19.8743 12.7158 19.837 12.7871C19.7625 12.9294 19.6513 13.1293 19.5013 13.3675C19.2019 13.8431 18.7446 14.4763 18.1105 15.1105C16.8391 16.3818 14.844 17.6667 12 17.6667C9.15596 17.6667 7.16092 16.3818 5.88954 15.1105C5.2554 14.4763 4.79812 13.8431 4.49868 13.3675C4.34869 13.1293 4.23754 12.9294 4.16297 12.7871C4.12567 12.7158 4.09746 12.6589 4.07806 12.6186C4.06836 12.5985 4.06086 12.5825 4.05552 12.5709L4.04914 12.557L4.04715 12.5526L4.04646 12.551L4.04619 12.5504C4.04607 12.5502 4.04597 12.5499 4.53333 12.3333C4.04597 12.1167 4.04607 12.1165 4.04619 12.1162L4.04646 12.1156L4.04715 12.1141L4.04914 12.1097L4.05552 12.0957C4.06086 12.0842 4.06836 12.0682 4.07806 12.0481C4.09746 12.0078 4.12567 11.9508 4.16297 11.8796C4.23754 11.7372 4.34869 11.5374 4.49868 11.2992C4.79812 10.8236 5.2554 10.1904 5.88954 9.55621ZM4.53333 12.3333L4.04597 12.1167C3.98468 12.2546 3.98468 12.412 4.04597 12.5499L4.53333 12.3333ZM5.12966 12.3333C5.1924 12.4509 5.28251 12.6105 5.40132 12.7992C5.66855 13.2236 6.07794 13.7904 6.64379 14.3562C7.77242 15.4848 9.51071 16.6 12 16.6C14.4893 16.6 16.2276 15.4848 17.3562 14.3562C17.9221 13.7904 18.3315 13.2236 18.5987 12.7992C18.7175 12.6105 18.8076 12.4509 18.8703 12.3333C18.8076 12.2158 18.7175 12.0562 18.5987 11.8675C18.3315 11.4431 17.9221 10.8763 17.3562 10.3105C16.2276 9.18183 14.4893 8.06667 12 8.06667C9.51071 8.06667 7.77242 9.18183 6.64379 10.3105C6.07794 10.8763 5.66855 11.4431 5.40132 11.8675C5.28251 12.0562 5.1924 12.2158 5.12966 12.3333ZM19.4667 12.3333L19.954 12.5499C20.0153 12.412 20.0153 12.2546 19.954 12.1167L19.4667 12.3333Z" fill="#2D3643"/>
<path fill-rule="evenodd" clip-rule="evenodd" d="M12 10.2C10.8218 10.2 9.86672 11.1551 9.86672 12.3333C9.86672 13.5115 10.8218 14.4667 12 14.4667C13.1783 14.4667 14.1334 13.5115 14.1334 12.3333C14.1334 11.1551 13.1783 10.2 12 10.2ZM8.80005 12.3333C8.80005 10.566 10.2327 9.13334 12 9.13334C13.7674 9.13334 15.2 10.566 15.2 12.3333C15.2 14.1006 13.7674 15.5333 12 15.5333C10.2327 15.5333 8.80005 14.1006 8.80005 12.3333Z" fill="#2D3643"/>
</svg>
