<svg width="42" height="40" viewBox="0 0 42 40" fill="none" xmlns="http://www.w3.org/2000/svg">
<path d="M21.8876 0.0592393C21.9491 0.0670747 22.0111 0.0708894 22.0731 0.0706593H28.6283C28.6789 0.0704857 28.7294 0.0676266 28.7796 0.0620941C29.5922 -0.0260786 30.4123 -0.0203305 31.2235 0.0792245C32.3107 0.131418 33.3714 0.432247 34.3241 0.958576C36.1228 1.77512 37.6931 3.09129 38.8122 4.81288C39.8429 6.39528 40.4259 8.22723 40.4993 10.1143C40.5727 12.0013 40.1338 13.873 39.2291 15.5307L30.0501 6.23469C29.9171 6.10049 29.7588 5.99404 29.5843 5.92151C29.4098 5.84898 29.2227 5.8118 29.0337 5.81214H25.2337C24.9225 5.81172 24.6197 5.91298 24.3714 6.1005L18.2388 10.7456C17.8639 11.0288 17.4309 11.2256 16.971 11.3218C16.511 11.418 16.0355 11.4113 15.5785 11.3022C15.1214 11.193 14.6942 10.9842 14.3274 10.6905C13.9605 10.3968 13.6632 10.0257 13.4566 9.60363C13.1405 8.95158 13.0605 8.21001 13.2302 7.50551C13.3999 6.80102 13.8089 6.17728 14.3874 5.74077L21.8904 0.0592393H21.8876ZM10.476 25.3406L10.436 25.3777L8.25761 27.5475L8.2205 27.5818C7.89562 27.8843 7.46632 28.0494 7.02247 28.0425C6.57863 28.0355 6.15468 27.8572 5.83939 27.5447C5.68082 27.3875 5.55495 27.2005 5.46905 26.9945C5.38315 26.7884 5.33892 26.5674 5.33892 26.3441C5.33892 26.1209 5.38315 25.8999 5.46905 25.6938C5.55495 25.4877 5.68082 25.3007 5.83939 25.1436L8.02064 22.9766C8.17925 22.8175 8.36769 22.6913 8.57518 22.6052C8.78266 22.519 9.0051 22.4747 9.22975 22.4747C9.4544 22.4747 9.67684 22.519 9.88433 22.6052C10.0918 22.6913 10.2803 22.8175 10.4389 22.9766C11.0955 23.6276 11.1069 24.6754 10.476 25.3406ZM10.2447 29.5946C9.61661 30.2598 9.62803 31.3076 10.2818 31.9586C10.6033 32.2778 11.0379 32.457 11.4909 32.457C11.944 32.457 12.3786 32.2778 12.7 31.9586L14.8813 29.7916C15.0603 29.6142 15.1973 29.399 15.2823 29.1618C15.3674 28.9246 15.3983 28.6713 15.3728 28.4206C15.3474 28.1699 15.2662 27.9281 15.1352 27.7128C15.0042 27.4975 14.8267 27.3142 14.6158 27.1764C14.2945 26.9654 13.9119 26.8682 13.5289 26.9003C13.1459 26.9324 12.7847 27.0919 12.5031 27.3534L12.4631 27.3905L10.2847 29.5575L10.2447 29.5946V29.5946ZM5.09994 19.4535C5.25851 19.6107 5.38438 19.7977 5.47028 20.0037C5.55618 20.2098 5.60041 20.4308 5.60041 20.6541C5.60041 20.8773 5.55618 21.0983 5.47028 21.3044C5.38438 21.5105 5.25851 21.6975 5.09994 21.8546L2.91869 24.0216C2.59725 24.3408 2.16261 24.52 1.70958 24.52C1.25656 24.52 0.821914 24.3408 0.500472 24.0216C0.341898 23.8644 0.216027 23.6774 0.130127 23.4714C0.0442269 23.2653 0 23.0443 0 22.821C0 22.5978 0.0442269 22.3767 0.130127 22.1707C0.216027 21.9646 0.341898 21.7776 0.500472 21.6205L2.68172 19.4507C3.00316 19.1314 3.4378 18.9523 3.89083 18.9523C4.34385 18.9523 4.7785 19.1314 5.09994 19.4507V19.4535ZM19.3237 31.8044C19.4823 31.9615 19.6082 32.1486 19.6941 32.3546C19.78 32.5607 19.8242 32.7817 19.8242 33.005C19.8242 33.2282 19.78 33.4492 19.6941 33.6553C19.6082 33.8614 19.4823 34.0484 19.3237 34.2055L17.1425 36.3753C16.8207 36.6939 16.3862 36.8725 15.9334 36.8725C15.4806 36.8725 15.0461 36.6939 14.7243 36.3753C14.4527 36.1064 14.2802 35.7533 14.2351 35.3738C14.19 34.9942 14.2749 34.6105 14.4759 34.2854L14.4844 34.274C14.5526 34.1643 14.6331 34.0628 14.7243 33.9714L16.9055 31.8044C17.227 31.4852 17.6616 31.306 18.1146 31.306C18.5677 31.306 19.0023 31.4852 19.3237 31.8044V31.8044ZM4.47754 4.0306C6.06531 2.45434 8.01753 1.29429 10.1611 0.653321C12.3046 0.012352 14.5732 -0.0897178 16.7656 0.356164L12.6629 3.4653C12.0341 3.94179 11.5056 4.53788 11.1079 5.21931C10.7101 5.90073 10.451 6.65405 10.3454 7.43595C10.2398 8.21785 10.2898 9.01291 10.4925 9.77542C10.6953 10.5379 11.0467 11.2529 11.5266 11.8791C12.4974 13.1454 13.9297 13.9762 15.5109 14.1901C17.0921 14.4041 18.6937 13.9838 19.9661 13.0211L25.7162 8.66718H28.3114L33.8445 14.1631L33.8559 14.1489L38.4468 18.7997C38.4689 18.8223 38.4918 18.8442 38.5153 18.8654L40.9849 21.335C41.5082 21.8644 41.8089 22.5741 41.8252 23.3183C41.8415 24.0625 41.5722 24.7847 41.0726 25.3365C40.573 25.8884 39.8811 26.2279 39.1389 26.2855C38.3968 26.3431 37.6608 26.1143 37.0821 25.6461L36.8737 25.4405C36.8255 25.3922 36.774 25.3473 36.7195 25.3063L34.2927 22.8796C34.025 22.6115 33.6618 22.4608 33.283 22.4605C32.9042 22.4602 32.5408 22.6105 32.2728 22.8781C32.0047 23.1458 31.854 23.509 31.8537 23.8878C31.8534 24.2666 32.0037 24.63 32.2713 24.8981L34.8466 27.4733C34.9437 27.5704 35.0464 27.6617 35.1464 27.7503L35.232 27.8359C35.6023 28.2058 35.8105 28.7076 35.8107 29.231C35.811 29.7544 35.6033 30.2564 35.2334 30.6267C34.8635 30.997 34.3617 31.2051 33.8383 31.2054C33.315 31.2057 32.8129 30.998 32.4426 30.6281L32.0629 30.2513C31.8621 30.051 31.6062 29.9151 31.3278 29.8609C31.0494 29.8067 30.7612 29.8367 30.4999 29.947C30.2386 30.0572 30.0161 30.2428 29.8608 30.4801C29.7054 30.7173 29.6242 30.9955 29.6276 31.2791C29.6236 31.471 29.6585 31.6617 29.7302 31.8398C29.8018 32.0179 29.9087 32.1797 30.0444 32.3155L30.544 32.8151C30.7114 32.9825 30.8442 33.1812 30.9348 33.4C31.0254 33.6187 31.0721 33.8531 31.0721 34.0899C31.0721 34.3266 31.0254 34.561 30.9348 34.7798C30.8442 34.9985 30.7114 35.1972 30.544 35.3646C30.3766 35.532 30.1779 35.6648 29.9592 35.7554C29.7404 35.846 29.506 35.8927 29.2693 35.8927C29.0325 35.8927 28.7981 35.846 28.5794 35.7554C28.3606 35.6648 28.1619 35.532 27.9945 35.3646L27.7404 35.1077C27.6542 35.0058 27.5637 34.9077 27.4692 34.8136L27.0038 34.3482C26.7346 34.0882 26.374 33.9443 25.9997 33.9476C25.6254 33.9508 25.2673 34.101 25.0027 34.3656C24.738 34.6303 24.5879 34.9883 24.5846 35.3626C24.5814 35.7369 24.7252 36.0975 24.9853 36.3668L25.3336 36.7151C25.3779 36.7739 25.4256 36.8301 25.4763 36.8835L25.6162 37.0206C25.901 37.39 26.0357 37.8534 25.9933 38.3179C25.951 38.7825 25.7347 39.2139 25.3878 39.5257C25.0409 39.8376 24.5891 40.0069 24.1227 39.9998C23.6562 39.9927 23.2097 39.8096 22.8726 39.4873L20.4029 37.1605L21.3508 36.2183C21.775 35.7978 22.1117 35.2975 22.3415 34.7463C22.5713 34.195 22.6896 33.6036 22.6896 33.0064C22.6896 32.4091 22.5713 31.8178 22.3415 31.2665C22.1117 30.7152 21.775 30.2149 21.3508 29.7945C20.5232 28.9707 19.4118 28.4947 18.2445 28.464C18.2126 27.3025 17.734 26.1981 16.9084 25.3806C16.0816 24.5572 14.9713 24.0813 13.8049 24.0501C13.7723 22.8882 13.2926 21.7838 12.4659 20.9667C11.9366 20.4402 11.2867 20.0508 10.5727 19.8324C9.85877 19.614 9.1023 19.5731 8.36896 19.7133C8.18585 18.8507 7.75409 18.0607 7.12702 17.4407C6.32258 16.6443 5.25255 16.1727 4.12198 16.1164C2.9914 16.06 1.87977 16.4228 1.0001 17.1352C0.362595 14.8385 0.349292 12.4133 0.961568 10.1098C1.57384 7.80621 2.78953 5.70767 4.48325 4.0306H4.47754Z" fill="url(#paint0_linear_988_2296)"/>
<defs>
<linearGradient id="paint0_linear_988_2296" x1="20.9129" y1="0" x2="20.9129" y2="40" gradientUnits="userSpaceOnUse">
<stop stop-color="#F9F9F9"/>
<stop offset="1" stop-color="#F9F9F9" stop-opacity="0.5"/>
</linearGradient>
</defs>
</svg>
