<svg width="24" height="24" viewBox="0 0 24 24" fill="none" xmlns="http://www.w3.org/2000/svg">
<path d="M19.3333 5.66667H16V5C15.9978 4.47024 15.7864 3.96281 15.4118 3.58821C15.0372 3.21361 14.5298 3.00219 14 3H10C9.47024 3.00219 8.96281 3.21361 8.58821 3.58821C8.21361 3.96281 8.00219 4.47024 8 5V5.66667H4.66667C4.48986 5.66667 4.32029 5.7369 4.19526 5.86193C4.07024 5.98695 4 6.15652 4 6.33333C4 6.51014 4.07024 6.67971 4.19526 6.80474C4.32029 6.92976 4.48986 7 4.66667 7H5.33333V19C5.33333 19.3536 5.47381 19.6928 5.72386 19.9428C5.97391 20.1929 6.31304 20.3333 6.66667 20.3333H17.3333C17.687 20.3333 18.0261 20.1929 18.2761 19.9428C18.5262 19.6928 18.6667 19.3536 18.6667 19V7H19.3333C19.5101 7 19.6797 6.92976 19.8047 6.80474C19.9298 6.67971 20 6.51014 20 6.33333C20 6.15652 19.9298 5.98695 19.8047 5.86193C19.6797 5.7369 19.5101 5.66667 19.3333 5.66667ZM10.6667 15.6667C10.6667 15.8435 10.5964 16.013 10.4714 16.1381C10.3464 16.2631 10.1768 16.3333 10 16.3333C9.82319 16.3333 9.65362 16.2631 9.5286 16.1381C9.40357 16.013 9.33333 15.8435 9.33333 15.6667V10.3333C9.33333 10.1565 9.40357 9.98695 9.5286 9.86193C9.65362 9.73691 9.82319 9.66667 10 9.66667C10.1768 9.66667 10.3464 9.73691 10.4714 9.86193C10.5964 9.98695 10.6667 10.1565 10.6667 10.3333V15.6667ZM14.6667 15.6667C14.6667 15.8435 14.5964 16.013 14.4714 16.1381C14.3464 16.2631 14.1768 16.3333 14 16.3333C13.8232 16.3333 13.6536 16.2631 13.5286 16.1381C13.4036 16.013 13.3333 15.8435 13.3333 15.6667V10.3333C13.3333 10.1565 13.4036 9.98695 13.5286 9.86193C13.6536 9.73691 13.8232 9.66667 14 9.66667C14.1768 9.66667 14.3464 9.73691 14.4714 9.86193C14.5964 9.98695 14.6667 10.1565 14.6667 10.3333V15.6667ZM14.6667 5.66667H9.33333V5C9.33333 4.82319 9.40357 4.65362 9.5286 4.5286C9.65362 4.40357 9.82319 4.33333 10 4.33333H14C14.1768 4.33333 14.3464 4.40357 14.4714 4.5286C14.5964 4.65362 14.6667 4.82319 14.6667 5V5.66667Z" fill="#F9F9F9"/>
</svg>
