<svg width="24" height="24" viewBox="0 0 24 24" fill="none" xmlns="http://www.w3.org/2000/svg">
<path d="M19.6174 8.01856L16.014 4.40705C15.7713 4.15825 15.4421 4.01258 15.0948 4.00034C14.9186 3.99629 14.7433 4.02808 14.5797 4.0938C14.4161 4.15951 14.2676 4.25778 14.1431 4.38264L11.9958 6.5219L4.3823 14.1435C4.26102 14.2638 4.16479 14.407 4.09917 14.5648C4.03356 14.7226 3.99985 14.8918 4 15.0626V18.6986C4 19.0437 4.13712 19.3747 4.38119 19.6188C4.62525 19.8629 4.95628 20 5.30145 20H8.93736C9.28212 19.9985 9.61239 19.8612 9.85651 19.6177L19.6174 9.85685C19.8588 9.61184 19.9941 9.28168 19.9941 8.93771C19.9941 8.59374 19.8588 8.26357 19.6174 8.01856ZM17.0145 10.6215L13.3785 6.98554L15.0623 5.30179L18.6982 8.93771L17.0145 10.6215Z" fill="#F9F9F9"/>
</svg>
