<svg width="16" height="16" viewBox="0 0 16 16" fill="none" xmlns="http://www.w3.org/2000/svg">
<path d="M16 8.00241C15.996 9.96921 15.2786 11.8669 13.9825 13.3392C12.6864 14.8115 10.9007 15.7571 8.96078 15.9984C8.91749 16.0027 8.87378 15.9979 8.83241 15.9844C8.79105 15.9709 8.75291 15.9489 8.72039 15.9198C8.68788 15.8907 8.6617 15.8552 8.64349 15.8154C8.62528 15.7757 8.61544 15.7326 8.61459 15.6888V9.86016H10.4609C10.5451 9.86032 10.6284 9.84312 10.7057 9.80961C10.783 9.77609 10.8526 9.72698 10.9103 9.66532C10.968 9.60365 11.0125 9.53074 11.0411 9.45108C11.0696 9.37143 11.0817 9.28672 11.0764 9.20221C11.0628 9.04208 10.9893 8.89311 10.8708 8.78537C10.7523 8.67762 10.5976 8.61912 10.4379 8.62166H8.61459V6.76392C8.61459 6.43545 8.74427 6.12043 8.97511 5.88817C9.20595 5.65591 9.51903 5.52542 9.84549 5.52542H11.0764C11.1606 5.52559 11.2439 5.50838 11.3212 5.47487C11.3984 5.44136 11.4681 5.39225 11.5258 5.33059C11.5835 5.26892 11.6279 5.19601 11.6565 5.11635C11.6851 5.03669 11.6971 4.95199 11.6918 4.86747C11.6782 4.70735 11.6048 4.55838 11.4862 4.45063C11.3677 4.34289 11.213 4.28438 11.0533 4.28693H9.84549C9.19258 4.28693 8.56641 4.5479 8.10473 5.01242C7.64305 5.47695 7.38369 6.10698 7.38369 6.76392V8.62166H5.53733C5.45317 8.6215 5.36987 8.6387 5.29257 8.67221C5.21528 8.70572 5.14564 8.75483 5.08796 8.8165C5.03028 8.87816 4.98578 8.95108 4.95721 9.03073C4.92865 9.11039 4.91662 9.19509 4.92188 9.27961C4.9355 9.43974 5.00897 9.5887 5.12748 9.69645C5.24599 9.8042 5.40071 9.8627 5.56041 9.86016H7.38369V15.6888C7.3839 15.7322 7.37505 15.7752 7.35769 15.8149C7.34034 15.8547 7.31488 15.8903 7.28296 15.9195C7.25104 15.9487 7.21338 15.9708 7.17242 15.9844C7.13146 15.998 7.08811 16.0028 7.04519 15.9984C2.98321 15.503 -0.155589 11.9501 0.00596657 7.70053C0.0966556 5.60189 0.999037 3.62203 2.52049 2.18358C4.04195 0.745125 6.06196 -0.037981 8.14934 0.00141773C10.2367 0.0408165 12.2261 0.899599 13.6929 2.39446C15.1597 3.88931 15.9876 5.90182 16 8.00241Z" fill="#F9F9F9"/>
</svg>
