<svg width="25" height="24" viewBox="0 0 25 24" fill="none" xmlns="http://www.w3.org/2000/svg">
<path d="M18.6736 12.475L15.7569 15.975C15.6503 16.0973 15.5086 16.1659 15.3611 16.1667C15.2896 16.1669 15.2187 16.1499 15.1528 16.1167C15.0504 16.067 14.9626 15.9817 14.9008 15.8719C14.8389 15.762 14.8058 15.6326 14.8056 15.5V12.6667H10.5C10.3527 12.6667 10.2113 12.5964 10.1072 12.4714C10.003 12.3464 9.94444 12.1768 9.94444 12C9.94444 11.8232 10.003 11.6536 10.1072 11.5286C10.2113 11.4036 10.3527 11.3333 10.5 11.3333H14.8056V8.5C14.8058 8.36743 14.8389 8.23796 14.9008 8.12811C14.9626 8.01827 15.0504 7.93305 15.1528 7.88333C15.2542 7.83499 15.3651 7.82264 15.4722 7.84776C15.5793 7.87287 15.6781 7.93439 15.7569 8.025L18.6736 11.525C18.7779 11.6514 18.8365 11.8221 18.8365 12C18.8365 12.1779 18.7779 12.3486 18.6736 12.475ZM10.5 18.6667H6.61111V5.33333H10.5C10.6473 5.33333 10.7887 5.2631 10.8928 5.13807C10.997 5.01305 11.0556 4.84348 11.0556 4.66667C11.0556 4.48986 10.997 4.32029 10.8928 4.19526C10.7887 4.07024 10.6473 4 10.5 4H6.61111C6.31643 4 6.03381 4.14048 5.82544 4.39052C5.61706 4.64057 5.5 4.97971 5.5 5.33333V18.6667C5.5 19.0203 5.61706 19.3594 5.82544 19.6095C6.03381 19.8595 6.31643 20 6.61111 20H10.5C10.6473 20 10.7887 19.9298 10.8928 19.8047C10.997 19.6797 11.0556 19.5101 11.0556 19.3333C11.0556 19.1565 10.997 18.987 10.8928 18.8619C10.7887 18.7369 10.6473 18.6667 10.5 18.6667Z" fill="#F9F9F9"/>
</svg>
