<svg width="24" height="24" viewBox="0 0 24 24" fill="none" xmlns="http://www.w3.org/2000/svg">
<path d="M14.0741 4C13.1387 4.00113 12.2168 4.2234 11.3837 4.64867C10.5506 5.07394 9.82978 5.69016 9.28016 6.44705C8.73055 7.20394 8.36767 8.08006 8.22115 9.00391C8.07463 9.92775 8.1486 10.8732 8.43705 11.763L4.17038 16.0222C4.06032 16.1351 3.99912 16.2868 4.00001 16.4444V19.4074C4.00001 19.5646 4.06244 19.7153 4.17358 19.8264C4.28471 19.9376 4.43544 20 4.5926 20H7.55557C7.71273 20 7.86346 19.9376 7.97459 19.8264C8.08572 19.7153 8.14816 19.5646 8.14816 19.4074V18.2222H9.33334C9.49051 18.2222 9.64124 18.1598 9.75237 18.0487C9.8635 17.9375 9.92594 17.7868 9.92594 17.6296V16.4444H11.1111C11.2688 16.4453 11.4205 16.3841 11.5333 16.2741L12.237 15.563C13.0514 15.827 13.9132 15.9114 14.7633 15.8105C15.6134 15.7096 16.4315 15.4257 17.1614 14.9784C17.8913 14.531 18.5155 13.9309 18.9913 13.2192C19.467 12.5075 19.7829 11.7012 19.9172 10.8557C20.0515 10.0103 20.0011 9.14576 19.7694 8.32168C19.5376 7.49759 19.1301 6.7335 18.5748 6.08198C18.0195 5.43046 17.3296 4.90698 16.5527 4.54757C15.7757 4.18817 14.9301 4.00136 14.0741 4ZM15.5556 9.62963C15.3212 9.62963 15.092 9.56012 14.8971 9.42989C14.7022 9.29966 14.5503 9.11456 14.4606 8.89799C14.3709 8.68143 14.3474 8.44313 14.3932 8.21323C14.4389 7.98332 14.5518 7.77214 14.7175 7.60639C14.8833 7.44064 15.0944 7.32776 15.3243 7.28203C15.5542 7.2363 15.7926 7.25977 16.0091 7.34948C16.2257 7.43918 16.4108 7.59109 16.541 7.78599C16.6712 7.98089 16.7408 8.21004 16.7408 8.44444C16.7408 8.75878 16.6159 9.06023 16.3936 9.2825C16.1714 9.50476 15.8699 9.62963 15.5556 9.62963Z" fill="#2D3643"/>
</svg>
