<svg width="16" height="16" viewBox="0 0 16 16" fill="none" xmlns="http://www.w3.org/2000/svg">
<path d="M8.00086 2.30592e-08C6.61143 -0.000105453 5.24593 0.361637 4.0388 1.04961C2.83167 1.73758 1.82453 2.72807 1.11654 3.92354C0.40855 5.11902 0.0241191 6.47826 0.00109842 7.86745C-0.0219222 9.25664 0.317261 10.6279 0.985254 11.8462L0.331387 14.1538C0.27039 14.3641 0.266961 14.5869 0.321459 14.799C0.375957 15.0111 0.486383 15.2046 0.64121 15.3594C0.796036 15.5142 0.989586 15.6247 1.20165 15.6792C1.41372 15.7337 1.63653 15.7302 1.84682 15.6692L4.15458 15.0154C5.22407 15.6015 6.41341 15.9354 7.63171 15.9915C8.85 16.0476 10.065 15.8245 11.1838 15.3391C12.3027 14.8537 13.2957 14.119 14.0871 13.191C14.8784 12.2631 15.4472 11.1665 15.7498 9.98509C16.0524 8.80368 16.0809 7.56873 15.8331 6.37462C15.5854 5.1805 15.0678 4.05885 14.3201 3.09538C13.5724 2.1319 12.6143 1.35213 11.5191 0.815642C10.4238 0.279158 9.22044 0.000168929 8.00086 2.30592e-08ZM9.85476 12.9231H9.84707C8.05099 12.921 6.32918 12.2061 5.05988 10.9354C3.79059 9.66475 3.07763 7.94217 3.07763 6.14615C3.07966 5.41304 3.37233 4.71065 3.89146 4.19298C4.41058 3.67531 5.11381 3.38461 5.84694 3.38462C6.04847 3.38506 6.24632 3.43862 6.42054 3.53991C6.59476 3.6412 6.7392 3.78663 6.83928 3.96154L7.73931 5.53846C7.848 5.72732 7.90392 5.94192 7.90122 6.1598C7.89851 6.37768 7.83728 6.59083 7.72393 6.77692L7.17775 7.69231C7.45238 8.15927 7.84158 8.54846 8.30856 8.82308L9.22397 8.27692C9.41007 8.16358 9.62323 8.10234 9.84111 8.09964C10.059 8.09693 10.2736 8.15285 10.4625 8.26154L12.0394 9.16154C12.2144 9.26162 12.3598 9.40605 12.4611 9.58027C12.5624 9.75448 12.6159 9.95233 12.6164 10.1538C12.6164 10.887 12.3257 11.5902 11.808 12.1093C11.2903 12.6284 10.5879 12.921 9.85476 12.9231Z" fill="#F9F9F9"/>
<path d="M8.65471 10.0538C8.56911 10.1039 8.47281 10.1328 8.37381 10.1381C8.2748 10.1435 8.17595 10.1251 8.08546 10.0846C7.11814 9.65587 6.34489 8.88265 5.91616 7.91536C5.87563 7.82487 5.85727 7.72602 5.86262 7.62702C5.86798 7.52801 5.89688 7.43171 5.94693 7.34613L6.67003 6.14613L5.80077 4.61536C5.40148 4.62539 5.02192 4.79109 4.7431 5.07708C4.46428 5.36308 4.30829 5.74672 4.30842 6.14613C4.3074 6.87409 4.44992 7.59512 4.72781 8.26797C5.0057 8.94081 5.41351 9.55227 5.92792 10.0674C6.44233 10.5825 7.05325 10.9911 7.72573 11.27C8.39821 11.5488 9.11906 11.6923 9.84705 11.6923H9.85474C10.2542 11.6924 10.6378 11.5364 10.9238 11.2576C11.2098 10.9788 11.3755 10.5993 11.3856 10.2L9.85474 9.33074L8.65471 10.0538Z" fill="#F9F9F9"/>
</svg>
