<svg width="310" height="356" viewBox="0 0 310 356" fill="none" xmlns="http://www.w3.org/2000/svg">
<path opacity="0.25" d="M86.647 57.2193C77.9677 70.0745 75.4294 87.2619 63.4824 97.162C55.9643 103.415 45.96 105.588 37.2212 109.98C16.5874 120.334 3.79917 144.355 6.67986 167.229C7.96017 177.405 12.0244 187.238 11.8904 197.495C11.6746 212.308 2.77195 225.647 0.553741 240.303C-2.58004 261.064 8.04205 281.482 20.9419 298.059C28.5865 307.877 37.705 317.345 49.5702 321.134C59.3362 324.238 69.869 323.136 80.0891 323.747C101.274 324.997 121.245 333.595 141.909 338.47C162.572 343.346 186.176 343.897 203.006 330.96C210.725 325.005 216.546 316.549 225.218 312.097C231.954 308.643 239.718 307.974 247.229 307.036C267.84 304.475 290.089 298.141 301.568 280.834C309.912 268.247 310.872 252.102 308.952 237.125C307.031 222.148 302.535 207.574 300.935 192.56C297.265 158.103 308.996 123.386 305.319 88.9367C303.689 73.7666 298.702 58.2912 287.626 47.7808C273.096 33.9505 251.397 31.4048 231.352 30.8167C207.673 30.1542 183.98 31.3154 160.324 32.4766C135.224 33.7048 102.249 34.1143 86.647 57.2193Z" fill="#4D4C7D"/>
<path d="M99.5543 151.054L101.542 140.052C101.542 140.052 102.174 137.41 100.552 136.807C98.9291 136.204 90.6145 134.812 90.6145 134.812C90.6145 134.812 88.8653 135.296 88.9695 136.487C89.0737 137.678 85.8134 158.133 85.8134 158.133C85.8134 158.133 85.8804 158.751 86.8629 159.346C87.8455 159.942 95.2445 160.649 95.2445 160.649C95.2445 160.649 97.3436 159.793 97.552 159.346C97.7604 158.9 99.5543 151.054 99.5543 151.054Z" fill="#4D4C7D"/>
<path d="M99.5543 151.054L101.542 140.052C101.542 140.052 102.174 137.41 100.552 136.807C98.9291 136.204 90.6145 134.812 90.6145 134.812C90.6145 134.812 88.8653 135.296 88.9695 136.487C89.0737 137.678 85.8134 158.133 85.8134 158.133C85.8134 158.133 85.8804 158.751 86.8629 159.346C87.8455 159.942 95.2445 160.649 95.2445 160.649C95.2445 160.649 97.3436 159.793 97.552 159.346C97.7604 158.9 99.5543 151.054 99.5543 151.054Z" fill="url(#paint0_linear_122_961)"/>
<path d="M47.6944 158.215C47.6944 158.215 30.574 179.444 28.8545 197.324C27.135 215.203 38.4568 233.381 38.4568 233.381H47.6944L45.6176 207.105L47.6944 158.215Z" fill="#4D4C7D"/>
<path d="M47.6944 158.215C47.6944 158.215 30.574 179.444 28.8545 197.324C27.135 215.203 38.4568 233.381 38.4568 233.381H47.6944L45.6176 207.105L47.6944 158.215Z" fill="url(#paint1_linear_122_961)"/>
<path opacity="0.28" d="M40.2433 175.03C40.2433 175.03 30.8718 188.63 32.3456 204.976C33.8194 221.322 39.9828 228.051 39.9828 228.051L41.9851 222.595L40.2433 175.03Z" fill="url(#paint2_linear_122_961)"/>
<path d="M98.6834 150.697L100.701 139.695C100.701 139.695 101.333 137.052 99.7106 136.45C98.0879 135.847 89.7659 134.455 89.7659 134.455C89.7659 134.455 88.0241 134.938 88.1283 136.129C88.2325 137.32 84.9201 157.753 84.9201 157.753C84.9201 157.753 84.9871 158.371 85.9697 158.967C86.9522 159.562 94.3512 160.269 94.3512 160.269C94.3512 160.269 96.4429 159.413 96.6587 158.967C96.8746 158.52 98.6834 150.697 98.6834 150.697Z" fill="#4D4C7D"/>
<path d="M97.8869 149.699L99.6064 140.201C99.6064 140.201 100.15 137.916 98.7504 137.395C97.351 136.874 90.1678 135.668 90.1678 135.668C90.1678 135.668 88.6791 136.092 88.7461 137.119C88.8131 138.147 85.9994 155.825 85.9994 155.825C85.9994 155.825 86.0589 156.354 86.9075 156.875C87.7561 157.396 94.1502 157.991 94.1502 157.991C94.1502 157.991 95.959 157.247 96.1376 156.875C96.3163 156.503 97.8869 149.699 97.8869 149.699Z" fill="url(#paint3_linear_122_961)"/>
<path d="M40.1837 327.997C41.1365 332.835 40.8686 338.031 43.2803 342.333C45.5655 343.078 46.9053 339.825 47.0989 337.436L52.704 268.083C53.1729 262.284 47.7763 257.774 42.2828 261.317C37.2435 264.562 38.628 273.048 38.6429 278.013C38.6876 294.716 34.4075 298.624 40.1837 327.997Z" fill="url(#paint4_linear_122_961)"/>
<path d="M60.3411 326.091C60.8324 330.558 61.3609 335.18 63.3186 339.267C63.5866 339.84 63.9587 340.45 64.5766 340.584C65.7378 340.822 66.363 339.282 66.5119 338.113C69.0776 318.024 70.4595 297.802 70.6506 277.551C70.6506 273.539 70.6059 269.259 68.4175 265.909C66.229 262.56 58.8896 260.215 55.8452 263.766C52.8007 267.316 55.8452 278.765 56.2397 283.03C57.4158 297.396 58.7829 311.75 60.3411 326.091Z" fill="url(#paint5_linear_122_961)"/>
<path d="M258.067 0H156.789C137.8 0 122.406 15.3934 122.406 34.3822V256.672C122.406 275.661 137.8 291.054 156.789 291.054H258.067C277.056 291.054 292.449 275.661 292.449 256.672V34.3822C292.449 15.3934 277.056 0 258.067 0Z" fill="#4D4C7D"/>
<path d="M253.437 9.02171H162.483C145.435 9.02171 131.614 22.8422 131.614 39.8905V239.499C131.614 256.548 145.435 270.368 162.483 270.368H253.437C270.485 270.368 284.306 256.548 284.306 239.499V39.8905C284.306 22.8422 270.485 9.02171 253.437 9.02171Z" fill="url(#paint6_linear_122_961)"/>
<path opacity="0.25" d="M170.909 66.8365C170.068 68.6244 169.002 70.2978 167.738 71.8163C165.215 74.6003 161.523 75.9922 158.597 78.3444C155.672 80.6966 153.513 84.9841 155.531 88.1477C156.506 89.6736 158.24 90.5594 159.386 91.9588C162.446 95.6807 160.399 101.323 161.389 106.05C162.535 111.476 167.954 115.324 173.477 115.726C179 116.128 184.434 113.657 188.662 110.077C190.149 108.674 191.72 107.364 193.367 106.154C195.041 105.06 196.932 104.323 198.577 103.221C200.431 101.968 201.959 100.292 203.036 98.3306C204.113 96.3696 204.707 94.1803 204.77 91.944C204.822 89.4429 204.19 86.9865 204.026 84.5003C203.728 80.7785 204.391 77.0567 203.952 73.3348C203.512 69.613 201.584 65.7125 198.041 64.5588C196.664 64.1047 195.175 64.1196 193.769 63.7697C190.747 63.0254 188.432 60.6509 185.826 58.9314C177.474 53.4082 174.326 60.3233 170.909 66.8365Z" fill="#4D4C7D"/>
<path opacity="0.25" d="M264.014 104.903C263.347 103.043 262.922 101.104 262.749 99.1346C262.578 95.4127 264.238 91.7951 264.625 88.0658C265.012 84.3366 263.538 79.7736 259.876 78.9548C258.104 78.5603 256.258 79.1558 254.457 78.9548C249.641 78.4635 247.132 72.9999 243.09 70.3797C238.453 67.3427 231.925 68.4369 227.689 72.0397C223.454 75.6424 221.385 81.24 220.916 86.7632C220.85 88.8049 220.661 90.8407 220.35 92.8596C219.94 94.8172 219.114 96.6633 218.712 98.6284C218.28 100.823 218.379 103.089 218.999 105.238C219.619 107.388 220.743 109.358 222.278 110.985C224.005 112.794 226.186 114.096 228.091 115.719C230.92 118.146 233.101 121.272 236.026 123.587C238.952 125.902 243.083 127.309 246.403 125.634C247.698 124.979 248.74 123.922 249.99 123.178C252.67 121.585 255.945 121.622 259.034 121.004C268.838 119.046 266.188 111.908 264.014 104.903Z" fill="#4D4C7D"/>
<path opacity="0.25" d="M191.439 232.19C191.778 230.119 192.38 228.1 193.233 226.183C195.004 222.617 198.361 220.116 200.676 216.871C202.991 213.625 203.937 208.623 200.952 205.981C199.515 204.7 197.49 204.306 195.912 203.204C191.699 200.279 192.19 193.944 189.779 189.404C187.039 184.193 180.385 181.848 174.631 183.024C168.877 184.201 164.039 188.272 160.771 193.185C159.658 195.047 158.432 196.839 157.101 198.552C155.717 200.16 153.997 201.455 152.635 203.063C151.106 204.88 150.032 207.034 149.501 209.349C148.971 211.663 148.999 214.071 149.583 216.372C150.26 218.933 151.615 221.262 152.56 223.749C153.938 227.47 154.354 231.483 155.873 235.13C157.391 238.777 160.503 242.224 164.455 242.373C165.996 242.432 167.507 241.986 169.041 241.933C172.353 241.837 175.398 243.571 178.554 244.569C188.64 247.821 189.846 239.812 191.439 232.19Z" fill="#4D4C7D"/>
<path opacity="0.25" d="M186.675 168.383C187.028 166.704 187.596 165.078 188.364 163.544C189.942 160.686 192.779 158.766 194.788 156.19C196.798 153.615 197.766 149.565 195.414 147.258C194.282 146.156 192.645 145.769 191.394 144.801C188.052 142.248 188.662 137.09 186.876 133.286C184.829 128.931 179.469 126.758 174.72 127.51C169.971 128.262 165.87 131.455 163.011 135.333C162.034 136.813 160.968 138.233 159.818 139.583C158.627 140.849 157.168 141.816 155.985 143.112C154.668 144.541 153.711 146.264 153.194 148.137C152.676 150.01 152.612 151.98 153.007 153.883C153.469 156.011 154.496 157.962 155.158 160.031C156.148 163.113 156.342 166.425 157.458 169.47C158.575 172.514 160.979 175.424 164.21 175.7C165.468 175.804 166.718 175.499 167.976 175.514C170.686 175.558 173.12 177.084 175.666 178.022C183.809 181.059 185.089 174.576 186.675 168.383Z" fill="#4D4C7D"/>
<path opacity="0.25" d="M217.953 147.794C217.895 149.578 217.604 151.347 217.09 153.056C215.943 156.324 213.241 159.011 211.574 162.13C209.906 165.249 209.676 169.522 212.675 171.063C214.127 171.807 215.988 171.755 217.544 172.35C221.682 173.921 222.01 179.191 224.756 182.436C227.86 186.158 234.113 186.776 239.138 184.67C244.162 182.563 247.966 178.268 250.303 173.631C251.08 171.88 251.954 170.176 252.923 168.524C253.965 166.939 255.35 165.547 256.385 163.954C257.51 162.296 258.199 160.381 258.387 158.387C258.576 156.392 258.258 154.382 257.464 152.543C256.541 150.578 255.037 148.933 253.891 147.087C252.194 144.325 251.323 141.132 249.507 138.422C247.69 135.713 244.475 133.532 240.909 134.179C239.525 134.432 238.222 135.095 236.852 135.437C233.875 136.182 230.95 135.348 227.994 135.147C218.526 134.477 218.429 141.236 217.953 147.794Z" fill="#4D4C7D"/>
<path opacity="0.25" d="M252.908 241.353C253.302 239.352 253.952 237.411 254.844 235.577C256.675 232.167 260.017 229.852 262.354 226.771C264.692 223.689 265.786 218.866 262.98 216.208C261.617 214.92 259.667 214.474 258.171 213.35C254.174 210.372 254.829 204.239 252.655 199.758C250.162 194.622 243.775 192.121 238.148 193.058C232.52 193.996 227.727 197.86 224.377 202.497C223.235 204.264 221.992 205.964 220.655 207.589C219.256 209.077 217.544 210.305 216.152 211.824C214.609 213.539 213.497 215.597 212.908 217.827C212.319 220.058 212.27 222.396 212.765 224.649C213.338 227.158 214.581 229.465 215.4 231.907C216.628 235.554 216.889 239.47 218.258 243.072C219.628 246.675 222.531 250.107 226.364 250.375C227.853 250.479 229.342 250.099 230.831 250.099C234.046 250.099 236.949 251.886 239.979 252.965C249.693 256.419 251.115 248.715 252.908 241.353Z" fill="#4D4C7D"/>
<path d="M198.361 76.7961L199.016 78.2328C199.016 78.2328 198.131 80.8232 196.783 81.1656C195.436 81.508 195.295 81.2698 195.295 81.2698L194.9 80.6892C195.795 80.4516 196.601 79.9558 197.216 79.2635C197.832 78.5712 198.23 77.7131 198.361 76.7961Z" fill="url(#paint7_linear_122_961)"/>
<path d="M178.062 66.4197C178.917 66.6589 179.816 66.6844 180.683 66.4941C181.994 66.3037 183.325 66.2787 184.643 66.4197C184.643 66.4197 182.99 69.1292 180.124 68.4667C177.259 67.8042 178.062 66.4197 178.062 66.4197Z" fill="#4D4C7D"/>
<path d="M178.062 66.4197C178.917 66.6589 179.816 66.6844 180.683 66.4941C181.994 66.3037 183.325 66.2787 184.643 66.4197C184.643 66.4197 182.99 69.1292 180.124 68.4667C177.259 67.8042 178.062 66.4197 178.062 66.4197Z" fill="url(#paint8_linear_122_961)"/>
<path d="M181.263 139.531C181.263 139.531 182.097 144.563 184.122 145.821C186.146 147.079 189.846 149.543 189.846 149.543L179.603 150.31L181.263 139.531Z" fill="#4D4C7D"/>
<path d="M181.263 139.531C181.263 139.531 182.097 144.563 184.122 145.821C186.146 147.079 189.846 149.543 189.846 149.543L179.603 150.31L181.263 139.531Z" fill="url(#paint9_linear_122_961)"/>
<path d="M168.185 137.574C168.185 137.574 167.359 144.839 171.408 144.563C175.457 144.288 177.951 138.98 177.951 138.98L181.956 147.429L179.298 153.786L163.793 156.265L160.86 150.31L168.185 137.574Z" fill="#4D4C7D"/>
<path d="M168.185 137.574C168.185 137.574 167.359 144.839 171.408 144.563C175.457 144.288 177.951 138.98 177.951 138.98L181.956 147.429L179.298 153.786L163.793 156.265L160.86 150.31L168.185 137.574Z" fill="url(#paint10_linear_122_961)"/>
<path d="M247.973 200.852C252.223 202.192 250.124 207.551 250.124 207.551L230.406 201.447C230.406 201.447 237.492 197.54 247.973 200.852Z" fill="#4D4C7D"/>
<path d="M247.973 200.852C252.223 202.192 250.124 207.551 250.124 207.551L230.406 201.447C230.406 201.447 237.492 197.54 247.973 200.852Z" fill="url(#paint11_linear_122_961)"/>
<path d="M230.406 201.448L229.089 193.297C229.069 193.124 229.117 192.95 229.223 192.811C229.328 192.673 229.483 192.58 229.654 192.552C229.743 192.536 229.833 192.538 229.92 192.558C230.008 192.577 230.09 192.614 230.163 192.666C230.236 192.718 230.298 192.785 230.345 192.861C230.391 192.937 230.423 193.022 230.436 193.111L231.746 201.299C231.756 201.387 231.749 201.476 231.725 201.561C231.7 201.646 231.659 201.726 231.604 201.795C231.548 201.864 231.48 201.922 231.402 201.965C231.324 202.007 231.239 202.034 231.151 202.043C231.063 202.053 230.973 202.046 230.888 202.022C230.803 201.997 230.723 201.956 230.654 201.901C230.585 201.845 230.527 201.777 230.485 201.699C230.442 201.621 230.415 201.536 230.406 201.448Z" fill="#4D4C7D"/>
<path d="M243.068 201.715L244.363 193.572C244.392 193.394 244.491 193.234 244.637 193.128C244.784 193.022 244.966 192.978 245.145 193.006C245.323 193.036 245.483 193.134 245.589 193.281C245.695 193.427 245.738 193.609 245.71 193.788L244.4 201.931C244.386 202.023 244.353 202.111 244.304 202.19C244.254 202.269 244.189 202.336 244.112 202.389C244.036 202.441 243.949 202.477 243.857 202.494C243.766 202.512 243.672 202.51 243.582 202.49C243.414 202.449 243.269 202.346 243.173 202.203C243.078 202.06 243.041 201.885 243.068 201.715Z" fill="#4D4C7D"/>
<path d="M167.53 190.379C168.69 189.42 170.043 188.724 171.498 188.339C172.953 187.953 174.473 187.887 175.956 188.146C181.166 188.987 181.993 191.123 181.993 191.123L178.182 192.232C178.182 192.232 171.929 189.999 169.733 193.319L167.53 190.379Z" fill="#4D4C7D"/>
<path d="M167.53 190.379C168.69 189.42 170.043 188.724 171.498 188.339C172.953 187.953 174.473 187.887 175.956 188.146C181.166 188.987 181.993 191.123 181.993 191.123L178.182 192.232C178.182 192.232 171.929 189.999 169.733 193.319L167.53 190.379Z" fill="url(#paint12_linear_122_961)"/>
<path d="M180.162 191.994C180.954 205.341 182.623 218.622 185.156 231.751C185.566 233.887 185.7 236.671 183.749 237.616C182.934 237.927 182.05 238.016 181.189 237.877C177.586 237.609 173.611 237.17 171.17 234.497C169.465 232.636 168.87 230.031 168.416 227.545C166.865 219.035 166.259 210.381 166.607 201.738C166.726 198.76 166.8 193.661 169.688 191.756C171.006 190.892 180.095 190.878 180.162 191.994Z" fill="#4D4C7D"/>
<path d="M180.162 191.994C180.954 205.341 182.623 218.622 185.156 231.751C185.566 233.887 185.7 236.671 183.749 237.616C182.934 237.927 182.05 238.016 181.189 237.877C177.586 237.609 173.611 237.17 171.17 234.497C169.465 232.636 168.87 230.031 168.416 227.545C166.865 219.035 166.259 210.381 166.607 201.738C166.726 198.76 166.8 193.661 169.688 191.756C171.006 190.892 180.095 190.878 180.162 191.994Z" fill="url(#paint13_linear_122_961)"/>
<path d="M73.4271 130.636C73.2856 133.532 72.7497 145.523 70.4943 147.377C68.3952 149.074 64.8297 148.218 63.2069 150.354C61.7182 152.364 61.5991 155.364 61.2195 157.843C61.0632 158.885 58.8003 156.644 57.9666 157.284C56.4779 158.431 50.7909 159.964 51.1036 158.125C51.5631 155.766 51.6285 153.346 51.2971 150.965L49.8084 141.027C49.1384 136.479 48.4611 131.864 49.064 127.301C49.6669 122.738 51.6842 118.175 55.4432 115.525C60.6538 111.804 65.3954 114.9 68.6259 119.515C71.5513 123.684 73.6504 125.857 73.4271 130.636Z" fill="url(#paint14_linear_122_961)"/>
<path d="M48.1335 108.067C43.4366 110.776 41.0993 116.3 40.1763 121.644C39.2533 126.989 39.4319 132.497 38.2112 137.774C36.9904 143.052 33.9459 148.382 28.8545 150.257C31.8841 151.746 34.9434 153.235 38.2335 153.897C41.5236 154.56 45.1114 154.448 48.0293 152.788L47.5976 154.82C51.0515 154.627 54.6542 154.396 57.6242 152.625C61.547 150.28 63.5791 145.739 64.7031 141.318C66.7427 133.331 66.6385 124.942 66.4375 116.754C66.4856 115.126 66.2539 113.502 65.7527 111.952C63.3558 105.811 53.0017 105.253 48.1335 108.067Z" fill="#25233A"/>
<path d="M74.1566 110.598C75.0604 111.141 75.807 111.911 76.3227 112.831C76.7512 113.83 76.9861 114.901 77.0149 115.987C77.2368 117.748 77.2617 119.528 77.0894 121.294C76.9076 123.074 76.1344 124.74 74.8935 126.028C73.7114 127.027 72.3461 127.785 70.8739 128.262L71.4247 125.679L68.4473 128.358C68.3773 127.67 68.5398 126.978 68.9088 126.393L66.0728 127.748C66.4758 124.886 66.5183 121.985 66.1993 119.113C65.9016 116.396 64.5468 115.972 62.7976 114.26C61.2418 112.771 61.026 111.588 62.8943 110.307C66.1174 108.112 71.0377 108.662 74.1566 110.598Z" fill="#25233A"/>
<path d="M64.13 158.304C65.4698 159.242 66.6608 160.388 68.0007 161.334C68.8721 161.832 69.6321 162.503 70.2338 163.306C71.318 166.297 72.1666 169.368 72.7721 172.492C72.8391 175.469 70.8367 172.157 70.7995 175.149L70.1966 215.724C70.1966 217.399 70.1296 219.141 69.3405 220.607C67.9858 223.138 64.8743 224.106 62.0904 224.672C58.3512 225.422 54.5575 225.871 50.7463 226.012C49.0471 226.156 47.3357 225.997 45.6921 225.543C42.7146 224.575 40.5559 221.918 39.432 219.007C38.308 216.097 38.0772 212.933 37.9432 209.822C37.1989 194.666 37.7199 179.064 43.4441 165.011C44.7616 161.765 47.3222 157.411 50.7984 156.078C54.9892 154.456 60.5794 155.825 64.13 158.304Z" fill="#4D4C7D"/>
<path d="M64.7329 175.03C64.7329 175.03 62.6338 175.529 61.9341 184.052C61.2344 192.575 65.9835 223.109 59.4182 224.538C59.4182 224.538 65.5517 225.185 68.1421 222.156C70.7325 219.126 70.3752 203.48 70.3752 203.48V173.705L64.7329 175.03Z" fill="url(#paint15_linear_122_961)"/>
<path d="M83.2304 264.049C79.3448 249.906 73.7993 234.959 68.7004 221.21C68.7248 221.274 68.7308 221.344 68.7176 221.411C68.7045 221.478 68.6727 221.54 68.626 221.59C67.9784 222.439 64.2416 223.079 61.7108 223.682H61.5991L61.16 223.786C53.5674 225.662 49.4511 225.022 41.9032 222.982C37.1989 235.554 32.8592 248.767 28.1548 261.339C27.9606 261.736 27.898 262.185 27.9762 262.619C28.1407 262.995 28.416 263.312 28.7652 263.528L32.42 266.349C32.7699 265.307 33.1644 264.257 33.4845 263.215C33.3133 266.304 31.4003 271.202 31.2514 274.291L31.3184 274.351C31.639 274.645 32.0278 274.855 32.4498 274.961C34.8392 275.616 38.7769 273.964 40.9058 274.961C43.4515 276.159 46.9128 276.718 48.7365 274.581C48.1931 276.279 48.208 278.847 49.9796 279.085C50.7839 279.078 51.5655 278.818 52.2127 278.34C55.6889 276.435 59.9094 276.911 63.8769 276.852C67.4647 276.814 71.5066 275.981 73.6281 273.241C73.6408 273.664 73.7865 274.071 74.0445 274.405C74.3026 274.739 74.6596 274.983 75.0647 275.102C76.3227 275.37 77.5509 274.641 78.6823 274.008C79.027 273.812 79.3852 273.64 79.7542 273.495C80.2943 273.265 80.7483 272.871 81.0517 272.368C81.355 271.866 81.4923 271.281 81.4439 270.696C81.429 270.478 81.429 270.259 81.4439 270.041C81.6135 270.294 81.8586 270.487 82.1444 270.592C82.4302 270.697 82.742 270.709 83.0351 270.627C83.3283 270.544 83.5878 270.371 83.7766 270.132C83.9654 269.893 84.0739 269.601 84.0864 269.296C84.0633 267.514 83.7748 265.746 83.2304 264.049ZM74.1789 272.289C73.9871 272.387 73.831 272.544 73.7323 272.735C73.5388 272.497 73.9407 272.08 74.1789 272.289ZM73.9184 272.825C74.029 272.665 74.1285 272.499 74.2161 272.326C74.3873 272.519 74.1417 272.817 73.9035 272.825H73.9184Z" fill="#4D4C7D"/>
<path d="M83.2304 264.049C79.3448 249.906 73.7993 234.959 68.7004 221.21C68.7095 221.341 68.6838 221.472 68.626 221.59C68.0602 222.841 64.331 223.131 61.7108 223.682H61.5991L61.16 223.786C53.5674 225.662 49.533 224.62 41.9851 222.58C37.2807 235.167 32.8592 248.789 28.1548 261.361C27.9606 261.758 27.898 262.207 27.9762 262.642C28.1407 263.018 28.416 263.334 28.7652 263.55L32.42 266.371C32.7699 265.329 33.1644 264.279 33.4845 263.237C33.3133 266.326 31.4003 271.224 31.2514 274.313L31.3184 274.373C31.6685 274.623 32.0486 274.828 32.4498 274.983C34.8392 275.638 38.7769 273.986 40.9058 274.983C43.526 274.343 46.6449 276.554 48.5132 274.842C48.5956 274.771 48.6728 274.694 48.744 274.611C48.2006 276.308 48.2155 278.876 49.9871 279.115C50.7913 279.108 51.573 278.848 52.2201 278.37C55.6963 276.465 59.9169 276.941 63.8843 276.881C67.4722 276.844 71.5141 276.011 73.6355 273.271C73.6482 273.693 73.794 274.101 74.052 274.435C74.31 274.769 74.6671 275.013 75.0722 275.132C76.3301 275.4 77.5583 274.671 78.6898 274.038C79.0344 273.842 79.3926 273.67 79.7617 273.524C80.2909 273.329 80.7424 272.967 81.0485 272.494C81.3545 272.02 81.4985 271.459 81.4588 270.897C81.4402 270.622 81.4402 270.346 81.4588 270.071C81.6283 270.324 81.8735 270.516 82.1593 270.622C82.4451 270.727 82.7569 270.739 83.05 270.657C83.3432 270.574 83.6027 270.401 83.7915 270.162C83.9803 269.923 84.0888 269.63 84.1013 269.326C84.0764 267.533 83.7828 265.754 83.2304 264.049Z" fill="url(#paint16_linear_122_961)"/>
<path d="M41.8958 332.575C40.9579 332.575 39.8041 332.575 39.3426 333.394C39.1536 333.837 39.0967 334.326 39.1788 334.8L39.8264 343.264C39.9158 344.44 40.0721 345.75 40.9728 346.502C41.5383 346.919 42.2204 347.148 42.923 347.157C44.5187 347.171 46.0968 346.822 47.5381 346.137C48.1659 345.935 48.7167 345.545 49.1161 345.021C49.4045 344.427 49.5107 343.761 49.4213 343.108C49.3469 340.874 49.2278 338.604 49.0863 336.356C48.997 334.927 49.0863 332.225 47.4264 331.823C45.9823 331.481 43.5185 332.59 41.8958 332.575Z" fill="#4D4C7D"/>
<path d="M59.6935 333.572C59.2077 337.249 59.407 340.985 60.2816 344.589C60.3584 345.013 60.5288 345.415 60.7803 345.765C61.0744 346.046 61.4272 346.259 61.8133 346.388C62.1994 346.517 62.6093 346.558 63.0134 346.509C64.7575 346.477 66.4798 346.116 68.09 345.445C68.3752 345.353 68.6317 345.189 68.8343 344.969C69.0455 344.604 69.122 344.178 69.0502 343.763L68.6929 337.89C68.6036 336.498 68.9088 334.242 68.023 333.051C67.2786 332.046 66.2067 332.106 65.0455 332.262C64.5468 332.359 59.7605 333.327 59.6935 333.572Z" fill="#4D4C7D"/>
<path d="M41.8958 332.575C40.9579 332.575 39.8041 332.575 39.3426 333.394C39.1536 333.837 39.0967 334.326 39.1788 334.8L39.8264 343.264C39.9158 344.44 40.0721 345.75 40.9728 346.502C41.5383 346.919 42.2204 347.148 42.923 347.157C44.5187 347.171 46.0968 346.822 47.5381 346.137C48.1659 345.935 48.7167 345.545 49.1161 345.021C49.4045 344.427 49.5107 343.761 49.4213 343.108C49.3469 340.874 49.2278 338.604 49.0863 336.356C48.997 334.927 49.0863 332.225 47.4264 331.823C45.9823 331.481 43.5185 332.59 41.8958 332.575Z" fill="url(#paint17_linear_122_961)"/>
<path d="M59.6935 333.572C59.2077 337.249 59.407 340.985 60.2816 344.589C60.3584 345.013 60.5288 345.415 60.7803 345.765C61.0744 346.046 61.4272 346.259 61.8133 346.388C62.1994 346.517 62.6093 346.558 63.0134 346.509C64.7575 346.477 66.4798 346.116 68.09 345.445C68.3752 345.353 68.6317 345.189 68.8343 344.969C69.0455 344.604 69.122 344.178 69.0502 343.763L68.6929 337.89C68.6036 336.498 68.9088 334.242 68.023 333.051C67.2786 332.046 66.2067 332.106 65.0455 332.262C64.5468 332.359 59.7605 333.327 59.6935 333.572Z" fill="url(#paint18_linear_122_961)"/>
<path d="M39.5138 354.608C39.5726 354.871 39.7102 355.11 39.9083 355.293C40.0882 355.407 40.292 355.478 40.5038 355.501C45.616 356.422 50.8767 356.062 55.8154 354.452C57.654 353.849 59.7307 352.688 59.8052 350.73C59.7534 349.702 59.3485 348.724 58.6589 347.961C56.7335 345.542 54.034 343.86 51.0142 343.197C50.4625 343.03 49.8833 342.974 49.3098 343.032C48.7363 343.089 48.1798 343.259 47.672 343.532C47.1807 343.859 46.816 344.351 46.3396 344.701C44.4936 346.078 41.3077 344.835 39.7297 346.48C38.1516 348.125 38.8587 352.606 39.5138 354.608Z" fill="#25233A"/>
<path d="M59.0162 353.037C59.0482 353.829 59.3354 354.589 59.835 355.204C60.5467 355.755 61.4387 356.02 62.336 355.948C67.5361 356.125 72.7205 355.28 77.5955 353.462C78.8417 353.072 79.991 352.423 80.9675 351.556C81.4516 351.117 81.8117 350.559 82.0116 349.937C82.2115 349.315 82.2442 348.652 82.1064 348.013C81.6746 346.487 80.0817 345.631 78.6227 344.991C76.9603 344.251 75.2731 343.569 73.561 342.944C72.6336 342.535 71.6342 342.315 70.6208 342.296C68.7003 342.386 67.2414 343.785 65.4996 344.373C63.7578 344.961 62.5221 344.492 60.8101 344.455C57.0957 344.388 58.711 350.588 59.0162 353.037Z" fill="#25233A"/>
<path d="M167.693 143.655C167.634 145.226 167.649 146.915 168.52 148.233C169.927 150.354 173.232 150.592 175.316 149.134C177.4 147.675 178.353 144.98 178.353 142.434C178.353 139.889 177.549 137.41 176.745 134.991L180.973 134.596C181.054 138.117 181.392 141.627 181.985 145.099C182.091 146.185 182.461 147.227 183.065 148.136C184.553 150.049 187.441 149.885 189.846 149.535L189.235 174.747L158.635 174.851L156.401 156.205C156.258 155.536 156.304 154.84 156.535 154.195C156.953 153.536 157.529 152.991 158.21 152.61C160.715 150.663 162.484 147.923 163.227 144.839C163.708 142.099 163.987 139.327 164.061 136.546C164.723 135.861 166.242 135.995 168.267 135.936C168.192 138.489 167.813 141.072 167.693 143.655Z" fill="#4D4C7D"/>
<path d="M167.693 143.655C167.634 145.226 167.649 146.915 168.52 148.233C169.927 150.354 173.232 150.592 175.316 149.134C177.4 147.675 178.353 144.98 178.353 142.434C178.353 139.889 177.549 137.41 176.745 134.991L180.973 134.596C181.054 138.117 181.392 141.627 181.985 145.099C182.091 146.185 182.461 147.227 183.065 148.136C184.553 150.049 187.441 149.885 189.846 149.535L189.235 174.747L158.635 174.851L156.401 156.205C156.258 155.536 156.304 154.84 156.535 154.195C156.953 153.536 157.529 152.991 158.21 152.61C160.715 150.663 162.484 147.923 163.227 144.839C163.708 142.099 163.987 139.327 164.061 136.546C164.723 135.861 166.242 135.995 168.267 135.936C168.192 138.489 167.813 141.072 167.693 143.655Z" fill="url(#paint19_linear_122_961)"/>
<path d="M224.541 207.127C224.124 210.849 227.064 213.968 228.262 217.489C229.321 220.927 229.022 224.64 227.429 227.865C225.839 231.063 223.549 233.861 220.729 236.053C220.544 236.161 220.382 236.306 220.254 236.479C220.126 236.652 220.035 236.849 219.985 237.058C219.986 237.319 220.055 237.576 220.186 237.802C222.419 242.268 227.31 244.859 232.222 245.603C237.135 246.348 242.137 245.514 247.028 244.643C250.66 243.995 254.568 243.154 257.017 240.415C251.569 233.128 246.738 224.27 248.502 215.345C249.015 212.747 250.08 210.238 250.095 207.596C250.154 199.698 243.023 202.825 238.185 201.507C233.346 200.19 225.285 200.539 224.541 207.127Z" fill="#4D4C7D"/>
<path d="M163.138 193.178C161.084 195.277 159.84 198.016 158.716 200.733C154.733 210.33 151.674 220.285 149.583 230.463L158.076 232.696C158.523 232.87 159.013 232.896 159.476 232.77C160.295 232.45 160.473 231.393 160.525 230.537L161.463 214.586L161.553 234.475C161.472 234.982 161.578 235.501 161.852 235.935C162.126 236.369 162.549 236.689 163.041 236.835C166.019 238.39 169.108 239.983 172.45 239.924C172.666 239.924 171.609 211.638 171.49 209.055C171.237 203.844 171.095 198.634 170.597 193.468C170.142 188.525 165.907 190.364 163.138 193.178Z" fill="#4D4C7D"/>
<path d="M163.138 193.178C161.084 195.277 159.84 198.016 158.716 200.733C154.733 210.33 151.674 220.285 149.583 230.463L158.076 232.696C158.523 232.87 159.013 232.896 159.476 232.77C160.295 232.45 160.473 231.393 160.525 230.537L161.463 214.586L161.553 234.475C161.472 234.982 161.578 235.501 161.852 235.935C162.126 236.369 162.549 236.689 163.041 236.835C166.019 238.39 169.108 239.983 172.45 239.924C172.666 239.924 171.609 211.638 171.49 209.055C171.237 203.844 171.095 198.634 170.597 193.468C170.142 188.525 165.907 190.364 163.138 193.178Z" fill="url(#paint20_linear_122_961)"/>
<path d="M181.181 241.159C185.174 239.672 188.911 237.573 192.257 234.936C192.664 234.708 192.976 234.342 193.136 233.903C193.296 233.465 193.293 232.984 193.128 232.547L190.091 213.819C191.26 219.992 192.763 226.098 194.595 232.108L203.475 228.468C202.731 222.409 200.535 216.633 198.227 210.983C196.217 206.085 194.089 201.127 190.642 197.108C188.513 194.622 182.767 189.113 179.105 191.376C175.599 193.542 176.998 202.237 177.08 205.661C177.154 208.787 181.338 241.122 181.181 241.159Z" fill="#4D4C7D"/>
<path d="M181.181 241.159C185.174 239.672 188.911 237.573 192.257 234.936C192.664 234.708 192.976 234.342 193.136 233.903C193.296 233.465 193.293 232.984 193.128 232.547L190.091 213.819C191.26 219.992 192.763 226.098 194.595 232.108L203.475 228.468C202.731 222.409 200.535 216.633 198.227 210.983C196.217 206.085 194.089 201.127 190.642 197.108C188.513 194.622 182.767 189.113 179.105 191.376C175.599 193.542 176.998 202.237 177.08 205.661C177.154 208.787 181.338 241.122 181.181 241.159Z" fill="url(#paint21_linear_122_961)"/>
<path d="M198.905 112.436C198.843 112.425 198.78 112.425 198.719 112.436C198.328 112.495 197.967 112.681 197.691 112.965L197.349 113.218C195.896 114.197 194.162 114.671 192.414 114.567C190.665 114.464 188.999 113.788 187.672 112.645C187.426 113.425 186.954 114.115 186.317 114.628C185.679 115.141 184.904 115.454 184.089 115.527C183.274 115.6 182.456 115.43 181.737 115.039C181.018 114.648 180.431 114.054 180.05 113.33C179.478 114.288 178.559 114.989 177.483 115.289C176.408 115.588 175.259 115.462 174.274 114.937C173.82 114.572 173.278 114.334 172.703 114.245C172.055 114.245 171.557 114.789 171.028 115.168C170.49 115.501 169.885 115.713 169.256 115.787C168.627 115.862 167.99 115.798 167.388 115.6C166.787 115.402 166.236 115.075 165.774 114.642C165.313 114.208 164.951 113.679 164.716 113.091C163.674 114.491 161.657 114.774 159.937 114.454C158.716 114.165 157.511 113.812 156.327 113.397C155.856 113.249 155.376 113.129 154.89 113.039C158.411 106.251 163.823 99.7524 166.8 92.7702C167.783 90.418 169.033 89.1824 169.502 86.6888C169.785 85.2 168.051 80.3616 168.408 78.337C168.419 78.1739 168.467 78.0155 168.548 77.8736C168.63 77.7318 168.742 77.6102 168.877 77.5182C167.388 78.337 165.9 78.4635 164.508 79.2972C164.508 79.2972 160.83 75.2925 161.017 73.5879C164.18 71.9503 167.098 69.5311 170.254 67.8935C170.827 67.5958 176.559 66.4048 177.735 66.9035C179.611 67.7372 180.854 67.9903 182.812 67.3725C183.725 67.1369 184.668 67.0415 185.61 67.0896C187.337 67.0896 192.473 68.2806 195.466 71.8461C196.322 72.8733 198.443 75.7094 198.443 77.0567C198.443 78.404 196.255 80.8529 194.93 80.6743C193.865 79.6098 191.908 78.6794 190.754 77.6968C190.114 81.8429 189.883 83.3168 189.265 87.4554C189.086 88.2768 189.051 89.1231 189.161 89.9565C189.289 90.52 189.482 91.0669 189.734 91.5867C192.766 98.544 195.823 105.494 198.905 112.436Z" fill="#4D4C7D"/>
<path d="M199.292 113.091C199.282 113.127 199.264 113.16 199.24 113.188L199.202 113.106L198.905 112.436C199.188 112.541 199.403 112.846 199.292 113.091Z" fill="#4D4C7D"/>
<path d="M66.1025 163.708C68.3356 163.209 70.1891 162.13 70.9632 164.296C72.2361 167.847 74.8562 175.826 77.2159 179.585C79.449 183.121 81.9203 186.471 83.5355 188.555C83.7147 188.787 83.9505 188.968 84.2202 189.082C84.49 189.196 84.7845 189.239 85.0755 189.206C85.3665 189.173 85.6441 189.066 85.8815 188.894C86.1189 188.723 86.3082 188.493 86.4311 188.228L89.4607 176.816L99.3086 192.329C99.3086 192.329 91.7682 208.705 87.1532 209.301C79.4043 210.35 65.3582 183.992 65.3582 183.992C65.3582 183.992 53.5674 166.455 66.1025 163.708Z" fill="#4D4C7D"/>
<path d="M89.4607 176.787L90.2795 160.961L88.0464 155.833C88.0464 155.833 88.6717 153.92 90.2795 154.82C91.8874 155.721 92.5796 159.808 95.1998 156.562C96.6744 154.815 97.8445 152.832 98.6611 150.697C98.6611 150.697 99.1822 150.801 99.2864 152.788C99.3524 153.872 99.3524 154.958 99.2864 156.041L99.331 158.341C99.331 158.341 98.7653 162.324 97.8423 163.738C96.9193 165.152 95.4305 165.152 95.2221 168.718C95.0137 172.283 95.5869 186.434 95.5869 186.434L89.4607 176.787Z" fill="url(#paint22_linear_122_961)"/>
<path d="M232.714 232.562C227.258 240.102 225.866 243.407 225.866 243.407L222.404 240.802C221.524 239.904 220.787 238.878 220.216 237.758C220.085 237.531 220.015 237.275 220.015 237.013C220.064 236.804 220.156 236.607 220.284 236.434C220.412 236.262 220.574 236.117 220.759 236.008C223.579 233.817 225.869 231.018 227.459 227.82C229.052 224.595 229.351 220.882 228.292 217.444C227.317 214.615 225.225 212.025 224.667 209.196C224.846 209.464 227.712 213.759 229.133 213.864C229.081 213.908 238.163 225.014 232.714 232.562Z" fill="url(#paint23_linear_122_961)"/>
<path d="M250.124 207.551C250.071 209.066 249.82 210.567 249.38 212.017C249.38 212.017 250.124 207.321 249.045 204.924C247.966 202.527 245.107 203.026 244.683 202.892C244.259 202.758 241.095 203.524 238.87 202.564C236.644 201.604 235.334 201.738 232.029 201.455C228.724 201.172 225.925 203.688 225.925 203.688C227.272 202.021 229.446 201.187 231.746 200.912C233.929 200.666 236.139 200.835 238.259 201.41C243.053 202.78 250.184 199.654 250.124 207.551Z" fill="url(#paint24_linear_122_961)"/>
<path d="M253.035 173.385H254.672C254.918 170.787 253.742 168.293 252.774 165.867C250.683 160.589 248.658 154.701 248.427 149.044C248.532 148.215 248.706 147.396 248.948 146.595C248.634 146.356 248.238 146.252 247.847 146.305C237.644 146.424 227.436 146.575 217.223 146.759C217.439 146.9 218.013 146.64 217.752 146.632C217.491 146.625 217.328 146.915 217.238 147.161C214.038 155.631 212.414 164.614 212.445 173.668C216.911 174.181 225.702 175 226.111 174.985C235.267 174.561 243.872 173.564 253.035 173.385Z" fill="#4D4C7D"/>
<path d="M218.042 151.798C218.042 151.798 214.752 168.174 216.345 174.092L212.445 173.668C212.445 173.668 212.713 157.396 216.323 149.722L218.042 151.798Z" fill="url(#paint25_linear_122_961)"/>
<path d="M218.042 151.798L219.189 152.461C219.189 152.461 218.109 172.246 220.834 174.516L216.367 174.092C216.367 174.092 214.789 168.174 218.042 151.798Z" fill="url(#paint26_linear_122_961)"/>
<path d="M225.062 152.29C225.062 152.29 224.139 169.194 226.111 174.978L220.901 174.479C220.901 174.479 220.112 158.222 223.208 150.332L225.062 152.29Z" fill="url(#paint27_linear_122_961)"/>
<path d="M225.062 152.29L226.26 152.878C226.26 152.878 226.469 172.693 229.334 174.769L226.111 174.978C226.111 174.978 223.752 167.199 225.062 152.29Z" fill="url(#paint28_linear_122_961)"/>
<path d="M234.813 151.538C234.813 151.538 233.882 168.442 235.855 174.226L230.146 174.762C230.146 174.762 229.863 157.463 232.959 149.58L234.813 151.538Z" fill="url(#paint29_linear_122_961)"/>
<path d="M234.813 151.538L236.004 152.126C236.004 152.126 237.612 171.948 240.47 174.033L235.847 174.226C235.847 174.226 233.495 166.447 234.813 151.538Z" fill="url(#paint30_linear_122_961)"/>
<path d="M244.08 150.86C244.08 150.86 242.733 164.542 248.427 173.549L242.725 174.085C242.725 174.085 238.944 158.751 242.033 150.86H244.08Z" fill="url(#paint31_linear_122_961)"/>
<path d="M244.08 150.86L246.157 151.128C246.157 151.128 250.184 171.278 253.05 173.355L248.427 173.549C248.427 173.549 242.763 165.77 244.08 150.86Z" fill="url(#paint32_linear_122_961)"/>
<path d="M217.514 149.037C217.514 149.037 241.125 150.362 248.427 149.037L248.948 146.588L217.752 146.625L217.514 149.037Z" fill="url(#paint33_linear_122_961)"/>
<path d="M257.017 82.3491C256.853 96.358 256.496 125.247 256.213 125.522C255.93 125.798 247.333 125.597 243.596 125.455C243.155 114.349 242.718 103.243 242.286 92.1375C238.742 102.432 235.877 112.947 233.711 123.617C233.724 123.813 233.685 124.01 233.598 124.187C233.511 124.364 233.38 124.515 233.217 124.626C233.053 124.737 232.864 124.803 232.668 124.817C232.471 124.832 232.274 124.796 232.096 124.711C228.248 123.929 224.243 122.307 220.543 123.617C221.253 117.766 222.171 111.94 223.297 106.139C224.29 100.943 225.471 95.7799 226.841 90.6488C227.161 89.4589 227.41 88.2508 227.585 87.0312C227.703 86.2198 227.77 85.4019 227.786 84.5822C227.786 83.4284 227.391 81.6047 228.255 80.6594C228.731 80.1234 230.592 79.915 233.153 79.915C241.386 79.8852 257.017 81.9397 257.017 82.3491Z" fill="#4D4C7D"/>
<path d="M233.131 79.9299V80.7264C233.131 80.7264 231.456 87.1652 227.823 87.6564L227.563 87.0609C227.68 86.2496 227.748 85.4317 227.764 84.612C227.764 83.4582 227.369 81.6345 228.233 80.6892C228.731 80.1532 230.57 79.9448 233.131 79.9299Z" fill="url(#paint34_linear_122_961)"/>
<path d="M226.952 123.512L233.942 92.9265L242.257 92.1822C242.257 92.1822 233.994 119.724 233.183 124.674L226.952 123.512Z" fill="url(#paint35_linear_122_961)"/>
<path d="M250.08 125.723L248.852 90.5148H256.98L256.176 125.545L250.08 125.723Z" fill="url(#paint36_linear_122_961)"/>
<path d="M252.238 81.4708C252.238 81.4708 251.211 88.84 256.98 90.5148V82.3268L252.238 81.4708Z" fill="url(#paint37_linear_122_961)"/>
<path d="M241.445 80.8753C241.445 80.8753 240.053 87.515 240.47 88.4231C240.992 89.3522 241.587 90.2383 242.249 91.0731L244.363 80.5701L241.445 80.8753Z" fill="url(#paint38_linear_122_961)"/>
<path d="M177.906 66.1964C178.358 66.9189 179.06 67.4491 179.879 67.6851C179.879 67.6851 177.452 68.7421 177.102 68.1466C177 67.985 176.946 67.7979 176.946 67.6069C176.946 67.416 177 67.2289 177.102 67.0673C177.102 67.0673 176.015 67.7744 175.614 67.2608C175.212 66.7472 177.906 66.1964 177.906 66.1964Z" fill="#4D4C7D"/>
<path d="M177.906 66.1964C178.358 66.9189 179.06 67.4491 179.879 67.6851C179.879 67.6851 177.452 68.7421 177.102 68.1466C177 67.985 176.946 67.7979 176.946 67.6069C176.946 67.416 177 67.2289 177.102 67.0673C177.102 67.0673 176.015 67.7744 175.614 67.2608C175.212 66.7472 177.906 66.1964 177.906 66.1964Z" fill="url(#paint39_linear_122_961)"/>
<path d="M181.219 67.7298C181.219 67.7298 183.214 69.3897 183.705 68.5188C184.196 67.6479 183.913 67.4692 183.913 67.4692C184.071 67.6244 184.268 67.733 184.484 67.7829C184.699 67.8329 184.924 67.8222 185.134 67.7521C185.796 67.4692 184.859 66.1815 184.859 66.1815C183.806 67.0148 182.549 67.5496 181.219 67.7298Z" fill="url(#paint40_linear_122_961)"/>
<path d="M160.994 73.64L159.505 74.7417C159.505 74.7417 161.813 79.4535 163.019 79.9523L164.463 79.3195C164.463 79.3195 160.927 75.7168 160.994 73.64Z" fill="url(#paint41_linear_122_961)"/>
<path d="M199.292 113.091H199.202C198.589 113.178 197.968 113.205 197.349 113.173C195.333 113.053 193.438 112.169 192.049 110.702C188.171 106.72 185.819 90.2617 185.35 89.5322C184.881 88.8027 188.469 82.1928 188.833 76.223L190.679 77.7117C190.039 81.8578 189.809 83.3316 189.191 87.4703C189.011 88.2917 188.976 89.138 189.087 89.9714C189.215 90.5348 189.407 91.0818 189.66 91.6015C192.746 98.5489 195.83 105.496 198.912 112.444C199.188 112.541 199.403 112.846 199.292 113.091Z" fill="url(#paint42_linear_122_961)"/>
<path d="M169.629 91.5048L156.32 113.397C155.848 113.249 155.369 113.129 154.883 113.039C158.404 106.251 163.815 99.7524 166.793 92.7702C167.775 90.418 169.026 89.1824 169.495 86.6888C169.778 85.2 168.043 80.3617 168.401 78.337L168.87 77.5182C168.87 77.5182 169.413 82.0737 170.917 84.0984C172.42 86.1231 169.629 91.5048 169.629 91.5048Z" fill="url(#paint43_linear_122_961)"/>
<path d="M33.4845 263.237L40.7346 232.324L28.7652 263.55L32.42 266.364L33.4845 263.237Z" fill="url(#paint44_linear_122_961)"/>
<path d="M38.4642 274.031L47.6944 233.381L45.8334 275.46L38.4642 274.031Z" fill="url(#paint45_linear_122_961)"/>
<path opacity="0.41" d="M81.429 270.071L69.8988 229.957L78.6674 274.045C78.6674 274.045 82.2701 272.996 81.429 270.071Z" fill="url(#paint46_linear_122_961)"/>
<path opacity="0.41" d="M64.919 233.381C64.919 233.381 73.5536 269.155 73.6132 273.271C73.6132 273.271 71.0154 276.249 67.4424 276.546L64.919 233.381Z" fill="url(#paint47_linear_122_961)"/>
<path d="M50.1284 155.371C50.1284 155.371 57.0436 153.518 61.7926 155.371L64.1672 158.996C64.1672 158.996 53.5972 157.031 48.8556 158.252C44.114 159.473 50.1284 155.371 50.1284 155.371Z" fill="#4D4C7D"/>
<path d="M50.1284 155.371C50.1284 155.371 57.0436 153.518 61.7926 155.371L64.1672 158.996C64.1672 158.996 53.5972 157.031 48.8556 158.252C44.114 159.473 50.1284 155.371 50.1284 155.371Z" fill="url(#paint48_linear_122_961)"/>
<path d="M228.181 275.46H196.709C194.555 275.46 192.808 277.204 192.808 279.356C192.808 281.509 194.555 283.253 196.709 283.253H228.181C230.335 283.253 232.081 281.509 232.081 279.356C232.081 277.204 230.335 275.46 228.181 275.46Z" fill="#4D4C7D"/>
<path d="M228.181 275.46H196.709C194.555 275.46 192.808 277.204 192.808 279.356C192.808 281.509 194.555 283.253 196.709 283.253H228.181C230.335 283.253 232.081 281.509 232.081 279.356C232.081 277.204 230.335 275.46 228.181 275.46Z" fill="url(#paint49_linear_122_961)"/>
<path d="M196.791 28.9037H193.746V27.9658C193.774 27.6824 193.733 27.3965 193.627 27.1321C193.584 27.0708 193.526 27.022 193.458 26.9906C193.39 26.9593 193.315 26.9464 193.24 26.9535C193.15 26.9488 193.061 26.9693 192.982 27.0127C192.903 27.0561 192.838 27.1207 192.793 27.1991C192.671 27.4271 192.617 27.6855 192.637 27.9435C192.62 28.27 192.678 28.5962 192.808 28.8963C193.054 29.2157 193.373 29.4711 193.739 29.6406C194.782 30.1741 195.717 30.8987 196.493 31.7769C196.938 32.599 197.137 33.5319 197.066 34.4641C197.092 35.1336 196.976 35.801 196.724 36.4218C196.45 36.9041 196.023 37.2813 195.51 37.4937C194.85 37.7945 194.13 37.9421 193.404 37.9254C192.63 37.9461 191.862 37.7747 191.171 37.4267C190.621 37.1732 190.187 36.7211 189.957 36.1613C189.736 35.4538 189.638 34.7136 189.667 33.9728V33.1764H192.712V34.7097C192.685 35.0181 192.729 35.3284 192.838 35.6179C192.889 35.6889 192.958 35.7455 193.038 35.782C193.117 35.8185 193.205 35.8338 193.292 35.8263C193.39 35.8311 193.487 35.8095 193.574 35.7636C193.66 35.7178 193.733 35.6494 193.783 35.5658C193.899 35.3354 193.953 35.0789 193.94 34.8214C194.008 34.305 193.9 33.7806 193.635 33.3327C193.164 32.8995 192.65 32.5154 192.101 32.1863C191.536 31.8331 190.996 31.44 190.486 31.0102C190.193 30.7254 189.967 30.3798 189.823 29.9979C189.635 29.4705 189.547 28.9126 189.563 28.3529C189.517 27.6262 189.645 26.8992 189.935 26.2314C190.209 25.7603 190.63 25.3918 191.133 25.1819C191.762 24.919 192.44 24.7922 193.121 24.8097C193.869 24.788 194.613 24.9276 195.302 25.2191C195.81 25.4147 196.232 25.7839 196.493 26.2612C196.728 26.9449 196.827 27.6683 196.783 28.3901L196.791 28.9037Z" fill="#4D4C7D"/>
<path d="M208.44 25.0851V37.6947H205.157V32.3948H204.167V37.6947H200.885V25.0851H204.167V29.596H205.142V25.0851H208.44Z" fill="#4D4C7D"/>
<path d="M220.052 32.4692C220.052 33.7346 220.052 34.6279 219.963 35.1564C219.907 35.6785 219.715 36.1767 219.404 36.6004C219.081 37.0467 218.641 37.3946 218.132 37.6053C217.539 37.8481 216.903 37.9671 216.263 37.9552C215.64 37.9634 215.021 37.8522 214.44 37.6277C213.939 37.4254 213.501 37.0932 213.171 36.6654C212.841 36.2375 212.632 35.7295 212.564 35.1936C212.486 34.2876 212.454 33.3784 212.467 32.4692V30.3105C212.467 29.0451 212.467 28.1444 212.556 27.6234C212.618 27.0889 212.821 26.5805 213.144 26.1502C213.467 25.7199 213.899 25.3832 214.395 25.1744C214.986 24.9275 215.623 24.8083 216.263 24.8246C216.884 24.8128 217.502 24.9241 218.08 25.1521C218.594 25.3576 219.042 25.7 219.375 26.1421C219.693 26.5635 219.893 27.0618 219.955 27.5862C220.037 28.4919 220.069 29.4013 220.052 30.3105V32.4692ZM216.777 28.3231C216.796 27.9458 216.763 27.5676 216.68 27.1991C216.648 27.1204 216.592 27.054 216.52 27.0097C216.447 26.9655 216.363 26.9457 216.278 26.9535C216.201 26.9498 216.123 26.9664 216.054 27.0016C215.985 27.0369 215.926 27.0895 215.884 27.1544C215.758 27.5304 215.713 27.9285 215.75 28.3231V34.1887C215.726 34.6422 215.756 35.0969 215.839 35.5434C215.868 35.6284 215.925 35.7008 216.001 35.7484C216.077 35.7959 216.167 35.8155 216.256 35.804C216.35 35.8124 216.445 35.7871 216.522 35.7326C216.6 35.6781 216.656 35.5979 216.68 35.5062C216.769 35.0403 216.801 34.5655 216.777 34.0919V28.3231Z" fill="#4D4C7D"/>
<path d="M224.087 25.0851H227.384C228.077 25.0652 228.771 25.1353 229.446 25.2935C229.857 25.3934 230.233 25.6046 230.533 25.9039C230.775 26.1766 230.941 26.5075 231.017 26.8641C231.123 27.4409 231.168 28.0272 231.151 28.6134V29.7225C231.181 30.3214 231.095 30.9206 230.897 31.4866C230.709 31.8742 230.383 32.177 229.982 32.3352C229.428 32.5523 228.835 32.6536 228.24 32.633H227.362V37.7095H224.087V25.0851ZM227.362 27.2438V30.4669H227.607C227.722 30.4806 227.838 30.4675 227.946 30.4288C228.055 30.39 228.153 30.3266 228.233 30.2436C228.38 29.9596 228.439 29.6384 228.404 29.3205V28.2784C228.442 27.9829 228.371 27.6835 228.203 27.4373C227.953 27.2774 227.656 27.209 227.362 27.2438Z" fill="#4D4C7D"/>
<defs>
<linearGradient id="paint0_linear_122_961" x1="104.549" y1="141.362" x2="92.9518" y2="147.719" gradientUnits="userSpaceOnUse">
<stop stop-opacity="0"/>
<stop offset="0.97"/>
</linearGradient>
<linearGradient id="paint1_linear_122_961" x1="27.9538" y1="194.905" x2="127.297" y2="200.77" gradientUnits="userSpaceOnUse">
<stop stop-opacity="0"/>
<stop offset="0.97"/>
</linearGradient>
<linearGradient id="paint2_linear_122_961" x1="37.0872" y1="167.557" x2="37.0872" y2="262.91" gradientUnits="userSpaceOnUse">
<stop stop-opacity="0"/>
<stop offset="0.97"/>
</linearGradient>
<linearGradient id="paint3_linear_122_961" x1="94.6936" y1="131.589" x2="80.2306" y2="257.967" gradientUnits="userSpaceOnUse">
<stop stop-opacity="0"/>
<stop offset="0.97"/>
</linearGradient>
<linearGradient id="paint4_linear_122_961" x1="37.1616" y1="301.252" x2="52.7337" y2="301.252" gradientUnits="userSpaceOnUse">
<stop stop-color="#ECC4D7"/>
<stop offset="0.42" stop-color="#EFD4D1"/>
<stop offset="1" stop-color="#F2EAC9"/>
</linearGradient>
<linearGradient id="paint5_linear_122_961" x1="54.4979" y1="301.311" x2="70.6431" y2="301.311" gradientUnits="userSpaceOnUse">
<stop stop-color="#ECC4D7"/>
<stop offset="0.42" stop-color="#EFD4D1"/>
<stop offset="1" stop-color="#F2EAC9"/>
</linearGradient>
<linearGradient id="paint6_linear_122_961" x1="201.912" y1="-163.165" x2="211.135" y2="298.758" gradientUnits="userSpaceOnUse">
<stop stop-color="white" stop-opacity="0"/>
<stop offset="0.84" stop-color="white" stop-opacity="0.84"/>
<stop offset="0.97" stop-color="white"/>
</linearGradient>
<linearGradient id="paint7_linear_122_961" x1="196.835" y1="73.8931" x2="196.999" y2="81.7908" gradientUnits="userSpaceOnUse">
<stop stop-color="white" stop-opacity="0"/>
<stop offset="0.84" stop-color="white" stop-opacity="0.84"/>
<stop offset="0.97" stop-color="white"/>
</linearGradient>
<linearGradient id="paint8_linear_122_961" x1="181.263" y1="65.7349" x2="181.472" y2="70.6849" gradientUnits="userSpaceOnUse">
<stop stop-opacity="0"/>
<stop offset="0.97"/>
</linearGradient>
<linearGradient id="paint9_linear_122_961" x1="186.042" y1="143.715" x2="179.73" y2="154.381" gradientUnits="userSpaceOnUse">
<stop stop-opacity="0"/>
<stop offset="0.97"/>
</linearGradient>
<linearGradient id="paint10_linear_122_961" x1="174.117" y1="137.417" x2="164.545" y2="177.873" gradientUnits="userSpaceOnUse">
<stop stop-opacity="0"/>
<stop offset="0.97"/>
</linearGradient>
<linearGradient id="paint11_linear_122_961" x1="242.301" y1="199.319" x2="236.569" y2="213.916" gradientUnits="userSpaceOnUse">
<stop stop-opacity="0"/>
<stop offset="0.97"/>
</linearGradient>
<linearGradient id="paint12_linear_122_961" x1="174.4" y1="186.962" x2="175.078" y2="194.086" gradientUnits="userSpaceOnUse">
<stop stop-opacity="0"/>
<stop offset="0.97"/>
</linearGradient>
<linearGradient id="paint13_linear_122_961" x1="166.51" y1="214.533" x2="185.409" y2="214.533" gradientUnits="userSpaceOnUse">
<stop stop-opacity="0"/>
<stop offset="0.97"/>
</linearGradient>
<linearGradient id="paint14_linear_122_961" x1="58.845" y1="137.484" x2="82.6944" y2="149.766" gradientUnits="userSpaceOnUse">
<stop stop-color="#ECC4D7"/>
<stop offset="0.42" stop-color="#EFD4D1"/>
<stop offset="1" stop-color="#F2EAC9"/>
</linearGradient>
<linearGradient id="paint15_linear_122_961" x1="50.4783" y1="197.16" x2="136.825" y2="208.899" gradientUnits="userSpaceOnUse">
<stop stop-opacity="0"/>
<stop offset="0.97"/>
</linearGradient>
<linearGradient id="paint16_linear_122_961" x1="56.0015" y1="213.045" x2="56.0015" y2="317.211" gradientUnits="userSpaceOnUse">
<stop stop-opacity="0"/>
<stop offset="0.97"/>
</linearGradient>
<linearGradient id="paint17_linear_122_961" x1="44.6425" y1="345.817" x2="43.8013" y2="327.863" gradientUnits="userSpaceOnUse">
<stop stop-color="white" stop-opacity="0"/>
<stop offset="0.84" stop-color="white" stop-opacity="0.84"/>
<stop offset="0.97" stop-color="white"/>
</linearGradient>
<linearGradient id="paint18_linear_122_961" x1="64.4128" y1="342.013" x2="63.5047" y2="330.275" gradientUnits="userSpaceOnUse">
<stop stop-color="white" stop-opacity="0"/>
<stop offset="0.69" stop-color="white" stop-opacity="0.58"/>
<stop offset="0.84" stop-color="white" stop-opacity="0.84"/>
<stop offset="0.97" stop-color="white"/>
</linearGradient>
<linearGradient id="paint19_linear_122_961" x1="177.065" y1="156.354" x2="222.963" y2="166.619" gradientUnits="userSpaceOnUse">
<stop stop-opacity="0"/>
<stop offset="0.97"/>
</linearGradient>
<linearGradient id="paint20_linear_122_961" x1="154.742" y1="212.561" x2="199.173" y2="220.109" gradientUnits="userSpaceOnUse">
<stop stop-color="white" stop-opacity="0"/>
<stop offset="0.84" stop-color="white" stop-opacity="0.84"/>
<stop offset="0.97" stop-color="white"/>
</linearGradient>
<linearGradient id="paint21_linear_122_961" x1="198.704" y1="207.112" x2="163.488" y2="224.716" gradientUnits="userSpaceOnUse">
<stop stop-color="white" stop-opacity="0"/>
<stop offset="0.84" stop-color="white" stop-opacity="0.84"/>
<stop offset="0.97" stop-color="white"/>
</linearGradient>
<linearGradient id="paint22_linear_122_961" x1="88.0986" y1="168.561" x2="99.3534" y2="168.561" gradientUnits="userSpaceOnUse">
<stop stop-color="#ECC4D7"/>
<stop offset="0.42" stop-color="#EFD4D1"/>
<stop offset="1" stop-color="#F2EAC9"/>
</linearGradient>
<linearGradient id="paint23_linear_122_961" x1="223.699" y1="226.458" x2="286.576" y2="221.009" gradientUnits="userSpaceOnUse">
<stop stop-opacity="0"/>
<stop offset="0.97"/>
</linearGradient>
<linearGradient id="paint24_linear_122_961" x1="237.768" y1="193.26" x2="238.17" y2="213.484" gradientUnits="userSpaceOnUse">
<stop stop-color="white" stop-opacity="0"/>
<stop offset="0.84" stop-color="white" stop-opacity="0.84"/>
<stop offset="0.97" stop-color="white"/>
</linearGradient>
<linearGradient id="paint25_linear_122_961" x1="215.095" y1="155.505" x2="215.586" y2="179.861" gradientUnits="userSpaceOnUse">
<stop stop-color="white" stop-opacity="0"/>
<stop offset="0.84" stop-color="white" stop-opacity="0.84"/>
<stop offset="0.97" stop-color="white"/>
</linearGradient>
<linearGradient id="paint26_linear_122_961" x1="223.32" y1="162.979" x2="145.63" y2="166.47" gradientUnits="userSpaceOnUse">
<stop stop-opacity="0"/>
<stop offset="0.97"/>
</linearGradient>
<linearGradient id="paint27_linear_122_961" x1="227.563" y1="139.851" x2="216.248" y2="219.707" gradientUnits="userSpaceOnUse">
<stop stop-color="white" stop-opacity="0"/>
<stop offset="0.84" stop-color="white" stop-opacity="0.84"/>
<stop offset="0.97" stop-color="white"/>
</linearGradient>
<linearGradient id="paint28_linear_122_961" x1="230.391" y1="163.167" x2="170.611" y2="169.793" gradientUnits="userSpaceOnUse">
<stop stop-opacity="0"/>
<stop offset="0.97"/>
</linearGradient>
<linearGradient id="paint29_linear_122_961" x1="237.351" y1="138.601" x2="225.523" y2="222.066" gradientUnits="userSpaceOnUse">
<stop stop-color="white" stop-opacity="0"/>
<stop offset="0.84" stop-color="white" stop-opacity="0.84"/>
<stop offset="0.97" stop-color="white"/>
</linearGradient>
<linearGradient id="paint30_linear_122_961" x1="242.415" y1="162.252" x2="159.655" y2="171.421" gradientUnits="userSpaceOnUse">
<stop stop-opacity="0"/>
<stop offset="0.97"/>
</linearGradient>
<linearGradient id="paint31_linear_122_961" x1="248.063" y1="140.812" x2="237.232" y2="217.213" gradientUnits="userSpaceOnUse">
<stop stop-color="white" stop-opacity="0"/>
<stop offset="0.84" stop-color="white" stop-opacity="0.84"/>
<stop offset="0.97" stop-color="white"/>
</linearGradient>
<linearGradient id="paint32_linear_122_961" x1="256.506" y1="161.224" x2="133.799" y2="174.825" gradientUnits="userSpaceOnUse">
<stop stop-opacity="0"/>
<stop offset="0.97"/>
</linearGradient>
<linearGradient id="paint33_linear_122_961" x1="229.736" y1="145.441" x2="272.701" y2="174.576" gradientUnits="userSpaceOnUse">
<stop stop-opacity="0"/>
<stop offset="0.97"/>
</linearGradient>
<linearGradient id="paint34_linear_122_961" x1="229.922" y1="83.4657" x2="239.078" y2="88.7804" gradientUnits="userSpaceOnUse">
<stop stop-opacity="0"/>
<stop offset="0.97"/>
</linearGradient>
<linearGradient id="paint35_linear_122_961" x1="235.833" y1="92.8074" x2="228.009" y2="188.376" gradientUnits="userSpaceOnUse">
<stop stop-opacity="0"/>
<stop offset="0.97"/>
</linearGradient>
<linearGradient id="paint36_linear_122_961" x1="255.216" y1="93.388" x2="240.76" y2="171.77" gradientUnits="userSpaceOnUse">
<stop stop-opacity="0"/>
<stop offset="0.97"/>
</linearGradient>
<linearGradient id="paint37_linear_122_961" x1="255.811" y1="85.7509" x2="235.133" y2="89.9417" gradientUnits="userSpaceOnUse">
<stop stop-opacity="0"/>
<stop offset="0.97"/>
</linearGradient>
<linearGradient id="paint38_linear_122_961" x1="242.562" y1="82.0365" x2="239.629" y2="114.662" gradientUnits="userSpaceOnUse">
<stop stop-opacity="0"/>
<stop offset="0.97"/>
</linearGradient>
<linearGradient id="paint39_linear_122_961" x1="178.301" y1="65.7944" x2="177.199" y2="68.9059" gradientUnits="userSpaceOnUse">
<stop stop-color="white" stop-opacity="0"/>
<stop offset="0.84" stop-color="white" stop-opacity="0.84"/>
<stop offset="0.97" stop-color="white"/>
</linearGradient>
<linearGradient id="paint40_linear_122_961" x1="183.236" y1="64.5439" x2="183.325" y2="69.0398" gradientUnits="userSpaceOnUse">
<stop stop-color="white" stop-opacity="0"/>
<stop offset="0.84" stop-color="white" stop-opacity="0.84"/>
<stop offset="0.97" stop-color="white"/>
</linearGradient>
<linearGradient id="paint41_linear_122_961" x1="161.843" y1="69.4493" x2="162.066" y2="80.6445" gradientUnits="userSpaceOnUse">
<stop stop-color="white" stop-opacity="0"/>
<stop offset="0.84" stop-color="white" stop-opacity="0.84"/>
<stop offset="0.97" stop-color="white"/>
</linearGradient>
<linearGradient id="paint42_linear_122_961" x1="194.848" y1="94.6832" x2="94.6638" y2="97.1992" gradientUnits="userSpaceOnUse">
<stop stop-opacity="0"/>
<stop offset="0.97"/>
</linearGradient>
<linearGradient id="paint43_linear_122_961" x1="172.294" y1="97.8468" x2="150.283" y2="92.5023" gradientUnits="userSpaceOnUse">
<stop stop-color="white" stop-opacity="0"/>
<stop offset="0.84" stop-color="white" stop-opacity="0.84"/>
<stop offset="0.97" stop-color="white"/>
</linearGradient>
<linearGradient id="paint44_linear_122_961" x1="49.3022" y1="250.166" x2="-65.6873" y2="242.76" gradientUnits="userSpaceOnUse">
<stop stop-opacity="0"/>
<stop offset="0.97"/>
</linearGradient>
<linearGradient id="paint45_linear_122_961" x1="58.2643" y1="252.474" x2="-23.4744" y2="266.304" gradientUnits="userSpaceOnUse">
<stop stop-opacity="0"/>
<stop offset="0.97"/>
</linearGradient>
<linearGradient id="paint46_linear_122_961" x1="69.8988" y1="251.997" x2="81.5556" y2="251.997" gradientUnits="userSpaceOnUse">
<stop stop-opacity="0"/>
<stop offset="0.97"/>
</linearGradient>
<linearGradient id="paint47_linear_122_961" x1="69.2661" y1="227.299" x2="69.2661" y2="304.922" gradientUnits="userSpaceOnUse">
<stop stop-opacity="0"/>
<stop offset="0.97"/>
</linearGradient>
<linearGradient id="paint48_linear_122_961" x1="55.607" y1="152.163" x2="55.607" y2="185.593" gradientUnits="userSpaceOnUse">
<stop stop-opacity="0"/>
<stop offset="0.97"/>
</linearGradient>
<linearGradient id="paint49_linear_122_961" x1="212.378" y1="267.8" x2="212.802" y2="344.507" gradientUnits="userSpaceOnUse">
<stop stop-opacity="0"/>
<stop offset="0.97"/>
</linearGradient>
</defs>
</svg>
