<svg width="388" height="357" viewBox="0 0 388 357" fill="none" xmlns="http://www.w3.org/2000/svg">
<path opacity="0.24" d="M190.413 1.06749C157.109 -0.665398 122.446 -2.14636 91.8592 12.4648C56.5868 29.3204 31.4961 65.9705 18.1953 105.705C4.89451 145.439 1.9973 188.387 0.631873 230.709C-0.754351 272.772 2.8221 322.422 35.1558 344.858C55.4293 358.92 81.1714 357.561 105.07 355.721L288.62 341.614C315.908 339.514 345.524 336.346 365.465 315.727C391.193 289.139 390.736 243.671 380.714 206.411C370.691 169.15 352.989 133.889 350.348 95.1166C348.054 62.146 356.607 16.4421 320.33 7.39595C280.496 -2.51279 231.334 3.19733 190.413 1.06749Z" fill="#4D4C7D"/>
<path opacity="0.24" d="M144.279 312.506C133.661 312.575 122.53 314.155 113.866 320.903C112.417 322.033 110.989 323.399 110.462 325.262C109.076 330.148 114.392 333.988 118.87 335.354C131.235 339.133 144.272 338.888 157.095 338.621L196.651 337.789C199.992 337.713 203.832 337.369 205.786 334.377C207.491 331.766 206.964 327.964 205.245 325.361C203.527 322.758 200.865 321.117 198.21 319.766C181.354 311.2 162.439 312.391 144.279 312.506Z" fill="#4D4C7D"/>
<path d="M316.289 45.466H177.271V80.1618H316.289V45.466Z" fill="url(#paint0_linear_122_762)"/>
<path d="M316.289 93.3837H177.271V128.08H316.289V93.3837Z" fill="url(#paint1_linear_122_762)"/>
<path d="M316.289 141.301H177.271V175.997H316.289V141.301Z" fill="url(#paint2_linear_122_762)"/>
<path d="M316.289 189.219H177.271V223.915H316.289V189.219Z" fill="url(#paint3_linear_122_762)"/>
<path d="M316.289 237.137H177.271V271.833H316.289V237.137Z" fill="url(#paint4_linear_122_762)"/>
<path d="M316.289 285.055H177.271V319.75H316.289V285.055Z" fill="url(#paint5_linear_122_762)"/>
<path d="M181.846 299.49L182.712 309.414C182.712 309.414 179.247 315.162 174.755 315.521C170.264 315.88 168.718 313.506 168.718 313.506L169.453 298.902" fill="#E9CAC5"/>
<path d="M168.718 313.521L169.016 307.666L182.22 303.765L182.712 309.429C182.712 309.429 179.247 315.178 174.755 315.537C170.264 315.895 168.718 313.521 168.718 313.521Z" fill="white"/>
<path d="M139.67 300.544L138.783 310.735C138.783 310.735 142.325 316.643 146.955 317.017C151.585 317.392 153.151 314.949 153.151 314.949L152.396 299.948" fill="#E9CAC5"/>
<path d="M153.151 314.949L152.853 308.941L139.289 304.918L138.783 310.735C138.783 310.735 142.325 316.643 146.955 317.017C151.585 317.391 153.151 314.949 153.151 314.949Z" fill="white"/>
<path d="M150.753 77.6732C150.753 77.6732 132.85 87.2003 132.448 90.3225C132.046 93.4448 134.472 170.173 134.472 170.173C134.472 170.173 140.28 178.471 158.079 178.471C176.308 178.471 181 172.73 181.811 170.073C182.622 167.417 185.533 90.9027 185.131 87.6278C184.729 84.3528 168.219 77.7038 168.219 77.7038L150.753 77.6732Z" fill="#4D4C7D"/>
<path d="M152.458 84.8567V175.608C152.458 175.608 160.741 180.097 170.618 174.646L167.152 79.116L159.049 85.5055L152.458 84.8567Z" fill="#F2FBFF"/>
<path d="M150.808 65.7568C150.808 65.7568 150.677 72.6272 150.753 77.6732C150.808 81.4291 151.973 88.643 159.23 88.643C166.487 88.643 167.339 79.4824 167.207 77.6732C167.11 76.3907 167.679 73.7647 167.207 69.6729C166.729 65.2911 151.21 62.7108 150.808 65.7568Z" fill="#E9CAC5"/>
<path d="M153.706 78.4442C154.445 79.2043 155.318 79.789 156.27 80.1618C157.662 80.7461 159.149 81.0061 160.637 80.9252C161.538 80.8947 162.421 80.6334 163.215 80.1618C164.084 79.5434 164.833 78.7417 165.419 77.803C166.133 76.907 166.688 75.8712 167.055 74.7494C167.215 74.1046 167.304 73.4406 167.318 72.7723C167.376 71.3531 167.33 69.9311 167.18 68.5202C163.465 68.963 159.75 69.2836 156.028 69.5737C153.893 69.7416 150.219 70.276 151.176 73.5891C151.668 75.4005 152.534 77.062 153.706 78.4442Z" fill="url(#paint6_linear_122_762)"/>
<path d="M134.472 170.173C134.472 170.173 133.661 184.677 135.692 227.762C137.722 270.848 138.734 300.986 138.734 300.986C138.734 300.986 138.998 304.506 145.728 304.612C152.458 304.719 154.246 299.818 154.246 299.818L160.824 189.41L167.692 302.086C167.692 302.086 175.774 307.2 182.075 303.36C186.545 300.635 181.818 170.089 181.818 170.089C181.818 170.089 160.221 183.15 134.472 170.173Z" fill="#606161"/>
<path d="M134.472 170.173C134.472 170.173 133.661 184.677 135.692 227.762C137.722 270.848 138.734 300.986 138.734 300.986C138.734 300.986 138.998 304.506 145.728 304.612C152.458 304.719 154.246 299.818 154.246 299.818L160.824 189.41L167.692 302.086C167.692 302.086 175.774 307.2 182.075 303.36C186.545 300.635 181.818 170.089 181.818 170.089C181.818 170.089 160.221 183.15 134.472 170.173Z" fill="url(#paint7_linear_122_762)"/>
<path d="M185.131 87.643C185.131 87.643 193.255 125.247 193.885 131.645C194.516 138.042 189.151 153.279 185.831 152.256C178.457 149.966 179.635 136.095 179.635 136.095L185.131 87.643Z" fill="#4D4C7D"/>
<path d="M190.233 157.958C190.416 157.733 190.653 157.57 190.917 157.488C191.18 157.405 191.46 157.407 191.723 157.493C191.987 157.653 192.219 157.871 192.403 158.134C192.588 158.396 192.722 158.698 192.797 159.02C194.433 163.6 194.239 167.661 194.371 172.371C194.468 175.684 194.807 179.356 194.163 182.623C193.594 185.509 185.845 192.731 184.764 191.868C183.683 191.005 186.046 188.547 187.592 187.105C189.138 185.662 189.221 182.051 189.449 180.898C189.678 179.745 187.148 179.738 187.828 176.28C188.334 173.715 189.345 172.463 189.172 169.783C188.965 166.608 189.06 163.417 189.456 160.264C189.503 159.546 189.702 158.85 190.039 158.233C190.097 158.136 190.162 158.045 190.233 157.958Z" fill="#E9CAC5"/>
<path d="M181.846 146.21C181.728 146.782 188.285 170.516 188.285 170.516C188.285 170.516 191.196 171.18 195.764 168.745C195.764 168.745 194.911 135.423 194.156 133.11C193.4 130.797 191.938 131.332 185.145 133.981C178.353 136.629 181.846 146.21 181.846 146.21Z" fill="#4D4C7D"/>
<path d="M131.893 88.811C131.893 88.811 123.763 126.415 123.139 132.813C122.516 139.21 127.866 154.447 131.186 153.424C138.561 151.134 137.39 137.255 137.39 137.255L131.893 88.811Z" fill="#4D4C7D"/>
<path d="M126.785 159.104C126.602 158.879 126.365 158.715 126.101 158.633C125.837 158.55 125.558 158.552 125.295 158.638C125.029 158.795 124.797 159.013 124.613 159.276C124.429 159.539 124.298 159.842 124.227 160.165C122.585 164.745 122.786 168.798 122.647 173.509C122.557 176.822 122.217 180.501 122.855 183.768C123.423 186.654 131.172 193.868 132.261 193.005C133.349 192.143 130.971 189.685 129.426 188.242C127.88 186.799 127.797 183.188 127.568 182.036C127.34 180.883 129.869 180.883 129.19 177.417C128.684 174.86 127.679 173.6 127.845 170.921C128.053 167.748 127.957 164.56 127.561 161.409C127.517 160.692 127.32 159.996 126.986 159.378C126.927 159.28 126.86 159.188 126.785 159.104Z" fill="#E9CAC5"/>
<path d="M135.172 147.37C135.297 147.943 128.733 171.676 128.733 171.676C128.733 171.676 125.822 172.341 121.254 169.905C121.254 169.905 122.107 136.584 122.862 134.271C123.618 131.958 125.08 132.492 131.873 135.148C138.665 137.805 135.172 147.37 135.172 147.37Z" fill="#4D4C7D"/>
<path d="M145.028 312.422C142.484 310.987 139.698 309.368 136.925 310.132C135.517 310.603 134.217 311.402 133.113 312.475C130.833 314.452 128.629 316.766 127.61 319.758C126.591 322.751 127.062 326.575 129.398 328.484C131.138 329.911 133.467 330.01 135.636 330.01C138.333 330.114 141.03 329.803 143.649 329.087C145.625 328.395 147.52 327.444 149.29 326.254C151.37 324.934 153.484 323.384 154.558 321.018C155.369 319.231 155.542 315.353 153.505 314.292C152.541 313.796 150.808 314.521 149.63 314.292C148.016 313.942 146.462 313.31 145.028 312.422Z" fill="#4D4C7D"/>
<path d="M175.899 312.422C178.436 310.987 181.222 309.368 183.995 310.132C185.403 310.603 186.703 311.402 187.807 312.475C190.087 314.452 192.291 316.766 193.31 319.758C194.329 322.751 193.858 326.575 191.529 328.484C189.789 329.911 187.453 330.01 185.291 330.01C182.594 330.114 179.897 329.803 177.278 329.087C175.301 328.395 173.407 327.444 171.636 326.254C169.557 324.934 167.478 323.384 166.369 321.018C165.558 319.231 165.385 315.353 167.422 314.292C168.386 313.796 170.119 314.521 171.297 314.292C172.911 313.941 174.465 313.31 175.899 312.422Z" fill="#4D4C7D"/>
<path d="M177.514 113.827L175.767 172.806L181.818 170.089L182.941 151.348L180.813 137.065L177.514 113.827Z" fill="url(#paint8_linear_122_762)"/>
<path d="M145.062 44.214C145.189 52.0628 146.225 59.8616 148.147 67.421C148.539 69.3504 149.266 71.178 150.289 72.8028C151.524 74.4825 153.256 75.6309 155.182 76.0472C157.084 76.4344 159.04 76.3615 160.914 75.8335C163.484 75.288 165.82 73.8259 167.561 71.673C168.582 70.1885 169.36 68.5198 169.862 66.7415C171.755 60.7281 172.356 54.3127 171.616 48.0004C171.248 44.9469 170.451 41.733 168.372 39.8398C167.12 38.8097 165.66 38.131 164.116 37.8627C158.573 36.65 152.819 37.6485 147.883 40.6796C147.087 41.0928 146.403 41.73 145.901 42.527C145.473 43.4741 145.264 44.5229 145.291 45.5805" fill="#E9CAC5"/>
<path d="M146.144 57.6572C145.922 55.1915 144.806 52.9548 143.773 50.7868C142.741 48.6188 141.756 46.2065 141.847 43.7636C141.937 41.3208 143.462 38.71 145.693 38.4199C146.255 35.0839 147.773 31.809 150.323 29.9311C153.983 27.2211 158.835 27.931 163.063 29.328C166.48 30.4578 170.139 32.3815 171.422 36.0153C171.826 37.3338 172.06 38.7088 172.115 40.0994C172.475 45.0308 172.745 50.3745 170.271 54.4968C170.36 50.935 169.974 47.3781 169.127 43.9392C163.394 46.4448 157.034 46.6019 151.204 44.382C144.973 42.0078 145.763 53.3747 146.144 57.6572Z" fill="#606161"/>
<path d="M303.716 248.313H285.14C283.391 248.313 281.973 249.875 281.973 251.801V261.939C281.973 263.866 283.391 265.428 285.14 265.428H303.716C305.465 265.428 306.883 263.866 306.883 261.939V251.801C306.883 249.875 305.465 248.313 303.716 248.313Z" fill="#4D4C7D"/>
<path d="M295.073 251.855H292.758C291.787 251.855 290.856 251.43 290.17 250.674C289.483 249.918 289.098 248.893 289.098 247.824C289.098 246.755 289.483 245.73 290.17 244.974C290.856 244.218 291.787 243.794 292.758 243.794H295.073C296.043 243.794 296.974 244.218 297.66 244.974C298.347 245.73 298.732 246.755 298.732 247.824C298.732 248.893 298.347 249.918 297.66 250.674C296.974 251.43 296.043 251.855 295.073 251.855ZM292.758 246.511C292.432 246.511 292.12 246.654 291.89 246.907C291.66 247.16 291.531 247.504 291.531 247.862C291.531 248.221 291.66 248.564 291.89 248.818C292.12 249.071 292.432 249.214 292.758 249.214H295.073C295.398 249.214 295.71 249.071 295.94 248.818C296.17 248.564 296.299 248.221 296.299 247.862C296.299 247.504 296.17 247.16 295.94 246.907C295.71 246.654 295.398 246.511 295.073 246.511H292.758Z" fill="#4D4C7D"/>
<path d="M302.988 106.048V123.415H297.575V112.468H292.619V123.415H286.624V106.048L294.781 101.323L302.988 106.048Z" fill="#4D4C7D"/>
<path d="M284.6 105.896C284.465 105.893 284.336 105.842 284.231 105.749C284.126 105.657 284.051 105.529 284.019 105.386C283.986 105.242 283.998 105.091 284.052 104.955C284.105 104.82 284.198 104.708 284.316 104.636L294.712 98.4907L305.081 104.384C305.152 104.425 305.214 104.48 305.265 104.547C305.316 104.615 305.355 104.692 305.379 104.776C305.403 104.86 305.411 104.948 305.404 105.035C305.397 105.122 305.374 105.207 305.338 105.285C305.301 105.363 305.25 105.431 305.189 105.488C305.128 105.544 305.058 105.586 304.982 105.613C304.906 105.639 304.826 105.648 304.747 105.641C304.667 105.633 304.59 105.608 304.52 105.567L294.754 100.002L284.926 105.819C284.825 105.876 284.713 105.902 284.6 105.896Z" fill="#4D4C7D"/>
<path d="M294.088 167.646C292.12 167.104 286.637 162.928 285.203 159.073C284.883 158.262 284.707 157.392 284.683 156.508C284.729 155.28 285.142 154.104 285.858 153.161C286.574 152.218 287.552 151.562 288.641 151.294C289.754 151.032 290.914 151.163 291.956 151.667C292.998 152.171 293.871 153.023 294.449 154.103C295.096 152.954 296.071 152.073 297.221 151.599C300.354 150.363 302.641 153.676 302.766 154.699C303.75 163.302 294.088 167.646 294.088 167.646Z" fill="#4D4C7D"/>
<path d="M294.282 219.617V216.373C292.701 216.365 291.153 215.874 289.812 214.953L290.505 212.8C291.758 213.695 293.219 214.174 294.712 214.182C296.791 214.182 298.178 212.861 298.178 211.029C298.178 209.197 297.041 208.166 294.878 207.212C291.898 205.922 290.061 204.441 290.061 201.647C290.061 198.975 291.787 196.952 294.469 196.471V193.219H296.278V196.341C297.611 196.353 298.918 196.739 300.077 197.464L299.349 199.586C298.235 198.86 296.963 198.482 295.669 198.494C293.416 198.494 292.57 199.975 292.57 201.265C292.57 202.929 293.652 203.769 296.195 204.93C299.203 206.281 300.721 207.983 300.721 210.815C300.721 213.35 299.113 215.731 296.105 216.281V219.625L294.282 219.617Z" fill="#4D4C7D"/>
<path d="M290.124 74.5204C295.151 74.3525 300.176 74.3168 305.199 74.4135C305.455 72.6277 305.216 70.7984 304.514 69.1642C303.812 67.5301 302.679 66.167 301.262 65.2529C300.569 64.8102 299.71 64.3903 299.488 63.5277C299.266 62.665 299.737 61.8788 299.98 61.0696C300.23 60.2551 300.252 59.3766 300.041 58.5486C299.831 57.7206 299.399 56.9816 298.802 56.4282C298.184 55.904 297.419 55.6339 296.639 55.6645C295.86 55.6952 295.115 56.0247 294.532 56.5961C294.057 57.1413 293.712 57.8074 293.527 58.5351C293.1 59.8998 293.169 61.3938 293.721 62.7032C294.039 63.1826 294.227 63.7519 294.262 64.3445C294.206 64.9781 293.707 65.4285 293.285 65.8713C292.234 66.9861 291.409 68.333 290.865 69.8236C290.32 71.3142 290.067 72.9148 290.124 74.5204Z" fill="#4D4C7D"/>
<path d="M302.884 314.857H285.057V292.2L300.028 292.169L302.884 295.444V314.857Z" fill="#4D4C7D"/>
<path d="M299.224 299.91H289.056V302.047H299.224V299.91Z" fill="url(#paint9_linear_122_762)"/>
<path d="M299.224 306.803H289.056V308.941H299.224V306.803Z" fill="url(#paint10_linear_122_762)"/>
<path opacity="0.24" d="M278.833 61.6879H216.1C214.492 61.6879 213.188 63.1234 213.188 64.8941V64.9018C213.188 66.6725 214.492 68.108 216.1 68.108H278.833C280.441 68.108 281.744 66.6725 281.744 64.9018V64.8941C281.744 63.1234 280.441 61.6879 278.833 61.6879Z" fill="#4D4C7D"/>
<path opacity="0.24" d="M278.833 110.766H216.1C214.492 110.766 213.188 112.201 213.188 113.972V113.98C213.188 115.751 214.492 117.186 216.1 117.186H278.833C280.441 117.186 281.744 115.751 281.744 113.98V113.972C281.744 112.201 280.441 110.766 278.833 110.766Z" fill="#4D4C7D"/>
<path opacity="0.24" d="M278.833 159.844H216.1C214.492 159.844 213.188 161.279 213.188 163.05V163.058C213.188 164.829 214.492 166.264 216.1 166.264H278.833C280.441 166.264 281.744 164.829 281.744 163.058V163.05C281.744 161.279 280.441 159.844 278.833 159.844Z" fill="#4D4C7D"/>
<path opacity="0.24" d="M278.833 208.922H216.1C214.492 208.922 213.188 210.358 213.188 212.128V212.136C213.188 213.907 214.492 215.342 216.1 215.342H278.833C280.441 215.342 281.744 213.907 281.744 212.136V212.128C281.744 210.358 280.441 208.922 278.833 208.922Z" fill="#4D4C7D"/>
<path opacity="0.24" d="M278.833 258H216.1C214.492 258 213.188 259.436 213.188 261.206V261.214C213.188 262.985 214.492 264.42 216.1 264.42H278.833C280.441 264.42 281.744 262.985 281.744 261.214V261.206C281.744 259.436 280.441 258 278.833 258Z" fill="#4D4C7D"/>
<path opacity="0.24" d="M278.833 307.086H216.1C214.492 307.086 213.188 308.521 213.188 310.292V310.3C213.188 312.07 214.492 313.506 216.1 313.506H278.833C280.441 313.506 281.744 312.07 281.744 310.3V310.292C281.744 308.521 280.441 307.086 278.833 307.086Z" fill="#4D4C7D"/>
<defs>
<linearGradient id="paint0_linear_122_762" x1="177.271" y1="62.8177" x2="316.296" y2="62.8177" gradientUnits="userSpaceOnUse">
<stop stop-color="white" stop-opacity="0"/>
<stop offset="0.13" stop-color="white" stop-opacity="0.23"/>
<stop offset="0.23" stop-color="white" stop-opacity="0.41"/>
<stop offset="0.35" stop-color="white" stop-opacity="0.59"/>
<stop offset="0.48" stop-color="white" stop-opacity="0.74"/>
<stop offset="0.6" stop-color="white" stop-opacity="0.85"/>
<stop offset="0.72" stop-color="white" stop-opacity="0.93"/>
<stop offset="0.84" stop-color="white" stop-opacity="0.98"/>
<stop offset="0.95" stop-color="white"/>
</linearGradient>
<linearGradient id="paint1_linear_122_762" x1="177.271" y1="110.735" x2="316.296" y2="110.735" gradientUnits="userSpaceOnUse">
<stop stop-color="white" stop-opacity="0"/>
<stop offset="0.13" stop-color="white" stop-opacity="0.23"/>
<stop offset="0.23" stop-color="white" stop-opacity="0.41"/>
<stop offset="0.35" stop-color="white" stop-opacity="0.59"/>
<stop offset="0.48" stop-color="white" stop-opacity="0.74"/>
<stop offset="0.6" stop-color="white" stop-opacity="0.85"/>
<stop offset="0.72" stop-color="white" stop-opacity="0.93"/>
<stop offset="0.84" stop-color="white" stop-opacity="0.98"/>
<stop offset="0.95" stop-color="white"/>
</linearGradient>
<linearGradient id="paint2_linear_122_762" x1="177.271" y1="158.653" x2="316.296" y2="158.653" gradientUnits="userSpaceOnUse">
<stop stop-color="white" stop-opacity="0"/>
<stop offset="0.13" stop-color="white" stop-opacity="0.23"/>
<stop offset="0.23" stop-color="white" stop-opacity="0.41"/>
<stop offset="0.35" stop-color="white" stop-opacity="0.59"/>
<stop offset="0.48" stop-color="white" stop-opacity="0.74"/>
<stop offset="0.6" stop-color="white" stop-opacity="0.85"/>
<stop offset="0.72" stop-color="white" stop-opacity="0.93"/>
<stop offset="0.84" stop-color="white" stop-opacity="0.98"/>
<stop offset="0.95" stop-color="white"/>
</linearGradient>
<linearGradient id="paint3_linear_122_762" x1="177.271" y1="206.563" x2="316.296" y2="206.563" gradientUnits="userSpaceOnUse">
<stop stop-color="white" stop-opacity="0"/>
<stop offset="0.13" stop-color="white" stop-opacity="0.23"/>
<stop offset="0.23" stop-color="white" stop-opacity="0.41"/>
<stop offset="0.35" stop-color="white" stop-opacity="0.59"/>
<stop offset="0.48" stop-color="white" stop-opacity="0.74"/>
<stop offset="0.6" stop-color="white" stop-opacity="0.85"/>
<stop offset="0.72" stop-color="white" stop-opacity="0.93"/>
<stop offset="0.84" stop-color="white" stop-opacity="0.98"/>
<stop offset="0.95" stop-color="white"/>
</linearGradient>
<linearGradient id="paint4_linear_122_762" x1="177.271" y1="254.481" x2="316.296" y2="254.481" gradientUnits="userSpaceOnUse">
<stop stop-color="white" stop-opacity="0"/>
<stop offset="0.13" stop-color="white" stop-opacity="0.23"/>
<stop offset="0.23" stop-color="white" stop-opacity="0.41"/>
<stop offset="0.35" stop-color="white" stop-opacity="0.59"/>
<stop offset="0.48" stop-color="white" stop-opacity="0.74"/>
<stop offset="0.6" stop-color="white" stop-opacity="0.85"/>
<stop offset="0.72" stop-color="white" stop-opacity="0.93"/>
<stop offset="0.84" stop-color="white" stop-opacity="0.98"/>
<stop offset="0.95" stop-color="white"/>
</linearGradient>
<linearGradient id="paint5_linear_122_762" x1="177.271" y1="302.399" x2="316.296" y2="302.399" gradientUnits="userSpaceOnUse">
<stop stop-color="white" stop-opacity="0"/>
<stop offset="0.13" stop-color="white" stop-opacity="0.23"/>
<stop offset="0.23" stop-color="white" stop-opacity="0.41"/>
<stop offset="0.35" stop-color="white" stop-opacity="0.59"/>
<stop offset="0.48" stop-color="white" stop-opacity="0.74"/>
<stop offset="0.6" stop-color="white" stop-opacity="0.85"/>
<stop offset="0.72" stop-color="white" stop-opacity="0.93"/>
<stop offset="0.84" stop-color="white" stop-opacity="0.98"/>
<stop offset="0.95" stop-color="white"/>
</linearGradient>
<linearGradient id="paint6_linear_122_762" x1="158.717" y1="81.9482" x2="161.834" y2="29.6506" gradientUnits="userSpaceOnUse">
<stop stop-color="#010101" stop-opacity="0"/>
<stop offset="0.95" stop-color="#010101"/>
</linearGradient>
<linearGradient id="paint7_linear_122_762" x1="158.058" y1="269.252" x2="162.867" y2="118.305" gradientUnits="userSpaceOnUse">
<stop stop-color="#010101" stop-opacity="0"/>
<stop offset="0.95" stop-color="#010101"/>
</linearGradient>
<linearGradient id="paint8_linear_122_762" x1="172.33" y1="143.576" x2="243.876" y2="139.981" gradientUnits="userSpaceOnUse">
<stop stop-color="#010101" stop-opacity="0"/>
<stop offset="0.95" stop-color="#010101"/>
</linearGradient>
<linearGradient id="paint9_linear_122_762" x1="289.056" y1="300.979" x2="299.231" y2="300.979" gradientUnits="userSpaceOnUse">
<stop stop-color="white" stop-opacity="0"/>
<stop offset="0.13" stop-color="white" stop-opacity="0.23"/>
<stop offset="0.23" stop-color="white" stop-opacity="0.41"/>
<stop offset="0.35" stop-color="white" stop-opacity="0.59"/>
<stop offset="0.48" stop-color="white" stop-opacity="0.74"/>
<stop offset="0.6" stop-color="white" stop-opacity="0.85"/>
<stop offset="0.72" stop-color="white" stop-opacity="0.93"/>
<stop offset="0.84" stop-color="white" stop-opacity="0.98"/>
<stop offset="0.95" stop-color="white"/>
</linearGradient>
<linearGradient id="paint10_linear_122_762" x1="289.056" y1="307.872" x2="299.231" y2="307.872" gradientUnits="userSpaceOnUse">
<stop stop-color="white" stop-opacity="0"/>
<stop offset="0.13" stop-color="white" stop-opacity="0.23"/>
<stop offset="0.23" stop-color="white" stop-opacity="0.41"/>
<stop offset="0.35" stop-color="white" stop-opacity="0.59"/>
<stop offset="0.48" stop-color="white" stop-opacity="0.74"/>
<stop offset="0.6" stop-color="white" stop-opacity="0.85"/>
<stop offset="0.72" stop-color="white" stop-opacity="0.93"/>
<stop offset="0.84" stop-color="white" stop-opacity="0.98"/>
<stop offset="0.95" stop-color="white"/>
</linearGradient>
</defs>
</svg>
