<svg width="48" height="48" viewBox="0 0 48 48" fill="none" xmlns="http://www.w3.org/2000/svg">
<path opacity="0.45" d="M24 41.2155C37.2548 41.2155 48 40.5517 48 39.7329C48 38.914 37.2548 38.2502 24 38.2502C10.7452 38.2502 0 38.914 0 39.7329C0 40.5517 10.7452 41.2155 24 41.2155Z" fill="#E6E6E6"/>
<path opacity="0.58" d="M43.4976 37.3205C43.4976 37.3205 41.9789 36.9058 41.6475 35.4907C41.6475 35.4907 44.0033 35.0196 44.0693 37.4445L43.4976 37.3205Z" fill="#827397"/>
<path opacity="0.73" d="M43.678 37.1697C43.678 37.1697 42.6163 35.4907 43.5507 33.9217C43.5507 33.9217 45.3412 35.0588 44.5449 37.1728L43.678 37.1697Z" fill="#827397"/>
<path d="M43.9512 37.1713C43.9512 37.1713 44.5119 35.3981 46.2081 35.0636C46.2081 35.0636 46.5222 36.2132 45.1087 37.176L43.9512 37.1713Z" fill="#827397"/>
<path d="M42.8496 37.1304L43.1559 39.2381L45.0971 39.246L45.383 37.1414L42.8496 37.1304Z" fill="#24285B"/>
<path d="M20.1886 29.3749L18.4609 38.3806H26.8887L25.161 29.3749H20.1886Z" fill="#C9C9C9"/>
<path d="M27.9875 37.4901H17.3076V39.3072H27.9875V37.4901Z" fill="#E6E6E6"/>
<path d="M39.5804 10.2924H6.67676V31.7056H39.5804V10.2924Z" fill="#E6E6E6"/>
<path opacity="0.56" d="M39.5804 10.2924H6.67676V29.2446H39.5804V10.2924Z" fill="white"/>
<path d="M9.20337 10.9081C9.58589 10.9081 9.89599 10.598 9.89599 10.2154C9.89599 9.8329 9.58589 9.52281 9.20337 9.52281C8.82084 9.52281 8.51074 9.8329 8.51074 10.2154C8.51074 10.598 8.82084 10.9081 9.20337 10.9081Z" fill="#24285B"/>
<path d="M11.2629 10.9081C11.6455 10.9081 11.9556 10.598 11.9556 10.2154C11.9556 9.8329 11.6455 9.52281 11.2629 9.52281C10.8804 9.52281 10.5703 9.8329 10.5703 10.2154C10.5703 10.598 10.8804 10.9081 11.2629 10.9081Z" fill="#827397"/>
<path d="M13.2024 10.9081C13.5849 10.9081 13.895 10.598 13.895 10.2154C13.895 9.8329 13.5849 9.52281 13.2024 9.52281C12.8199 9.52281 12.5098 9.8329 12.5098 10.2154C12.5098 10.598 12.8199 10.9081 13.2024 10.9081Z" fill="#B9DBE6"/>
<path d="M5.49512 39.6433L6.93848 33.1867H11.7507L10.3482 39.6433H5.49512Z" fill="#B9DBE6"/>
<path d="M11.7512 33.1867L13.1945 39.6433H10.3486L11.7512 33.1867Z" fill="#B9DBE6"/>
<path opacity="0.09" d="M11.7512 33.1867L13.1945 39.6433H10.3486L11.7512 33.1867Z" fill="black"/>
<path opacity="0.03" d="M6.67676 14.3005V16.3533H39.5804V12.6153L25.7059 10.4259L10.3488 12.2336L7.9929 12.7048L6.69875 14.101L6.67676 14.3005Z" fill="black"/>
<path opacity="0.5" d="M7.54001 34.3097L6.93848 36.9969H10.0074L10.5272 34.3097H7.54001Z" fill="white"/>
<path d="M39.5342 7.83915H23.1076H22.9694H6.54269L3.71094 12.81H22.9694H23.1076H42.366L39.5342 7.83915Z" fill="#827397"/>
<path d="M7.99219 12.8116H12.2736V12.8289C12.2736 13.3895 12.0509 13.9272 11.6544 14.3237C11.258 14.7201 10.7203 14.9429 10.1596 14.9429H10.1062C9.54552 14.9429 9.00781 14.7201 8.61136 14.3237C8.21491 13.9272 7.99219 13.3895 7.99219 12.8289V12.8116Z" fill="#827397"/>
<path d="M16.6172 12.8116H20.8986V12.8289C20.8986 13.3895 20.6759 13.9272 20.2794 14.3237C19.883 14.7201 19.3453 14.9429 18.7846 14.9429H18.7312C18.1705 14.9429 17.6328 14.7201 17.2364 14.3237C16.8399 13.9272 16.6172 13.3895 16.6172 12.8289V12.8116Z" fill="#827397"/>
<path d="M25.1797 12.8116H29.4611V12.8289C29.4611 13.3895 29.2384 13.9272 28.8419 14.3237C28.4455 14.7201 27.9078 14.9429 27.3471 14.9429H27.2937C26.733 14.9429 26.1953 14.7201 25.7989 14.3237C25.4024 13.9272 25.1797 13.3895 25.1797 12.8289V12.8116Z" fill="#827397"/>
<path d="M33.8037 12.8116H38.0851V12.8289C38.0851 13.3895 37.8624 13.9272 37.4659 14.3237C37.0695 14.7201 36.5318 14.9429 35.9711 14.9429H35.9177C35.357 14.9429 34.8193 14.7201 34.4229 14.3237C34.0264 13.9272 33.8037 13.3895 33.8037 12.8289V12.8116Z" fill="#827397"/>
<path d="M20.8984 12.8116V12.8289C20.8984 13.3895 21.1212 13.9272 21.5176 14.3237C21.9141 14.7201 22.4518 14.9429 23.0124 14.9429H23.0658C23.6265 14.9429 24.1642 14.7201 24.5607 14.3237C24.9571 13.9272 25.1798 13.3895 25.1798 12.8289V7.83915H20.8984V12.8116Z" fill="#827397"/>
<path d="M12.335 12.8116V12.8289C12.335 13.3895 12.5577 13.9272 12.9541 14.3237C13.3506 14.7201 13.8883 14.9429 14.449 14.9429H14.5024C15.063 14.9429 15.6007 14.7201 15.9972 14.3237C16.3936 13.9272 16.6164 13.3895 16.6164 12.8289V12.8116L17.1252 7.83915H13.3558L12.335 12.8116Z" fill="#827397"/>
<path d="M3.71094 12.8116V12.8289C3.71094 13.1065 3.76562 13.3814 3.87186 13.6379C3.97809 13.8943 4.13381 14.1274 4.33011 14.3237C4.52642 14.52 4.75946 14.6757 5.01594 14.782C5.27243 14.8882 5.54732 14.9429 5.82494 14.9429H5.87834C6.439 14.9429 6.97671 14.7201 7.37316 14.3237C7.76961 13.9272 7.99233 13.3895 7.99233 12.8289V12.8116L9.8943 7.83915H6.54269L3.71094 12.8116Z" fill="#827397"/>
<path d="M32.7235 7.83915H28.9541L29.4614 12.8116H29.5195V12.8289C29.5195 13.3895 29.7422 13.9272 30.1387 14.3237C30.5351 14.7201 31.0728 14.9429 31.6335 14.9429H31.6869C32.2476 14.9429 32.7853 14.7201 33.1817 14.3237C33.5782 13.9272 33.8009 13.3895 33.8009 12.8289V12.8116H33.7397L32.7235 7.83915Z" fill="#827397"/>
<path d="M39.5342 7.83915H36.1826L38.0846 12.8116V12.8289C38.0846 13.1065 38.1393 13.3814 38.2455 13.6379C38.3517 13.8943 38.5075 14.1274 38.7038 14.3237C38.9001 14.52 39.1331 14.6757 39.3896 14.782C39.6461 14.8882 39.921 14.9429 40.1986 14.9429H40.252C40.5296 14.9429 40.8045 14.8882 41.061 14.782C41.3175 14.6757 41.5505 14.52 41.7468 14.3237C41.9431 14.1274 42.0988 13.8943 42.2051 13.6379C42.3113 13.3814 42.366 13.1065 42.366 12.8289V12.8116L39.5342 7.83915Z" fill="#827397"/>
<g opacity="0.75">
<path d="M20.8975 12.8116V12.8289C20.8975 13.3895 21.1202 13.9272 21.5166 14.3237C21.9131 14.7201 22.4508 14.9429 23.0115 14.9429H23.0649C23.6255 14.9429 24.1632 14.7201 24.5597 14.3237C24.9561 13.9272 25.1789 13.3895 25.1789 12.8289V7.83915H20.8975V12.8116Z" fill="white"/>
<path d="M12.335 12.8116V12.8289C12.335 13.3895 12.5577 13.9272 12.9541 14.3237C13.3506 14.7201 13.8883 14.9429 14.449 14.9429H14.5024C15.063 14.9429 15.6007 14.7201 15.9972 14.3237C16.3936 13.9272 16.6164 13.3895 16.6164 12.8289V12.8116L17.1252 7.83915H13.3558L12.335 12.8116Z" fill="white"/>
<path d="M3.71094 12.8116V12.8289C3.71094 13.1065 3.76562 13.3814 3.87186 13.6379C3.97809 13.8943 4.13381 14.1274 4.33011 14.3237C4.52642 14.52 4.75946 14.6757 5.01594 14.782C5.27243 14.8882 5.54732 14.9429 5.82494 14.9429H5.87834C6.439 14.9429 6.97671 14.7201 7.37316 14.3237C7.76961 13.9272 7.99233 13.3895 7.99233 12.8289V12.8116L9.8943 7.83915H6.54269L3.71094 12.8116Z" fill="white"/>
<path d="M32.7225 7.83915H28.9531L29.4604 12.8116H29.5185V12.8289C29.5185 13.3895 29.7413 13.9272 30.1377 14.3237C30.5342 14.7201 31.0719 14.9429 31.6325 14.9429H31.6859C32.2466 14.9429 32.7843 14.7201 33.1808 14.3237C33.5772 13.9272 33.7999 13.3895 33.7999 12.8289V12.8116H33.7387L32.7225 7.83915Z" fill="white"/>
<path d="M39.5342 7.83915H36.1826L38.0846 12.8116V12.8289C38.0846 13.1065 38.1393 13.3814 38.2455 13.6379C38.3517 13.8943 38.5075 14.1274 38.7038 14.3237C38.9001 14.52 39.1331 14.6757 39.3896 14.782C39.6461 14.8882 39.921 14.9429 40.1986 14.9429H40.252C40.5296 14.9429 40.8045 14.8882 41.061 14.782C41.3175 14.6757 41.5505 14.52 41.7468 14.3237C41.9431 14.1274 42.0988 13.8943 42.2051 13.6379C42.3113 13.3814 42.366 13.1065 42.366 12.8289V12.8116L39.5342 7.83915Z" fill="white"/>
</g>
<path d="M39.5801 6H6.54297V7.83915H39.5801V6Z" fill="#827397"/>
<path d="M31.1196 19.3421H15.2803V26.2243H31.1196V19.3421Z" fill="#24285B"/>
<path d="M20.8986 20.5734H16.6172V24.8548H20.8986V20.5734Z" fill="white"/>
<path d="M19.3821 21.4623C19.231 21.4514 19.0792 21.4583 18.9298 21.4828C18.7992 21.5032 18.6662 21.5032 18.5356 21.4828C18.3866 21.4583 18.2353 21.4514 18.0848 21.4623C17.9934 21.4692 17.9045 21.4947 17.8234 21.5374C17.7423 21.5801 17.6709 21.639 17.6136 21.7105L17.1299 22.3073L17.6011 22.7047L17.8995 22.3372V23.5936H19.5674V22.3372L19.8658 22.7047L20.337 22.3073L19.8533 21.7105C19.7958 21.6391 19.7244 21.5803 19.6434 21.5376C19.5623 21.495 19.4734 21.4693 19.3821 21.4623Z" fill="#827397"/>
<path opacity="0.09" d="M18.3977 21.4655C18.3977 21.4655 18.3066 21.9743 18.7039 21.9696C19.1013 21.9649 19.0259 21.4702 19.0259 21.4702C18.8172 21.4955 18.606 21.4939 18.3977 21.4655Z" fill="black"/>
<path d="M31.0723 21.4514C31.9623 21.4514 32.6838 20.7299 32.6838 19.8399C32.6838 18.95 31.9623 18.2285 31.0723 18.2285C30.1824 18.2285 29.4609 18.95 29.4609 19.8399C29.4609 20.7299 30.1824 21.4514 31.0723 21.4514Z" fill="#B9DBE6"/>
<path d="M27.9892 21.3178H22.2314V22.3073H27.9892V21.3178Z" fill="white"/>
<path opacity="0.28" d="M27.9892 23.0942H22.2314V24.0836H27.9892V23.0942Z" fill="white"/>
<path opacity="0.3" d="M13.893 18.6541H8.22168V27.9834H13.893V18.6541Z" fill="#C9C9C9"/>
<path d="M38.9128 19.5525H37.3359V25.995H38.9128V19.5525Z" fill="#C9C9C9"/>
</svg>
