<svg width="150" height="87" viewBox="0 0 150 87" fill="none" xmlns="http://www.w3.org/2000/svg">
<path opacity="0.3" d="M75 86.2966C116.421 86.2966 150 84.5061 150 82.2974C150 80.0888 116.421 78.2983 75 78.2983C33.5786 78.2983 0 80.0888 0 82.2974C0 84.5061 33.5786 86.2966 75 86.2966Z" fill="#E6E6E6"/>
<path d="M74.484 37.8311C74.484 37.8311 77.0285 35.6069 78.3096 37.3862C79.5907 39.1656 77.8959 40.3311 75.6717 40.4512C73.4475 40.5713 74.484 37.8311 74.484 37.8311Z" fill="#F4A28C"/>
<path opacity="0.08" d="M74.484 37.8311C74.484 37.8311 77.0285 35.6069 78.3096 37.3862C79.5907 39.1656 77.8959 40.3311 75.6717 40.4512C73.4475 40.5713 74.484 37.8311 74.484 37.8311Z" fill="black"/>
<path d="M50.5694 28.1604C50.5694 28.1604 53.0338 38.5963 59.822 38.9122C66.6103 39.228 74.2082 35.8294 74.2082 35.8294L75.5427 40.0109L56.9439 45.0643C56.9439 45.0643 45.1334 38.9878 44.9822 38.2761C44.8309 37.5643 50.5694 28.1604 50.5694 28.1604Z" fill="#827397"/>
<path opacity="0.08" d="M50.5694 28.1604C50.5694 28.1604 53.0338 38.5963 59.822 38.9122C66.6103 39.228 74.2082 35.8294 74.2082 35.8294L75.5427 40.0109L56.9439 45.0643C56.9439 45.0643 45.1334 38.9878 44.9822 38.2761C44.8309 37.5643 50.5694 28.1604 50.5694 28.1604Z" fill="black"/>
<path d="M124.021 53.8276H105.876V64.1969H124.021V53.8276Z" fill="#C1C1C1"/>
<path d="M111.001 45.042H89.6841V64.1968H111.001V45.042Z" fill="#B9DBE6"/>
<path d="M78.3096 40.002H83.0071C83.7197 40.0014 84.4088 40.2566 84.9492 40.7211C85.4896 41.1855 85.8454 41.8285 85.9519 42.5331L89.2571 64.1968H123.612C124.453 64.1964 125.27 63.9132 125.93 63.3929C126.591 62.8725 127.058 62.1451 127.255 61.3276L132.389 40.171" stroke="#24285B" stroke-width="2.03" stroke-linecap="round" stroke-linejoin="round"/>
<path d="M49.4217 78.2539C49.4217 78.2539 50.8096 79.366 52.1664 78.6987C53.5231 78.0315 54.6352 79.0724 53.6744 80.1133C52.7135 81.1543 48.8078 81.4923 48.8078 81.4923L47.2998 79.1347L49.4217 78.2539Z" fill="#827397"/>
<path d="M13.7366 70.4422C13.7366 70.4422 11.9573 70.6691 11.5124 72.1192C11.0676 73.5694 9.52846 73.6361 9.44839 72.226C9.36831 70.8158 11.8283 67.7776 11.8283 67.7776L14.5774 68.3247L13.7366 70.4422Z" fill="#827397"/>
<path d="M42.4288 4.29016L39.395 11.5144L43.6165 13.8854L44.2437 7.40404L42.4288 4.29016Z" fill="#F4A28C"/>
<path opacity="0.31" d="M44.1859 8.83199C43.6401 8.54202 43.1915 8.09807 42.8959 7.5553C42.8959 7.5553 42.58 9.12558 43.9101 11.074L44.1859 8.83199Z" fill="#CE8172"/>
<path d="M46.2455 3.94317C46.2455 3.94317 46.6904 6.56772 46.3968 8.36488C46.3698 8.54032 46.3082 8.70862 46.2154 8.85993C46.1226 9.01124 46.0005 9.14252 45.8564 9.24609C45.7122 9.34965 45.5488 9.42341 45.3758 9.46306C45.2028 9.5027 45.0236 9.50744 44.8487 9.47698C44.2836 9.41429 43.7484 9.19004 43.3074 8.83108C42.8664 8.47211 42.5382 7.99364 42.3621 7.45295L41.3745 5.19762C41.2239 4.72611 41.2235 4.21947 41.3733 3.74771C41.5231 3.27595 41.8158 2.86238 42.2108 2.56417C43.621 1.34975 46.0498 2.3284 46.2455 3.94317Z" fill="#F4A28C"/>
<path d="M45.596 4.10778C44.7772 4.20107 43.9504 4.20107 43.1316 4.10778C43.3984 4.44878 43.5599 4.86023 43.5963 5.29167C43.6326 5.72311 43.5422 6.15578 43.3362 6.53661C43.1407 6.90691 42.8227 7.19796 42.4367 7.36018C42.0506 7.52241 41.6202 7.54577 41.2188 7.42629L40.9786 4.01437C40.9267 3.52676 41.0081 3.03419 41.2141 2.58921C41.4201 2.14423 41.7431 1.76352 42.1485 1.48768C42.4957 1.24527 42.86 1.02822 43.2384 0.838211C44.1903 0.362232 45.6806 0.89604 46.508 0.162054C46.591 0.0881863 46.6918 0.0371777 46.8004 0.014041C46.9091 -0.0090958 47.0219 -0.00356534 47.1278 0.0300871C47.2337 0.0637396 47.329 0.124358 47.4044 0.205987C47.4798 0.287617 47.5326 0.387452 47.5578 0.495684C47.798 1.51882 47.7446 3.16472 46.3923 3.84978C46.1442 3.98223 45.8746 4.06959 45.596 4.10778V4.10778Z" fill="#24285B"/>
<path d="M43.6121 6.45222C43.6121 6.45222 43.5098 5.42909 42.7446 5.56254C41.9795 5.69599 42.1263 7.18176 43.1895 7.23514L43.6121 6.45222Z" fill="#F4A28C"/>
<path d="M46.4413 5.61121L47.2687 6.57206C47.3111 6.62835 47.3396 6.69392 47.3517 6.76336C47.3638 6.8328 47.3593 6.90414 47.3384 6.97148C47.3176 7.03881 47.281 7.10023 47.2317 7.15067C47.1825 7.2011 47.122 7.23911 47.0551 7.26156L46.0587 7.53736L46.4413 5.61121Z" fill="#F4A28C"/>
<path d="M46.2411 14.864C45.9875 14.6727 45.7428 14.4725 45.5026 14.2635C44.0569 13.0001 38.83 8.95208 33.5186 11.1496C27.2553 13.7653 30.0756 17.195 35.4626 17.6398C50.774 18.9254 47.4777 15.7759 46.2411 14.864Z" fill="#827397"/>
<path opacity="0.44" d="M46.2411 14.864C45.9875 14.6727 45.7428 14.4725 45.5026 14.2635C44.0569 13.0001 38.83 8.95208 33.5186 11.1496C27.2553 13.7653 30.0756 17.195 35.4626 17.6398C50.774 18.9254 47.4777 15.7759 46.2411 14.864Z" fill="white"/>
<path d="M43.6521 14.5213C37.8692 12.3416 31.3389 14.6548 27.887 19.7927C26.2366 22.2482 24.7731 25.2776 24.4261 28.5916C23.5631 36.9724 22.3887 44.3567 22.3887 44.3567L38.6921 51.4742C38.6921 51.4742 52.2375 42.0035 51.6637 30.7669C51.2411 22.822 49.822 16.8389 43.6521 14.5213Z" fill="#827397"/>
<path opacity="0.08" d="M36.6726 19.1169C36.6726 19.1169 30.476 26.0298 33.2117 38.2717C35.9475 50.5137 28.7989 47.1685 28.7989 47.1685L38.6788 51.4924C38.6788 51.4924 43.6032 47.52 44.8354 45.9586L46.0676 44.3972L36.6726 19.1169Z" fill="black"/>
<path d="M42.7535 16.4876C42.7535 16.4876 48.0916 17.7821 48.7322 24.4947C49.3727 31.2074 52.193 42.0882 60.2001 40.4689C68.2073 38.8497 74.8799 37.7688 74.8799 37.7688L76.1743 42.0882C76.1743 42.0882 53.7366 55.1576 42.758 44.2501C31.7793 33.3426 33.2073 14.3257 42.7535 16.4876Z" fill="#827397"/>
<path opacity="0.44" d="M42.7535 16.4876C42.7535 16.4876 48.0916 17.7821 48.7322 24.4947C49.3727 31.2074 52.193 42.0882 60.2001 40.4689C68.2073 38.8497 74.8799 37.7688 74.8799 37.7688L76.1743 42.0882C76.1743 42.0882 53.7366 55.1576 42.758 44.2501C31.7793 33.3426 33.2073 14.3257 42.7535 16.4876Z" fill="white"/>
<path d="M22.3888 44.3572C22.3888 44.3572 19.6886 49.4328 22.3888 51.4746C25.089 53.5164 43.3585 68.9746 46.855 79.3438L50.5738 77.8314C50.5738 77.8314 47.4288 63.0316 38.6833 51.4746L22.3888 44.3572Z" fill="#24285B"/>
<path d="M22.3888 51.4877C22.3888 51.4877 36.3212 70.8204 13.6388 66.8257V70.8293C13.6388 70.8293 36.5258 76.9903 35.8808 62.8222C35.2358 48.654 22.3888 51.4877 22.3888 51.4877Z" fill="#24285B"/>
<path d="M75.2847 39.1434C75.2847 39.1434 78.7278 37.1371 79.5907 39.1434C80.4537 41.1496 76.1699 42.0882 76.1699 42.0882L75.2847 39.1434Z" fill="#F4A28C"/>
<path d="M111.001 35.8203H99.5018V45.0374H111.001V35.8203Z" fill="#E6E6E6"/>
<path opacity="0.43" d="M124.021 40.8647H110.587V53.8274H124.021V40.8647Z" fill="#E6E6E6"/>
<path d="M88.6343 60.1309L90.4137 71.1629C90.5932 72.2712 91.1613 73.2795 92.0163 74.0073C92.8712 74.7351 93.9573 75.135 95.08 75.1353H125.623" stroke="#24285B" stroke-width="2.03" stroke-linecap="round" stroke-linejoin="round"/>
<path d="M96.6504 81.6388C98.0507 81.6388 99.1859 80.5036 99.1859 79.1032C99.1859 77.7028 98.0507 76.5676 96.6504 76.5676C95.25 76.5676 94.1148 77.7028 94.1148 79.1032C94.1148 80.5036 95.25 81.6388 96.6504 81.6388Z" fill="#827397"/>
<path d="M121.486 81.6388C122.886 81.6388 124.021 80.5036 124.021 79.1032C124.021 77.7028 122.886 76.5676 121.486 76.5676C120.085 76.5676 118.95 77.7028 118.95 79.1032C118.95 80.5036 120.085 81.6388 121.486 81.6388Z" fill="#827397"/>
<path opacity="0.61" d="M102.189 45.042H97.9848V51.2609H102.189V45.042Z" fill="white"/>
</svg>
