<svg width="356" height="180" viewBox="0 0 356 180" fill="none" xmlns="http://www.w3.org/2000/svg">
<path d="M82.1714 15.1374C82.4025 15.1669 82.6352 15.1812 82.8681 15.1803H107.478C107.668 15.1797 107.857 15.1689 108.046 15.1482C111.097 14.8171 114.175 14.8387 117.221 15.2125C121.302 15.4084 125.285 16.5378 128.861 18.5138C135.614 21.5793 141.509 26.5205 145.711 32.9838C149.58 38.9245 151.769 45.8021 152.045 52.8866C152.32 59.971 150.672 66.9978 147.276 73.2211L112.816 38.3216C112.316 37.8178 111.722 37.4182 111.067 37.1459C110.412 36.8736 109.709 36.734 109 36.7353H94.7335C93.5654 36.7337 92.4287 37.1138 91.4965 37.8178L68.4731 55.2569C67.0654 56.3201 65.44 57.0587 63.7133 57.42C61.9865 57.7812 60.2013 57.756 58.4855 57.3463C56.7696 56.9365 55.1656 56.1523 53.7885 55.0499C52.4113 53.9474 51.295 52.554 50.5196 50.9695C49.3327 48.5215 49.0322 45.7375 49.6695 43.0926C50.3068 40.4478 51.8422 38.1061 54.0138 36.4673L82.1821 15.1374H82.1714ZM39.3294 110.05L39.1794 110.189L31.0011 118.335L30.8618 118.464C29.6422 119.6 28.0304 120.219 26.3641 120.193C24.6978 120.167 23.1062 119.498 21.9225 118.325C21.3272 117.735 20.8547 117.033 20.5322 116.259C20.2097 115.486 20.0436 114.656 20.0436 113.818C20.0436 112.979 20.2097 112.15 20.5322 111.376C20.8547 110.602 21.3272 109.9 21.9225 109.31L30.1115 101.175C30.7069 100.578 31.4144 100.104 32.1934 99.7805C32.9723 99.4572 33.8074 99.2907 34.6508 99.2907C35.4942 99.2907 36.3293 99.4572 37.1082 99.7805C37.8872 100.104 38.5946 100.578 39.1901 101.175C41.6554 103.619 41.6982 107.553 39.3294 110.05ZM38.4612 126.021C36.1032 128.518 36.146 132.452 38.6006 134.896C39.8074 136.094 41.4391 136.767 43.1399 136.767C44.8406 136.767 46.4724 136.094 47.6792 134.896L55.8681 126.76C56.54 126.094 57.0544 125.286 57.3737 124.396C57.693 123.505 57.8091 122.554 57.7135 121.613C57.618 120.672 57.3131 119.764 56.8214 118.956C56.3296 118.148 55.6633 117.459 54.8713 116.942C53.6653 116.15 52.2286 115.785 50.7908 115.906C49.353 116.026 47.997 116.625 46.9396 117.607L46.7895 117.746L38.6113 125.881L38.4612 126.021ZM19.1464 87.9484C19.7418 88.5384 20.2143 89.2404 20.5368 90.014C20.8593 90.7876 21.0253 91.6174 21.0253 92.4555C21.0253 93.2937 20.8593 94.1235 20.5368 94.8971C20.2143 95.6707 19.7418 96.3727 19.1464 96.9627L10.9575 105.098C9.75072 106.297 8.11896 106.969 6.41819 106.969C4.71743 106.969 3.08567 106.297 1.8789 105.098C1.28357 104.508 0.81102 103.806 0.488529 103.032C0.166039 102.259 0 101.429 0 100.591C0 99.7528 0.166039 98.923 0.488529 98.1494C0.81102 97.3758 1.28357 96.6737 1.8789 96.0838L10.0679 87.9377C11.2746 86.7392 12.9064 86.0666 14.6071 86.0666C16.3079 86.0666 17.9397 86.7392 19.1464 87.9377V87.9484ZM72.5462 134.317C73.1415 134.907 73.614 135.609 73.9365 136.382C74.259 137.156 74.4251 137.986 74.4251 138.824C74.4251 139.662 74.259 140.492 73.9365 141.265C73.614 142.039 73.1415 142.741 72.5462 143.331L64.3572 151.477C63.1491 152.673 61.5178 153.344 59.8179 153.344C58.118 153.344 56.4868 152.673 55.2786 151.477C54.2589 150.467 53.6115 149.142 53.4422 147.717C53.2728 146.292 53.5914 144.852 54.3461 143.631L54.3782 143.588C54.6341 143.176 54.9361 142.795 55.2786 142.452L63.4676 134.317C64.6743 133.118 66.3061 132.446 68.0069 132.446C69.7076 132.446 71.3394 133.118 72.5462 134.317ZM16.8098 30.0469C22.7707 24.1293 30.0998 19.7741 38.1472 17.3678C46.1946 14.9614 54.7114 14.5782 62.9424 16.2522L47.5398 27.9246C45.1789 29.7135 43.1948 31.9514 41.7017 34.5096C40.2086 37.0679 39.2358 39.896 38.8394 42.8314C38.443 45.7669 38.6306 48.7518 39.3917 51.6144C40.1527 54.4771 41.472 57.1611 43.2739 59.5121C46.9185 64.266 52.2958 67.385 58.2319 68.1883C64.168 68.9916 70.1809 67.4139 74.9578 63.7996L96.545 47.4538H106.288L127.061 68.087L127.103 68.0334L144.339 85.4939C144.422 85.5787 144.508 85.6609 144.596 85.7404L153.868 95.0119C155.832 96.9995 156.961 99.6639 157.022 102.458C157.083 105.252 156.072 107.963 154.197 110.035C152.321 112.106 149.724 113.381 146.937 113.597C144.151 113.814 141.388 112.955 139.215 111.197L138.433 110.425C138.252 110.244 138.059 110.075 137.854 109.921L128.743 100.811C127.739 99.8043 126.375 99.2384 124.953 99.2374C123.531 99.2364 122.166 99.8004 121.16 100.805C120.154 101.81 119.588 103.174 119.587 104.596C119.586 106.018 120.15 107.382 121.155 108.389L130.823 118.057C131.187 118.421 131.573 118.764 131.948 119.096L132.27 119.418C133.66 120.807 134.441 122.691 134.442 124.656C134.443 126.62 133.664 128.505 132.275 129.895C130.887 131.285 129.002 132.067 127.038 132.068C125.073 132.069 123.188 131.289 121.798 129.901L120.372 128.486C119.618 127.734 118.657 127.224 117.612 127.021C116.567 126.817 115.485 126.929 114.504 127.343C113.523 127.757 112.688 128.454 112.105 129.345C111.521 130.236 111.217 131.28 111.229 132.345C111.215 133.065 111.346 133.781 111.615 134.45C111.883 135.118 112.285 135.726 112.794 136.235L114.67 138.111C115.298 138.74 115.797 139.486 116.137 140.307C116.477 141.128 116.652 142.008 116.652 142.897C116.652 143.786 116.477 144.666 116.137 145.487C115.797 146.308 115.298 147.054 114.67 147.683C114.042 148.311 113.295 148.81 112.474 149.15C111.653 149.49 110.773 149.665 109.884 149.665C108.995 149.665 108.115 149.49 107.294 149.15C106.473 148.81 105.727 148.311 105.098 147.683L104.144 146.718C103.821 146.336 103.481 145.967 103.126 145.614L101.379 143.867C100.368 142.891 99.0145 142.351 97.6093 142.363C96.2041 142.375 94.8599 142.939 93.8663 143.932C92.8726 144.926 92.309 146.27 92.2968 147.675C92.2846 149.08 92.8248 150.434 93.801 151.445L95.1087 152.753C95.2752 152.973 95.4541 153.185 95.6446 153.385L96.1698 153.9C97.2388 155.287 97.7444 157.026 97.5854 158.77C97.4264 160.514 96.6144 162.134 95.3122 163.304C94.0099 164.475 92.3135 165.111 90.5625 165.084C88.8115 165.058 87.1352 164.37 85.8693 163.16L76.5978 154.425L80.1563 150.888C81.7488 149.309 83.0129 147.431 83.8755 145.361C84.7382 143.292 85.1823 141.071 85.1823 138.829C85.1823 136.587 84.7382 134.367 83.8755 132.297C83.0129 130.228 81.7488 128.349 80.1563 126.771C77.0492 123.678 72.8769 121.891 68.4946 121.776C68.3747 117.416 66.578 113.269 63.4783 110.2C60.3745 107.109 56.2061 105.322 51.8272 105.205C51.7045 100.843 49.9039 96.6967 46.8003 93.6292C44.8128 91.6526 42.3731 90.1909 39.6927 89.3709C37.0123 88.5509 34.1723 88.3974 31.4192 88.9238C30.7317 85.6854 29.1108 82.7193 26.7566 80.3918C23.7365 77.4019 19.7194 75.6315 15.4749 75.4199C11.2305 75.2083 7.05714 76.5703 3.75464 79.245C1.36127 70.6226 1.31133 61.5178 3.60997 52.8696C5.9086 44.2215 10.4726 36.3431 16.8312 30.0469H16.8098Z" fill="url(#paint0_linear_1259_2707)"/>
<path d="M200.454 97.2274C201.135 97.7881 201.996 98.5489 203.037 99.51C204.118 100.431 205.339 101.352 206.701 102.273C208.743 103.635 210.766 104.696 212.768 105.457C214.77 106.218 216.872 106.598 219.075 106.598C221.117 106.598 222.819 106.378 224.181 105.937C225.582 105.457 226.684 104.836 227.485 104.075C228.285 103.314 228.846 102.433 229.166 101.432C229.527 100.431 229.707 99.3698 229.707 98.2486C229.707 97.0072 229.226 95.9059 228.265 94.9448C227.344 93.9437 226.203 93.0627 224.842 92.3018C223.48 91.541 222.058 90.9003 220.577 90.3797C219.095 89.819 217.814 89.3585 216.732 88.9981C211.927 87.3162 207.722 85.5142 204.118 83.592C200.514 81.6298 197.511 79.4673 195.108 77.1046C192.705 74.7019 190.903 72.0789 189.702 69.2357C188.5 66.3525 187.9 63.1488 187.9 59.6248C187.9 55.9006 188.641 52.5168 190.122 49.4734C191.644 46.4299 193.786 43.827 196.549 41.6645C199.353 39.5021 202.716 37.8402 206.641 36.6789C210.565 35.4775 214.95 34.8768 219.796 34.8768C223.44 34.8768 226.924 35.2973 230.248 36.1383C233.611 36.9392 236.915 38.2406 240.159 40.0427C241.52 40.8436 242.802 41.6845 244.003 42.5655C245.245 43.4065 246.326 44.2274 247.247 45.0283C248.168 45.8292 248.889 46.5901 249.409 47.3109C249.97 48.0317 250.25 48.6524 250.25 49.173C250.25 49.6936 250.11 50.1741 249.83 50.6146C249.59 51.0551 249.209 51.5557 248.689 52.1163L239.498 61.9074C238.817 62.5882 238.137 62.9286 237.456 62.9286C236.895 62.9286 236.375 62.7684 235.894 62.448C235.454 62.1277 234.953 61.7272 234.392 61.2467L233.852 60.7661C233.051 60.0854 232.15 59.3846 231.149 58.6638C230.188 57.9429 229.146 57.3022 228.025 56.7416C226.904 56.1409 225.723 55.6604 224.481 55.3C223.24 54.8995 221.978 54.6993 220.697 54.6993C219.375 54.6993 218.134 54.8194 216.973 55.0597C215.811 55.2599 214.79 55.6003 213.909 56.0808C213.028 56.5614 212.327 57.2021 211.807 58.003C211.286 58.7639 211.026 59.7049 211.026 60.8262C211.026 61.9475 211.306 62.9286 211.867 63.7695C212.427 64.5704 213.268 65.3313 214.39 66.0521C215.511 66.7329 216.893 67.3936 218.534 68.0344C220.216 68.635 222.158 69.2958 224.361 70.0166C228.606 71.4182 232.51 72.8999 236.074 74.4616C239.678 75.9834 242.782 77.8054 245.385 79.9278C247.988 82.0102 250.01 84.513 251.452 87.4363C252.933 90.3596 253.674 93.9037 253.674 98.0684C253.674 102.473 252.773 106.478 250.971 110.082C249.169 113.646 246.686 116.689 243.523 119.212C240.399 121.735 236.715 123.697 232.47 125.099C228.225 126.461 223.66 127.141 218.775 127.141C214.169 127.141 209.644 126.32 205.199 124.679C200.754 123.037 196.61 120.834 192.765 118.071C191.163 116.91 189.802 115.768 188.681 114.647C187.599 113.526 186.738 112.625 186.098 111.944L185.917 111.764C185.877 111.684 185.837 111.644 185.797 111.644C185.757 111.604 185.717 111.564 185.677 111.524C185.637 111.444 185.597 111.403 185.557 111.403C185.517 111.363 185.477 111.323 185.437 111.283C184.516 110.282 184.055 109.481 184.055 108.881C184.055 108.2 184.516 107.439 185.437 106.598L195.829 96.6868C196.67 96.0861 197.35 95.7858 197.871 95.7858C198.231 95.7858 198.612 95.9059 199.012 96.1462C199.413 96.3865 199.893 96.7469 200.454 97.2274ZM268.301 39.442C268.341 38.7612 268.581 38.1605 269.022 37.64C269.502 37.0793 270.123 36.799 270.884 36.799H288.724C289.325 36.799 289.945 37.0593 290.586 37.5799C291.227 38.0604 291.547 38.6811 291.547 39.442V67.9142H321.401V39.442C321.401 38.7212 321.641 38.1005 322.122 37.5799C322.642 37.0593 323.303 36.799 324.104 36.799H341.704C342.505 36.799 343.206 36.9992 343.806 37.3997C344.407 37.8001 344.707 38.4409 344.707 39.3219V123.357C344.707 124.238 344.447 124.899 343.926 125.339C343.406 125.78 342.725 126 341.884 126H324.104C323.303 126 322.642 125.78 322.122 125.339C321.641 124.899 321.401 124.238 321.401 123.357V89.2384H291.547V123.357C291.547 124.198 291.267 124.859 290.706 125.339C290.185 125.78 289.465 126 288.544 126H270.884C269.202 126 268.341 125.219 268.301 123.657V39.442Z" fill="url(#paint1_linear_1259_2707)"/>
<defs>
<linearGradient id="paint0_linear_1259_2707" x1="78.5124" y1="14.915" x2="78.5124" y2="165.085" gradientUnits="userSpaceOnUse">
<stop stop-color="#363062"/>
<stop offset="1" stop-color="#5E5D99"/>
</linearGradient>
<linearGradient id="paint1_linear_1259_2707" x1="267.55" y1="0" x2="267.55" y2="180" gradientUnits="userSpaceOnUse">
<stop stop-color="#363062"/>
<stop offset="1" stop-color="#5E5D99"/>
</linearGradient>
</defs>
</svg>
