<svg width="95" height="48" viewBox="0 0 95 48" fill="none" xmlns="http://www.w3.org/2000/svg">
<path d="M21.8876 4.05924C21.9491 4.06707 22.0111 4.07089 22.0731 4.07066H28.6283C28.6789 4.07049 28.7294 4.06763 28.7796 4.06209C29.5922 3.97392 30.4123 3.97967 31.2235 4.07922C32.3107 4.13142 33.3714 4.43225 34.3241 4.95858C36.1228 5.77512 37.6931 7.09129 38.8122 8.81288C39.8429 10.3953 40.4259 12.2272 40.4993 14.1143C40.5727 16.0013 40.1338 17.873 39.2291 19.5307L30.0501 10.2347C29.9171 10.1005 29.7588 9.99404 29.5843 9.92151C29.4098 9.84898 29.2227 9.8118 29.0337 9.81214H25.2337C24.9225 9.81172 24.6197 9.91298 24.3714 10.1005L18.2388 14.7456C17.8639 15.0288 17.4309 15.2256 16.971 15.3218C16.511 15.418 16.0355 15.4113 15.5785 15.3022C15.1214 15.193 14.6942 14.9842 14.3274 14.6905C13.9605 14.3968 13.6632 14.0257 13.4566 13.6036C13.1405 12.9516 13.0605 12.21 13.2302 11.5055C13.3999 10.801 13.8089 10.1773 14.3874 9.74077L21.8904 4.05924H21.8876ZM10.476 29.3406L10.436 29.3777L8.25761 31.5475L8.2205 31.5818C7.89562 31.8843 7.46632 32.0494 7.02247 32.0425C6.57863 32.0355 6.15468 31.8572 5.83939 31.5447C5.68082 31.3875 5.55495 31.2005 5.46905 30.9945C5.38315 30.7884 5.33892 30.5674 5.33892 30.3441C5.33892 30.1209 5.38315 29.8999 5.46905 29.6938C5.55495 29.4877 5.68082 29.3007 5.83939 29.1436L8.02064 26.9766C8.17925 26.8175 8.36769 26.6913 8.57518 26.6052C8.78266 26.519 9.0051 26.4747 9.22975 26.4747C9.4544 26.4747 9.67684 26.519 9.88433 26.6052C10.0918 26.6913 10.2803 26.8175 10.4389 26.9766C11.0955 27.6276 11.1069 28.6754 10.476 29.3406ZM10.2447 33.5946C9.61661 34.2598 9.62803 35.3076 10.2818 35.9586C10.6033 36.2778 11.0379 36.457 11.4909 36.457C11.944 36.457 12.3786 36.2778 12.7 35.9586L14.8813 33.7916C15.0603 33.6142 15.1973 33.399 15.2823 33.1618C15.3674 32.9246 15.3983 32.6713 15.3728 32.4206C15.3474 32.1699 15.2662 31.9281 15.1352 31.7128C15.0042 31.4975 14.8267 31.3142 14.6158 31.1764C14.2945 30.9654 13.9119 30.8682 13.5289 30.9003C13.1459 30.9324 12.7847 31.0919 12.5031 31.3534L12.4631 31.3905L10.2847 33.5575L10.2447 33.5946V33.5946ZM5.09994 23.4535C5.25851 23.6107 5.38438 23.7977 5.47028 24.0037C5.55618 24.2098 5.60041 24.4308 5.60041 24.6541C5.60041 24.8773 5.55618 25.0983 5.47028 25.3044C5.38438 25.5105 5.25851 25.6975 5.09994 25.8546L2.91869 28.0216C2.59725 28.3408 2.16261 28.52 1.70958 28.52C1.25656 28.52 0.821914 28.3408 0.500472 28.0216C0.341898 27.8644 0.216027 27.6774 0.130127 27.4714C0.0442269 27.2653 0 27.0443 0 26.821C0 26.5978 0.0442269 26.3767 0.130127 26.1707C0.216027 25.9646 0.341898 25.7776 0.500472 25.6205L2.68172 23.4507C3.00316 23.1314 3.4378 22.9523 3.89083 22.9523C4.34385 22.9523 4.7785 23.1314 5.09994 23.4507V23.4535ZM19.3237 35.8044C19.4823 35.9615 19.6082 36.1486 19.6941 36.3546C19.78 36.5607 19.8242 36.7817 19.8242 37.005C19.8242 37.2282 19.78 37.4492 19.6941 37.6553C19.6082 37.8614 19.4823 38.0484 19.3237 38.2055L17.1425 40.3753C16.8207 40.6939 16.3862 40.8725 15.9334 40.8725C15.4806 40.8725 15.0461 40.6939 14.7243 40.3753C14.4527 40.1064 14.2802 39.7533 14.2351 39.3738C14.19 38.9942 14.2749 38.6105 14.4759 38.2854L14.4844 38.274C14.5526 38.1643 14.6331 38.0628 14.7243 37.9714L16.9055 35.8044C17.227 35.4852 17.6616 35.306 18.1146 35.306C18.5677 35.306 19.0023 35.4852 19.3237 35.8044V35.8044ZM4.47754 8.0306C6.06531 6.45434 8.01753 5.29429 10.1611 4.65332C12.3046 4.01235 14.5732 3.91028 16.7656 4.35616L12.6629 7.4653C12.0341 7.94179 11.5056 8.53788 11.1079 9.21931C10.7101 9.90073 10.451 10.654 10.3454 11.4359C10.2398 12.2178 10.2898 13.0129 10.4925 13.7754C10.6953 14.5379 11.0467 15.2529 11.5266 15.8791C12.4974 17.1454 13.9297 17.9762 15.5109 18.1901C17.0921 18.4041 18.6937 17.9838 19.9661 17.0211L25.7162 12.6672H28.3114L33.8445 18.1631L33.8559 18.1489L38.4468 22.7997C38.4689 22.8223 38.4918 22.8442 38.5153 22.8654L40.9849 25.335C41.5082 25.8644 41.8089 26.5741 41.8252 27.3183C41.8415 28.0625 41.5722 28.7847 41.0726 29.3365C40.573 29.8884 39.8811 30.2279 39.1389 30.2855C38.3968 30.3431 37.6608 30.1143 37.0821 29.6461L36.8737 29.4405C36.8255 29.3922 36.774 29.3473 36.7195 29.3063L34.2927 26.8796C34.025 26.6115 33.6618 26.4608 33.283 26.4605C32.9042 26.4602 32.5408 26.6105 32.2728 26.8781C32.0047 27.1458 31.854 27.509 31.8537 27.8878C31.8534 28.2666 32.0037 28.63 32.2713 28.8981L34.8466 31.4733C34.9437 31.5704 35.0464 31.6617 35.1464 31.7503L35.232 31.8359C35.6023 32.2058 35.8105 32.7076 35.8107 33.231C35.811 33.7544 35.6033 34.2564 35.2334 34.6267C34.8635 34.997 34.3617 35.2051 33.8383 35.2054C33.315 35.2057 32.8129 34.998 32.4426 34.6281L32.0629 34.2513C31.8621 34.051 31.6062 33.9151 31.3278 33.8609C31.0494 33.8067 30.7612 33.8367 30.4999 33.947C30.2386 34.0572 30.0161 34.2428 29.8608 34.4801C29.7054 34.7173 29.6242 34.9955 29.6276 35.2791C29.6236 35.471 29.6585 35.6617 29.7302 35.8398C29.8018 36.0179 29.9087 36.1797 30.0444 36.3155L30.544 36.8151C30.7114 36.9825 30.8442 37.1812 30.9348 37.4C31.0254 37.6187 31.0721 37.8531 31.0721 38.0899C31.0721 38.3266 31.0254 38.561 30.9348 38.7798C30.8442 38.9985 30.7114 39.1972 30.544 39.3646C30.3766 39.532 30.1779 39.6648 29.9592 39.7554C29.7404 39.846 29.506 39.8927 29.2693 39.8927C29.0325 39.8927 28.7981 39.846 28.5794 39.7554C28.3606 39.6648 28.1619 39.532 27.9945 39.3646L27.7404 39.1077C27.6542 39.0058 27.5637 38.9077 27.4692 38.8136L27.0038 38.3482C26.7346 38.0882 26.374 37.9443 25.9997 37.9476C25.6254 37.9508 25.2673 38.101 25.0027 38.3656C24.738 38.6303 24.5879 38.9883 24.5846 39.3626C24.5814 39.7369 24.7252 40.0975 24.9853 40.3668L25.3336 40.7151C25.3779 40.7739 25.4256 40.8301 25.4763 40.8835L25.6162 41.0206C25.901 41.39 26.0357 41.8534 25.9933 42.3179C25.951 42.7825 25.7347 43.2139 25.3878 43.5257C25.0409 43.8376 24.5891 44.0069 24.1227 43.9998C23.6562 43.9927 23.2097 43.8096 22.8726 43.4873L20.4029 41.1605L21.3508 40.2183C21.775 39.7978 22.1117 39.2975 22.3415 38.7463C22.5713 38.195 22.6896 37.6036 22.6896 37.0064C22.6896 36.4091 22.5713 35.8178 22.3415 35.2665C22.1117 34.7152 21.775 34.2149 21.3508 33.7945C20.5232 32.9707 19.4118 32.4947 18.2445 32.464C18.2126 31.3025 17.734 30.1981 16.9084 29.3806C16.0816 28.5572 14.9713 28.0813 13.8049 28.0501C13.7723 26.8882 13.2926 25.7838 12.4659 24.9667C11.9366 24.4402 11.2867 24.0508 10.5727 23.8324C9.85877 23.614 9.1023 23.5731 8.36896 23.7133C8.18585 22.8507 7.75409 22.0607 7.12702 21.4407C6.32258 20.6443 5.25255 20.1727 4.12198 20.1164C2.9914 20.06 1.87977 20.4228 1.0001 21.1352C0.362595 18.8385 0.349292 16.4133 0.961568 14.1098C1.57384 11.8062 2.78953 9.70767 4.48325 8.0306H4.47754Z" fill="url(#paint0_linear_905_3303)"/>
<path d="M53.3939 26.336C53.5752 26.4853 53.8045 26.688 54.0819 26.944C54.3699 27.1893 54.6952 27.4347 55.0579 27.68C55.6019 28.0427 56.1405 28.3253 56.6739 28.528C57.2072 28.7307 57.7672 28.832 58.3539 28.832C58.8979 28.832 59.3512 28.7733 59.7139 28.656C60.0872 28.528 60.3805 28.3627 60.5939 28.16C60.8072 27.9573 60.9565 27.7227 61.0419 27.456C61.1379 27.1893 61.1859 26.9067 61.1859 26.608C61.1859 26.2773 61.0579 25.984 60.8019 25.728C60.5565 25.4613 60.2525 25.2267 59.8899 25.024C59.5272 24.8213 59.1485 24.6507 58.7539 24.512C58.3592 24.3627 58.0179 24.24 57.7299 24.144C56.4499 23.696 55.3299 23.216 54.3699 22.704C53.4099 22.1813 52.6099 21.6053 51.9699 20.976C51.3299 20.336 50.8499 19.6373 50.5299 18.88C50.2099 18.112 50.0499 17.2587 50.0499 16.32C50.0499 15.328 50.2472 14.4267 50.6419 13.616C51.0472 12.8053 51.6179 12.112 52.3539 11.536C53.1005 10.96 53.9965 10.5173 55.0419 10.208C56.0872 9.888 57.2552 9.728 58.5459 9.728C59.5165 9.728 60.4445 9.84 61.3299 10.064C62.2259 10.2773 63.1059 10.624 63.9699 11.104C64.3325 11.3173 64.6739 11.5413 64.9939 11.776C65.3245 12 65.6125 12.2187 65.8579 12.432C66.1032 12.6453 66.2952 12.848 66.4339 13.04C66.5832 13.232 66.6579 13.3973 66.6579 13.536C66.6579 13.6747 66.6205 13.8027 66.5459 13.92C66.4819 14.0373 66.3805 14.1707 66.2419 14.32L63.7939 16.928C63.6125 17.1093 63.4312 17.2 63.2499 17.2C63.1005 17.2 62.9619 17.1573 62.8339 17.072C62.7165 16.9867 62.5832 16.88 62.4339 16.752L62.2899 16.624C62.0765 16.4427 61.8365 16.256 61.5699 16.064C61.3139 15.872 61.0365 15.7013 60.7379 15.552C60.4392 15.392 60.1245 15.264 59.7939 15.168C59.4632 15.0613 59.1272 15.008 58.7859 15.008C58.4339 15.008 58.1032 15.04 57.7939 15.104C57.4845 15.1573 57.2125 15.248 56.9779 15.376C56.7432 15.504 56.5565 15.6747 56.4179 15.888C56.2792 16.0907 56.2099 16.3413 56.2099 16.64C56.2099 16.9387 56.2845 17.2 56.4339 17.424C56.5832 17.6373 56.8072 17.84 57.1059 18.032C57.4045 18.2133 57.7725 18.3893 58.2099 18.56C58.6579 18.72 59.1752 18.896 59.7619 19.088C60.8925 19.4613 61.9325 19.856 62.8819 20.272C63.8419 20.6773 64.6685 21.1627 65.3619 21.728C66.0552 22.2827 66.5939 22.9493 66.9779 23.728C67.3725 24.5067 67.5699 25.4507 67.5699 26.56C67.5699 27.7333 67.3299 28.8 66.8499 29.76C66.3699 30.7093 65.7085 31.52 64.8659 32.192C64.0339 32.864 63.0525 33.3867 61.9219 33.76C60.7912 34.1227 59.5752 34.304 58.2739 34.304C57.0472 34.304 55.8419 34.0853 54.6579 33.648C53.4739 33.2107 52.3699 32.624 51.3459 31.888C50.9192 31.5787 50.5565 31.2747 50.2579 30.976C49.9699 30.6773 49.7405 30.4373 49.5699 30.256L49.5219 30.208C49.5112 30.1867 49.5005 30.176 49.4899 30.176C49.4792 30.1653 49.4685 30.1547 49.4579 30.144C49.4472 30.1227 49.4365 30.112 49.4259 30.112C49.4152 30.1013 49.4045 30.0907 49.3939 30.08C49.1485 29.8133 49.0259 29.6 49.0259 29.44C49.0259 29.2587 49.1485 29.056 49.3939 28.832L52.1619 26.192C52.3859 26.032 52.5672 25.952 52.7059 25.952C52.8019 25.952 52.9032 25.984 53.0099 26.048C53.1165 26.112 53.2445 26.208 53.3939 26.336ZM71.4659 10.944C71.4765 10.7627 71.5405 10.6027 71.6579 10.464C71.7859 10.3147 71.9512 10.24 72.1539 10.24H76.9059C77.0659 10.24 77.2312 10.3093 77.4019 10.448C77.5725 10.576 77.6579 10.7413 77.6579 10.944V18.528H85.6099V10.944C85.6099 10.752 85.6739 10.5867 85.8019 10.448C85.9405 10.3093 86.1165 10.24 86.3299 10.24H91.0179C91.2312 10.24 91.4179 10.2933 91.5779 10.4C91.7379 10.5067 91.8179 10.6773 91.8179 10.912V33.296C91.8179 33.5307 91.7485 33.7067 91.6099 33.824C91.4712 33.9413 91.2899 34 91.0659 34H86.3299C86.1165 34 85.9405 33.9413 85.8019 33.824C85.6739 33.7067 85.6099 33.5307 85.6099 33.296V24.208H77.6579V33.296C77.6579 33.52 77.5832 33.696 77.4339 33.824C77.2952 33.9413 77.1032 34 76.8579 34H72.1539C71.7059 34 71.4765 33.792 71.4659 33.376V10.944Z" fill="url(#paint1_linear_905_3303)"/>
<defs>
<linearGradient id="paint0_linear_905_3303" x1="20.9129" y1="4" x2="20.9129" y2="44" gradientUnits="userSpaceOnUse">
<stop stop-color="#F9F9F9"/>
<stop offset="1" stop-color="#F9F9F9" stop-opacity="0.5"/>
</linearGradient>
<linearGradient id="paint1_linear_905_3303" x1="71.3259" y1="0" x2="71.3259" y2="48" gradientUnits="userSpaceOnUse">
<stop stop-color="#F9F9F9"/>
<stop offset="1" stop-color="#F9F9F9" stop-opacity="0.5"/>
</linearGradient>
</defs>
</svg>
